<?xml version="1.0" encoding="UTF-8"?>
<svg width="24px" height="24px" viewBox="0 0 24 24" version="1.1" xmlns="http://www.w3.org/2000/svg" xmlns:xlink="http://www.w3.org/1999/xlink">
    <!-- Generator: Sketch 64 (93537) - https://sketch.com -->
    <title>icon/fill/add/add-24</title>
    <desc>Created with Sketch.</desc>
    <g id="icon/fill/add/add-24" stroke="none" stroke-width="1" fill="none" fill-rule="evenodd">
        <path d="M12,3.96479482 C12.6075132,3.96479482 13.1,4.4572816 13.1,5.06479482 L13.1,5.06479482 L13.0994548,10.9217948 L18.8996902,10.9227927 C19.4667026,10.9227927 19.9335141,11.3518034 19.9932356,11.9029356 L19.9996902,12.0227927 C19.9996902,12.630306 19.5072035,13.1227927 18.8996902,13.1227927 L18.8996902,13.1227927 L13.0994548,13.1217948 L13.1,18.9807907 C13.1,19.547803 12.6709893,20.0146145 12.1198571,20.074336 L12,20.0807907 C11.3924868,20.0807907 10.9,19.5883039 10.9,18.9807907 L10.9,18.9807907 L10.8994548,13.1217948 L5.03845479,13.1227927 C4.47144245,13.1227927 4.00463092,12.693782 3.94490944,12.1426499 L3.93845479,12.0227927 C3.93845479,11.4152795 4.43094156,10.9227927 5.03845479,10.9227927 L5.03845479,10.9227927 L10.8994548,10.9217948 L10.9,5.06479482 C10.9,4.49778248 11.3290107,4.03097095 11.8801429,3.97124947 Z" id="icon-add" fill="#333333" fill-rule="nonzero"></path>
    </g>
</svg>