<?xml version="1.0" encoding="UTF-8"?>
<svg width="24px" height="24px" viewBox="0 0 24 24" version="1.1" xmlns="http://www.w3.org/2000/svg" xmlns:xlink="http://www.w3.org/1999/xlink">
    <!-- Generator: Sketch 64 (93537) - https://sketch.com -->
    <title>icon/fill/admin-alt/admin-alt-24</title>
    <desc>Created with Sketch.</desc>
    <g id="icon/fill/admin-alt/admin-alt-24" stroke="none" stroke-width="1" fill="none" fill-rule="evenodd">
        <path d="M12,1.9 C14.8166522,1.9 17.1,4.18334778 17.1,7 C17.1,8.76427667 16.2041424,10.3193146 14.8425071,11.2350338 C18.8911134,12.2728783 21.5288851,15.7190523 22.6780228,21.3812149 C22.8163395,22.0627448 22.2954239,22.7 21.6,22.7 L2.4,22.7 C1.69993988,22.7 1.17798517,22.054713 1.3242903,21.3701117 C2.52613677,15.7463464 5.17157216,12.3126043 9.18596647,11.2528161 C7.8081235,10.3405237 6.9,8.77631364 6.9,7 C6.9,4.18334778 9.18334778,1.9 12,1.9 Z M12.0516393,13.1 C7.90698185,13.1 5.19206722,15.4791077 3.80031399,20.5 L20.2146477,20.5 C18.8794312,15.4769756 16.1948651,13.1 12.0516393,13.1 Z M12,4.1 C10.3983742,4.1 9.1,5.39837423 9.1,7 C9.1,8.60162577 10.3983742,9.9 12,9.9 C13.6016258,9.9 14.9,8.60162577 14.9,7 C14.9,5.39837423 13.6016258,4.1 12,4.1 Z" id="icon-admin-alt" fill="#333333" fill-rule="nonzero"></path>
    </g>
</svg>