<?xml version="1.0" encoding="UTF-8"?>
<svg width="24px" height="24px" viewBox="0 0 24 24" version="1.1" xmlns="http://www.w3.org/2000/svg" xmlns:xlink="http://www.w3.org/1999/xlink">
    <!-- Generator: Sketch 64 (93537) - https://sketch.com -->
    <title>icon/fill/admin/admin-24</title>
    <desc>Created with Sketch.</desc>
    <g id="icon/fill/admin/admin-24" stroke="none" stroke-width="1" fill="none" fill-rule="evenodd">
        <path d="M12,1.9 C14.8166522,1.9 17.1,4.18334778 17.1,7 C17.1,8.76446201 16.2039541,10.3196413 14.8420779,11.2353224 C18.8906806,12.2723128 21.5287909,15.7185878 22.6780228,21.3812149 C22.7988544,21.9765905 22.4141606,22.5571911 21.8187851,22.6780228 C21.2234095,22.7988544 20.6428089,22.4141606 20.5219772,21.8187851 C19.3191502,15.8920781 16.542091,13.1 12.0516393,13.1 C7.55667124,13.1 4.74334641,15.8982726 3.4757097,21.8298883 C3.34874589,22.4239864 2.76420975,22.8026735 2.17011169,22.6757097 C1.57601362,22.5487459 1.19732649,21.9642098 1.3242903,21.3701117 C2.52613677,15.7463464 5.17157216,12.3126043 9.18596647,11.2528161 C7.8081235,10.3405237 6.9,8.77631364 6.9,7 C6.9,4.18334778 9.18334778,1.9 12,1.9 Z M12,4.1 C10.3983742,4.1 9.1,5.39837423 9.1,7 C9.1,8.60162577 10.3983742,9.9 12,9.9 C13.6016258,9.9 14.9,8.60162577 14.9,7 C14.9,5.39837423 13.6016258,4.1 12,4.1 Z" id="icon-admin" fill="#333333" fill-rule="nonzero"></path>
    </g>
</svg>