<?xml version="1.0" encoding="UTF-8"?>
<svg width="24px" height="24px" viewBox="0 0 24 24" version="1.1" xmlns="http://www.w3.org/2000/svg" xmlns:xlink="http://www.w3.org/1999/xlink">
    <!-- Generator: Sketch 64 (93537) - https://sketch.com -->
    <title>icon/fill/airplane/airplane-24</title>
    <desc>Created with Sketch.</desc>
    <g id="icon/fill/airplane/airplane-24" stroke="none" stroke-width="1" fill="none" fill-rule="evenodd">
        <path d="M6.12601423,3.74562689 L6.32484705,3.83144462 L21.470895,11.0058884 C21.6098069,11.0716887 21.728568,11.1628287 21.8242706,11.271166 C21.936315,11.3667368 22.029903,11.4875522 22.09708,11.6293704 C22.3571481,12.178403 22.1228961,12.8343088 21.5738634,13.094377 L21.5738634,13.094377 L6.42781544,20.2688207 L6.22898262,20.3546384 C5.62534859,20.5905189 4.96097164,20.631912 4.32973848,20.4698231 C2.671454,20.0440064 1.67234144,18.3545086 2.09815811,16.6962241 L2.09815811,16.6962241 L3.23903161,12.2500292 L1.99518972,7.40404122 C1.56937305,5.74575674 2.56848561,4.05625894 4.22677009,3.63044226 C4.85800325,3.4683533 5.5223802,3.50974639 6.12601423,3.74562689 Z M16.4240316,13.0990292 L5.29303161,13.0990292 L4.22902819,17.243392 L4.20774194,17.3544827 C4.15116175,17.79812 4.43250258,18.2248384 4.87690636,18.338953 C5.08052996,18.3912398 5.29603306,18.3705939 5.48602548,18.2805975 L5.48602548,18.2805975 L16.4240316,13.0990292 Z M4.77393798,5.76131234 C4.32953419,5.87542699 4.04819336,6.30214532 4.10477355,6.74578264 L4.1260598,6.85687333 L5.16303161,10.8990292 L16.1070316,10.8990292 L5.38305709,5.81966787 C5.19306467,5.72967146 4.97756157,5.70902558 4.77393798,5.76131234 Z" id="Combined-Shape" fill="#333333" fill-rule="nonzero"></path>
    </g>
</svg>