<?xml version="1.0" encoding="UTF-8"?>
<svg width="24px" height="24px" viewBox="0 0 24 24" version="1.1" xmlns="http://www.w3.org/2000/svg" xmlns:xlink="http://www.w3.org/1999/xlink">
    <!-- Generator: Sketch 64 (93537) - https://sketch.com -->
    <title>icon/fill/alarm/alarm-24</title>
    <desc>Created with Sketch.</desc>
    <g id="icon/fill/alarm/alarm-24" stroke="none" stroke-width="1" fill="none" fill-rule="evenodd">
        <path d="M11.9999429,2.9 C13.8279817,2.9 15.5468312,3.62997162 16.8099003,4.90004275 C18.0842569,6.1673974 18.8142286,7.88624684 18.8142286,9.71428571 L18.8142286,9.71428571 L18.8149781,12.9035958 C20.154893,13.4677 21.1,14.7951609 21.1,16.336 L21.1,17.3782857 C21.1,19.4279246 19.4276733,21.1 17.3782857,21.1 L6.62171429,21.1 C4.57191535,21.1 2.9,19.4280847 2.9,17.3782857 L2.9,16.336 C2.9,14.7949242 3.84501725,13.4674397 5.18515253,12.9034457 L5.18565714,9.71428571 C5.18565714,5.96391535 8.24957249,2.9 11.9999429,2.9 Z M17.3782857,14.8142857 L6.62171429,14.8142857 C5.7869418,14.8142857 5.1,15.5012275 5.1,16.336 L5.1,17.3782857 C5.1,18.2130582 5.7869418,18.9 6.62171429,18.9 L17.3782857,18.9 C18.2127208,18.9 18.9,18.2128242 18.9,17.3782857 L18.9,16.336 C18.9,15.5014616 18.2127208,14.8142857 17.3782857,14.8142857 Z M11.9999429,5.1 C9.46459894,5.1 7.38565714,7.1789418 7.38565714,9.71428571 L7.38565714,9.71428571 L7.385,12.614 L16.614,12.614 L16.6142286,9.71428571 C16.6142286,8.5603174 16.1853184,7.47344016 15.4227509,6.63212902 L15.2542713,6.45567177 C14.3957143,5.59237132 13.2363375,5.1 11.9999429,5.1 Z" id="icon-alarm" fill="#333333" fill-rule="nonzero"></path>
    </g>
</svg>