<?xml version="1.0" encoding="UTF-8"?>
<svg width="24px" height="24px" viewBox="0 0 24 24" version="1.1" xmlns="http://www.w3.org/2000/svg" xmlns:xlink="http://www.w3.org/1999/xlink">
    <!-- Generator: Sketch 64 (93537) - https://sketch.com -->
    <title>icon/fill/alert/alert-24</title>
    <desc>Created with Sketch.</desc>
    <g id="icon/fill/alert/alert-24" stroke="none" stroke-width="1" fill="none" fill-rule="evenodd">
        <path d="M12,1.9 C17.578076,1.9 22.1,6.42192403 22.1,12 C22.1,17.578076 17.578076,22.1 12,22.1 C6.42192403,22.1 1.9,17.578076 1.9,12 C1.9,6.42192403 6.42192403,1.9 12,1.9 Z M12,4.1 C7.63695048,4.1 4.1,7.63695048 4.1,12 C4.1,16.3630495 7.63695048,19.9 12,19.9 C16.3630495,19.9 19.9,16.3630495 19.9,12 C19.9,7.63695048 16.3630495,4.1 12,4.1 Z M12,15.2242341 C12.6075132,15.2242341 13.1,15.7167209 13.1,16.3242341 L13.1,16.3242341 L13.1,16.5 C13.1,17.1075132 12.6075132,17.6 12,17.6 C11.3924868,17.6 10.9,17.1075132 10.9,16.5 L10.9,16.5 L10.9,16.3242341 C10.9,15.7167209 11.3924868,15.2242341 12,15.2242341 Z M12,6.4 C12.6075132,6.4 13.1,6.89248678 13.1,7.5 L13.1,7.5 L13.1,13 C13.1,13.6075132 12.6075132,14.1 12,14.1 C11.3924868,14.1 10.9,13.6075132 10.9,13 L10.9,13 L10.9,7.5 C10.9,6.89248678 11.3924868,6.4 12,6.4 Z" id="icon-alert" fill="#333333" fill-rule="nonzero"></path>
    </g>
</svg>