<?xml version="1.0" encoding="UTF-8"?>
<svg width="24px" height="24px" viewBox="0 0 24 24" version="1.1" xmlns="http://www.w3.org/2000/svg" xmlns:xlink="http://www.w3.org/1999/xlink">
    <!-- Generator: Sketch 64 (93537) - https://sketch.com -->
    <title>icon/fill/alert-alt/alert-alt-24</title>
    <desc>Created with Sketch.</desc>
    <g id="icon/fill/alert-alt/alert-alt-24" stroke="none" stroke-width="1" fill="none" fill-rule="evenodd">
        <path d="M12,18.6836214 C12.6075132,18.6836214 13.1,19.1761081 13.1,19.7836214 L13.1,19.7836214 L13.1,20.1 C13.1,20.7075132 12.6075132,21.2 12,21.2 C11.3924868,21.2 10.9,20.7075132 10.9,20.1 L10.9,20.1 L10.9,19.7836214 C10.9,19.1761081 11.3924868,18.6836214 12,18.6836214 Z M12,2.8 C12.6075132,2.8 13.1,3.29248678 13.1,3.9 L13.1,3.9 L13.1,15 C13.1,15.6075132 12.6075132,16.1 12,16.1 C11.3924868,16.1 10.9,15.6075132 10.9,15 L10.9,15 L10.9,3.9 C10.9,3.29248678 11.3924868,2.8 12,2.8 Z" id="icon-alert-alt" fill="#333333" fill-rule="nonzero"></path>
    </g>
</svg>