<?xml version="1.0" encoding="UTF-8"?>
<svg width="24px" height="24px" viewBox="0 0 24 24" version="1.1" xmlns="http://www.w3.org/2000/svg" xmlns:xlink="http://www.w3.org/1999/xlink">
    <!-- Generator: Sketch 64 (93537) - https://sketch.com -->
    <title>icon/fill/angle-duble/angle-duble-24</title>
    <desc>Created with Sketch.</desc>
    <g id="icon/fill/angle-duble/angle-duble-24" stroke="none" stroke-width="1" fill="none" fill-rule="evenodd">
        <path d="M17.6082702,14.2129019 C18.0429725,13.7885126 18.7394038,13.796873 19.163793,14.2315753 C19.5881823,14.6662775 19.579822,15.3627088 19.1451197,15.7870981 L19.1451197,15.7870981 L12.8668753,21.9163956 C12.4350845,22.3379424 11.7442951,22.3329249 11.3186733,21.9051503 L11.3186733,21.9051503 L5.22022282,15.7758528 C4.79173116,15.3451937 4.79348817,14.6487145 5.22414721,14.2202228 C5.65480626,13.7917312 6.35128552,13.7934882 6.77977718,14.2241472 L6.77977718,14.2241472 L12.1096963,19.581026 Z M12.8668753,2.21290159 L19.1451197,8.3421991 C19.579822,8.76658837 19.5881823,9.46301966 19.163793,9.89772194 C18.7394038,10.3324242 18.0429725,10.3407846 17.6082702,9.91639528 L12.1096963,4.5482712 L6.77977718,9.90514998 C6.35128552,10.335809 5.65480626,10.337566 5.22414721,9.90907437 C4.79348817,9.48058271 4.79173116,8.78410345 5.22022282,8.3534444 L11.3186733,2.22414689 C11.7442951,1.79637228 12.4350845,1.79135475 12.8668753,2.21290159 Z" id="icon-angle-duble" fill="#333333" fill-rule="nonzero"></path>
    </g>
</svg>