<?xml version="1.0" encoding="UTF-8"?>
<svg width="24px" height="24px" viewBox="0 0 24 24" version="1.1" xmlns="http://www.w3.org/2000/svg" xmlns:xlink="http://www.w3.org/1999/xlink">
    <!-- Generator: Sketch 64 (93537) - https://sketch.com -->
    <title>icon/fill/archive/archive-24</title>
    <desc>Created with Sketch.</desc>
    <g id="icon/fill/archive/archive-24" stroke="none" stroke-width="1" fill="none" fill-rule="evenodd">
        <path d="M21,3.9 C21.6075132,3.9 22.1,4.39248678 22.1,5 L22.1,9 C22.1,9.60751322 21.6075132,10.1 21,10.1 L20.1,10.1 L20.1,18 C20.1,19.7120827 18.7120827,21.1 17,21.1 L7,21.1 C5.28791728,21.1 3.9,19.7120827 3.9,18 L3.9,10.1 L3,10.1 C2.39248678,10.1 1.9,9.60751322 1.9,9 L1.9,5 C1.9,4.39248678 2.39248678,3.9 3,3.9 L21,3.9 Z M17.9,10.1 L6.1,10.1 L6.1,18 C6.1,18.4970563 6.50294373,18.9 7,18.9 L17,18.9 C17.4970563,18.9 17.9,18.4970563 17.9,18 L17.9,10.1 Z M14.5,11.4 C15.1075132,11.4 15.6,11.8924868 15.6,12.5 C15.6,13.1075132 15.1075132,13.6 14.5,13.6 L14.5,13.6 L9,13.6 C8.39248678,13.6 7.9,13.1075132 7.9,12.5 C7.9,11.8924868 8.39248678,11.4 9,11.4 L9,11.4 Z M19.9,6.1 L4.1,6.1 L4.1,7.9 L19.9,7.9 L19.9,6.1 Z" id="icon-archive" fill="#333333" fill-rule="nonzero"></path>
    </g>
</svg>