<?xml version="1.0" encoding="UTF-8"?>
<svg width="24px" height="24px" viewBox="0 0 24 24" version="1.1" xmlns="http://www.w3.org/2000/svg" xmlns:xlink="http://www.w3.org/1999/xlink">
    <!-- Generator: Sketch 64 (93537) - https://sketch.com -->
    <title>icon/fill/arrow-right-duble/arrow-right-duble-24</title>
    <desc>Created with Sketch.</desc>
    <g id="icon/fill/arrow-right-duble/arrow-right-duble-24" stroke="none" stroke-width="1" fill="none" fill-rule="evenodd">
        <path d="M8.27781746,6.77243507 C8.67875573,7.17337335 8.70548495,7.80681532 8.35800511,8.23875408 L8.27781746,8.32806999 L5.11525253,11.4892525 L8.63612571,11.525183 C9.24360826,11.5312885 9.73112067,12.0286999 9.72507189,12.6361824 C9.71931669,13.2031661 9.2856362,13.6656425 8.73393165,13.7198221 L8.61401571,13.7250719 L5.29725253,13.6912525 L8.27781746,16.67193 C8.67875573,17.0728683 8.70548495,17.7063103 8.35800511,18.138249 L8.27781746,18.2275649 C7.87687919,18.6285032 7.24343722,18.6552324 6.81149845,18.3077526 L6.72218254,18.2275649 L1.77243507,13.2778175 C1.3714968,12.8768792 1.34476758,12.2434372 1.69224742,11.8114984 L1.77243507,11.7221825 L6.72218254,6.77243507 C7.15175926,6.34285835 7.84824074,6.34285835 8.27781746,6.77243507 Z M17.2778175,6.77243507 C17.6787557,7.17337335 17.705485,7.80681532 17.3580051,8.23875408 L17.2778175,8.32806999 L14.1222525,11.4822525 L21.631251,11.5251438 C22.2387548,11.5285358 22.728484,12.0237648 22.7251095,12.6312685 C22.721926,13.198272 22.2903156,13.6626809 21.7388585,13.7193242 L21.6189672,13.7251095 L14.2892525,13.6832525 L17.2778175,16.67193 C17.6787557,17.0728683 17.705485,17.7063103 17.3580051,18.138249 L17.2778175,18.2275649 C16.8768792,18.6285032 16.2434372,18.6552324 15.8114984,18.3077526 L15.7221825,18.2275649 L10.7724351,13.2778175 C10.3714968,12.8768792 10.3447676,12.2434372 10.6922474,11.8114984 L10.7724351,11.7221825 L15.7221825,6.77243507 C16.1517593,6.34285835 16.8482407,6.34285835 17.2778175,6.77243507 Z" id="icon-arrow-right" fill="#333333" fill-rule="nonzero" transform="translate(12.087690, 12.500000) scale(-1, 1) translate(-12.087690, -12.500000) "></path>
    </g>
</svg>