<?xml version="1.0" encoding="UTF-8"?>
<svg width="24px" height="24px" viewBox="0 0 24 24" version="1.1" xmlns="http://www.w3.org/2000/svg" xmlns:xlink="http://www.w3.org/1999/xlink">
    <!-- Generator: Sketch 64 (93537) - https://sketch.com -->
    <title>icon/fill/arrow-left/arrow-left-24</title>
    <desc>Created with Sketch.</desc>
    <g id="icon/fill/arrow-left/arrow-left-24" stroke="none" stroke-width="1" fill="none" fill-rule="evenodd">
        <path d="M11.17193,3.22218254 C11.6015067,2.79260582 12.2979882,2.79260582 12.7275649,3.22218254 L12.7275649,3.22218254 L17.6773124,8.17193001 C18.1068891,8.60150673 18.1068891,9.29798821 17.6773124,9.72756493 C17.2477357,10.1571416 16.5512542,10.1571416 16.1216775,9.72756493 L16.1216775,9.72756493 L13.1,6.706 L13.1,19.9497475 C13.1,20.5167598 12.6709893,20.9835713 12.1198571,21.0432928 L12,21.0497475 C11.3924868,21.0497475 10.9,20.5572607 10.9,19.9497475 L10.9,19.9497475 L10.9,6.604 L7.77781746,9.72756493 C7.37892479,10.1264576 6.74989486,10.1549499 6.31812544,9.81304193 L6.22218254,9.72756493 C5.79260582,9.29798821 5.79260582,8.60150673 6.22218254,8.17193001 L6.22218254,8.17193001 Z" id="icon-arrow-left" fill="#333333" fill-rule="nonzero" transform="translate(11.949747, 11.974874) rotate(-90.000000) translate(-11.949747, -11.974874) "></path>
    </g>
</svg>