<?xml version="1.0" encoding="UTF-8"?>
<svg width="24px" height="24px" viewBox="0 0 24 24" version="1.1" xmlns="http://www.w3.org/2000/svg" xmlns:xlink="http://www.w3.org/1999/xlink">
    <!-- Generator: Sketch 64 (93537) - https://sketch.com -->
    <title>icon/fill/bag/bag-24</title>
    <desc>Created with Sketch.</desc>
    <g id="icon/fill/bag/bag-24" stroke="none" stroke-width="1" fill="none" fill-rule="evenodd">
        <path d="M12,1.9 C14.2643675,1.9 16.1,3.73563253 16.1,6 L16.1,6 L16.1,6.899 L19,6.9 C19.6075132,6.9 20.1,7.39248678 20.1,8 L20.1,19 C20.1,20.7120827 18.7120827,22.1 17,22.1 L7,22.1 C5.28791728,22.1 3.9,20.7120827 3.9,19 L3.9,8 C3.9,7.39248678 4.39248678,6.9 5,6.9 L7.9,6.899 L7.9,6 C7.9,3.80424972 9.62606768,2.01164415 11.7953686,1.90501769 Z M17.9,9.1 L16.1,9.099 L16.1,10 C16.1,10.5670123 15.6709893,11.0338239 15.1198571,11.0935453 L15,11.1 C14.3924868,11.1 13.9,10.6075132 13.9,10 L13.9,10 L13.9,9.099 L10.1,9.099 L10.1,10 C10.1,10.5670123 9.6709893,11.0338239 9.11985712,11.0935453 L9,11.1 C8.39248678,11.1 7.9,10.6075132 7.9,10 L7.9,10 L7.9,9.099 L6.1,9.1 L6.1,19 C6.1,19.4970563 6.50294373,19.9 7,19.9 L17,19.9 C17.4970563,19.9 17.9,19.4970563 17.9,19 L17.9,9.1 Z M12,4.1 C10.950659,4.1 10.1,4.95065898 10.1,6 L10.1,6 L10.1,6.899 L13.9,6.899 L13.9,6 C13.9,5.0006276 13.1284272,4.18146567 12.1484839,4.1057164 Z" id="icon-bag" fill="#333333" fill-rule="nonzero"></path>
    </g>
</svg>