<?xml version="1.0" encoding="UTF-8"?>
<svg width="24px" height="24px" viewBox="0 0 24 24" version="1.1" xmlns="http://www.w3.org/2000/svg" xmlns:xlink="http://www.w3.org/1999/xlink">
    <!-- Generator: Sketch 64 (93537) - https://sketch.com -->
    <title>icon/fill/ball/ball-24</title>
    <desc>Created with Sketch.</desc>
    <g id="icon/fill/ball/ball-24" stroke="none" stroke-width="1" fill="none" fill-rule="evenodd">
        <path d="M12,0.9 C17.3426687,0.9 21.8037356,4.67458571 22.8619373,9.7024936 C22.8889011,9.77755877 22.9076395,9.85736859 22.9173626,9.94042825 L22.9207991,10.0027509 C23.0385193,10.6506469 23.1,11.3181437 23.1,12 C23.1,18.1303607 18.1303607,23.1 12,23.1 C5.86963928,23.1 0.9,18.1303607 0.9,12 C0.9,5.86963928 5.86963928,0.9 12,0.9 Z M10.0571433,10.4161248 L9.90797577,10.6228894 C8.37848178,12.6792138 6.15026325,14.1947631 3.55216936,14.8051702 C4.72591776,18.3458567 8.06468281,20.9 12,20.9 L11.9360063,20.8998827 C11.9120517,20.6017011 11.9,20.3015691 11.9,20 C11.9,17.4988158 12.731463,15.1776246 14.1413644,13.3113231 C12.8801133,12.2150363 11.5113235,11.2446733 10.0571433,10.4161248 Z M15.7532298,14.8364235 L15.6644682,14.9597773 C14.6758651,16.39736 14.1,18.1364512 14.1,20 C14.1,20.2156786 14.1076514,20.4302915 14.1228646,20.6435771 C15.8030621,20.2338933 17.2953074,19.3462338 18.4490432,18.1335269 C17.6403617,16.9554932 16.7376023,15.8534996 15.7532298,14.8364235 Z M20.8769154,11.3540216 L20.6748072,11.4061946 C19.3893341,11.7524962 18.2231211,12.3783585 17.2419301,13.2124063 C18.1693708,14.1608864 19.0304089,15.1782579 19.8172694,16.257872 C20.5073645,14.9941952 20.9,13.5429501 20.9,12 C20.9,11.7827683 20.8922173,11.5673543 20.8769154,11.3540216 Z M4.07017316,7.95767855 L4.00460625,8.08600542 C3.42527883,9.2672105 3.1,10.5956188 3.1,12 C3.1,12.2168929 3.10775847,12.4319736 3.12301303,12.6449799 C5.13529572,12.1541093 6.86585204,10.9835069 8.07456322,9.4002613 C6.78960016,8.80997908 5.45094236,8.32642483 4.07017316,7.95767855 Z M12.1,4 C12.1,5.59837556 11.7601506,7.12443401 11.1460376,8.50550595 C12.7455249,9.41579235 14.2498538,10.4849829 15.6362367,11.6942818 C16.9818204,10.4981077 18.6248015,9.6229575 20.4481544,9.19465216 C19.2740822,5.65414332 15.9353172,3.1 12,3.1 L12.0641073,3.10153586 C12.0879885,3.3992757 12.1,3.69893264 12.1,4 Z M9.87712195,3.35623796 L9.71489909,3.39608331 C8.02106047,3.8447701 6.52532484,4.78036943 5.38657969,6.04399385 C6.69512524,6.4332792 7.96502908,6.91784383 9.18874972,7.49073323 C9.64686666,6.41619901 9.9,5.2349814 9.9,4 C9.9,3.7842693 9.89234494,3.56959569 9.87712195,3.35623796 Z" id="icon-ball" fill="#333333" fill-rule="nonzero"></path>
    </g>
</svg>