<?xml version="1.0" encoding="UTF-8"?>
<svg width="24px" height="24px" viewBox="0 0 24 24" version="1.1" xmlns="http://www.w3.org/2000/svg" xmlns:xlink="http://www.w3.org/1999/xlink">
    <!-- Generator: Sketch 64 (93537) - https://sketch.com -->
    <title>icon/fill/ball-alt/ball-alt-24</title>
    <desc>Created with Sketch.</desc>
    <g id="icon/fill/ball-alt/ball-alt-24" stroke="none" stroke-width="1" fill="none" fill-rule="evenodd">
        <path d="M12,0.9 C18.1303607,0.9 23.1,5.86963928 23.1,12 C23.1,18.1303607 18.1303607,23.1 12,23.1 C5.86963928,23.1 0.9,18.1303607 0.9,12 C0.9,5.86963928 5.86963928,0.9 12,0.9 Z M12,20.316 L11.1692673,20.8617412 C11.4427787,20.8870586 11.7198781,20.9 12,20.9 C12.2801219,20.9 12.5572213,20.8870586 12.8307327,20.8617412 L12,20.316 Z M15.6539506,3.88225795 L15.6040355,3.91943928 L12.6040355,5.89058665 L12.478109,5.96196815 C12.1332107,6.12852499 11.7218831,6.10473115 11.3959645,5.89058665 L11.3959645,5.89058665 L8.39596451,3.91943928 L8.34604941,3.88225795 C6.37511871,4.77079487 4.7858831,6.35602836 3.89217934,8.32412164 L3.93380375,8.38160005 L5.90495111,11.3816 C6.11909562,11.7075186 6.14288945,12.1188462 5.97633261,12.4637446 L5.90495111,12.589671 L3.93380375,15.589671 L3.88360748,15.6569426 C4.77194944,17.6254924 6.35541985,19.2129609 8.32113394,20.1064633 L8.39596451,20.0518318 L11.3959645,18.0806844 C11.7218831,17.8665399 12.1332107,17.8427461 12.478109,18.0093029 L12.6040355,18.0806844 L15.6040355,20.0518318 L15.6788661,20.1064633 C17.6445801,19.2129609 19.2280506,17.6254924 20.1163925,15.6569426 L20.0661963,15.589671 L18.0950489,12.589671 L18.0236674,12.4637446 C17.8571106,12.1188462 17.8809044,11.7075186 18.0950489,11.3816 L18.0950489,11.3816 L20.0661963,8.38160005 L20.1078207,8.32412164 C19.2141169,6.35602836 17.6248813,4.77079487 15.6539506,3.88225795 Z M11.3468222,8.11492441 C11.7351276,7.82835853 12.2648724,7.82835853 12.6531778,8.11492441 L12.6531778,8.11492441 L15.6531778,10.3288972 C16.0426228,10.6163041 16.1984428,11.1245024 16.0370299,11.5808093 L16.0370299,11.5808093 L14.7495634,15.2204176 C14.5941264,15.6598309 14.1786287,15.9535811 13.7125335,15.9535811 L13.7125335,15.9535811 L10.2440268,15.9535811 C9.77362963,15.9535811 9.35529097,15.6544694 9.2031499,15.2093553 L9.2031499,15.2093553 L7.9591231,11.569747 C7.80397672,11.1158403 7.96085756,10.6137356 8.34682223,10.3288972 L8.34682223,10.3288972 Z M12,10.367 L10.301,11.621 L11.03,13.753 L12.934,13.753 L13.69,11.615 L12,10.367 Z M3.1376108,11.1762984 C3.11272055,11.4475273 3.1,11.7222781 3.1,12 C3.1,12.2691502 3.11194745,12.5355099 3.13534094,12.7985778 L3.66963554,11.9856355 Z M20.8623892,11.1762984 L20.3303645,11.9856355 L20.8646591,12.7985778 C20.8880525,12.5355099 20.9,12.2691502 20.9,12 C20.9,11.7222781 20.8872794,11.4475273 20.8623892,11.1762984 Z M12,3.1 C11.732907,3.1 11.468562,3.11176551 11.2074549,3.13480653 L12,3.65527107 L12.7915395,3.13471786 C12.5307594,3.11173532 12.2667501,3.1 12,3.1 Z" id="icon-ball-alt" fill="#333333" fill-rule="nonzero"></path>
    </g>
</svg>