<?xml version="1.0" encoding="UTF-8"?>
<svg width="24px" height="24px" viewBox="0 0 24 24" version="1.1" xmlns="http://www.w3.org/2000/svg" xmlns:xlink="http://www.w3.org/1999/xlink">
    <!-- Generator: Sketch 64 (93537) - https://sketch.com -->
    <title>icon/fill/bell/bell-24</title>
    <desc>Created with Sketch.</desc>
    <g id="icon/fill/bell/bell-24" stroke="none" stroke-width="1" fill="none" fill-rule="evenodd">
        <path d="M12,1.9 C12.6075132,1.9 13.1,2.39248678 13.1,3 L13.1,3 L13.1005091,3.99901138 C15.9441583,4.51712763 18.1,7.00680191 18.1,10 L18.1008549,13.1011528 C19.2694859,13.5451936 20.1,14.6756083 20.1,16 L20.1,18 C20.1,18.6075132 19.6075132,19.1 19,19.1 L15.9505145,19.1008961 C15.4695203,20.8306169 13.8830003,22.1 12,22.1 C10.1169997,22.1 8.53047967,20.8306169 8.04948546,19.1008961 L5,19.1 C4.39248678,19.1 3.9,18.6075132 3.9,18 L3.9,16 C3.9,14.6752323 4.73098573,13.5445517 5.90014063,13.1007748 L5.9,10 C5.9,7.00644877 8.05635043,4.51654017 10.9004974,3.99882808 L10.9,3 C10.9,2.39248678 11.3924868,1.9 12,1.9 Z M13.5485586,19.1011528 L10.4514414,19.1011528 C10.7958805,19.5846688 11.3611155,19.9 12,19.9 C12.6388845,19.9 13.2041195,19.5846688 13.5485586,19.1011528 Z M17,15.1 L7,15.1 C6.50294373,15.1 6.1,15.5029437 6.1,16 L6.1,16.9 L17.9,16.9 L17.9,16 C17.9,15.5029437 17.4970563,15.1 17,15.1 Z M12,6.1 C9.84608948,6.1 8.1,7.84608948 8.1,10 L8.1,12.9 L15.9,12.9 L15.9,10 C15.9,7.84608948 14.1539105,6.1 12,6.1 Z" id="icon-bell" fill="#333333" fill-rule="nonzero"></path>
    </g>
</svg>