<?xml version="1.0" encoding="UTF-8"?>
<svg width="24px" height="24px" viewBox="0 0 24 24" version="1.1" xmlns="http://www.w3.org/2000/svg" xmlns:xlink="http://www.w3.org/1999/xlink">
    <!-- Generator: Sketch 64 (93537) - https://sketch.com -->
    <title>icon/fill/bluetooth/bluetooth-24</title>
    <desc>Created with Sketch.</desc>
    <g id="icon/fill/bluetooth/bluetooth-24" stroke="none" stroke-width="1" fill="none" fill-rule="evenodd">
        <path d="M14.8458181,16.3890554 L13.1008419,18.1465496 L13.1008419,14.6494744 L14.8458181,16.3890554 Z M13.1008419,9.26803991 L13.1008419,5.75688507 L14.8479728,7.50381992 L13.1008419,9.26803991 Z M10.4190942,11.9760184 L6.40648128,16.0278795 C5.97900029,16.4595418 5.98238989,17.156015 6.41405216,17.583496 C6.84571444,18.010977 7.54218767,18.0075874 7.96966866,17.5759251 L10.9008419,14.6160815 L10.9008419,20.8156656 C10.9008419,21.7975576 12.0896177,22.2874777 12.7814343,21.5906981 L17.1804671,17.1601077 C17.6078928,16.7296158 17.6061121,16.0343511 17.1764869,15.6060543 L13.5251986,11.9660554 L17.1814684,8.27402281 C17.607496,7.84382816 17.6057887,7.15023105 17.1776485,6.72213889 L12.7786157,2.32359979 C12.0856365,1.63069837 10.9008419,2.12149532 10.9008419,3.10146089 L10.9008419,9.34981286 L7.96468717,6.42273639 C7.53444584,5.99382531 6.8379652,5.9949037 6.40905412,6.42514503 C5.98014304,6.85538636 5.98122143,7.55186701 6.41146276,7.98077808 L10.4190942,11.9760184 Z" id="icon-bluetooth" fill="#333333" fill-rule="nonzero"></path>
    </g>
</svg>