<?xml version="1.0" encoding="UTF-8"?>
<svg width="24px" height="24px" viewBox="0 0 24 24" version="1.1" xmlns="http://www.w3.org/2000/svg" xmlns:xlink="http://www.w3.org/1999/xlink">
    <!-- Generator: Sketch 64 (93537) - https://sketch.com -->
    <title>icon/fill/bookmark/bookmark-24</title>
    <desc>Created with Sketch.</desc>
    <g id="icon/fill/bookmark/bookmark-24" stroke="none" stroke-width="1" fill="none" fill-rule="evenodd">
        <path d="M6.55425813,21.9501568 C5.82093583,22.3779281 4.9,21.8489699 4.9,21 L4.9,5 C4.9,3.28791728 6.28791728,1.9 8,1.9 L16,1.9 C17.7120827,1.9 19.1,3.28791728 19.1,5 L19.1,21 C19.1,21.8489699 18.1790642,22.3779281 17.4457419,21.9501568 L12,18.773474 L6.55425813,21.9501568 Z M16.9,5 C16.9,4.50294373 16.4970563,4.1 16,4.1 L8,4.1 C7.50294373,4.1 7.1,4.50294373 7.1,5 L7.1,19.0848593 L11.4457419,16.5498432 C11.7882406,16.3500523 12.2117594,16.3500523 12.5542581,16.5498432 L16.9,19.0848593 L16.9,5 Z" id="icon-bookmark" fill="#333333" fill-rule="nonzero"></path>
    </g>
</svg>