<?xml version="1.0" encoding="UTF-8"?>
<svg width="24px" height="24px" viewBox="0 0 24 24" version="1.1" xmlns="http://www.w3.org/2000/svg" xmlns:xlink="http://www.w3.org/1999/xlink">
    <!-- Generator: Sketch 64 (93537) - https://sketch.com -->
    <title>icon/fill/box/box-24</title>
    <desc>Created with Sketch.</desc>
    <g id="icon/fill/box/box-24" stroke="none" stroke-width="1" fill="none" fill-rule="evenodd">
        <path d="M10.5306275,1.6704972 C11.5332352,1.06765572 12.7867648,1.06765572 13.7893725,1.6704972 L13.7893725,1.6704972 L20.4037684,5.64755849 C21.0479755,6.03490312 21.442,6.73158566 21.442,7.48327612 L21.442,7.48327612 L21.442,15.8954286 C21.442,17.0525048 20.8099998,18.1171779 19.7942271,18.6712817 L19.7942271,18.6712817 L13.1857667,22.2761949 C12.5463936,22.6249728 11.7736064,22.6249728 11.1342333,22.2761949 L11.1342333,22.2761949 L4.52577292,18.6712817 C3.51000017,18.1171779 2.878,17.0525048 2.878,15.8954286 L2.878,15.8954286 L2.878,7.48327612 C2.878,6.73158566 3.27202454,6.03490312 3.91623156,5.64755849 L3.91623156,5.64755849 Z M5.122,8.25636609 L5.122,15.8954286 C5.122,16.1893633 5.26247988,16.4627588 5.49516099,16.6342845 L5.49516099,16.6342845 L5.60038569,16.7013214 L11.038,19.6673661 L11.0379013,11.5930887 C10.9493404,11.5594638 10.8619333,11.5217172 10.7759629,11.4798488 L10.5912087,11.3822046 L9.201,10.5873661 L9.202,12.1938114 C9.202,12.772164 8.76440908,13.2483117 8.20225426,13.3092276 L8.08,13.3158114 C7.50164741,13.3158114 7.02549965,12.8782205 6.96458374,12.3160656 L6.958,12.1938114 L6.957,9.30536609 L5.122,8.25636609 Z M19.198,8.25636609 L13.7287913,11.3822046 C13.584613,11.4645923 13.4355671,11.5347605 13.2830975,11.5927093 L13.282,19.6673661 L18.7196143,16.7013214 C18.9407906,16.5806698 19.0992944,16.3766389 19.1647228,16.1404457 L19.1895399,16.019906 L19.198,15.8954286 L19.198,8.25636609 Z M12.6330436,3.59362996 C12.341964,3.41861146 11.978036,3.41861146 11.6869564,3.59362996 L11.6869564,3.59362996 L6.715,6.58236609 L8.197,7.42936609 L10.1567139,6.15727269 C10.6763547,5.81969859 11.3712647,5.96729282 11.7088388,6.48693363 C12.023908,6.97193172 11.9163416,7.60960873 11.4781119,7.96693703 L11.3791779,8.03905852 L10.389,8.68136609 L11.7045445,9.43386703 C11.9514897,9.57497863 12.24762,9.59261758 12.5068615,9.48678388 L12.6154555,9.43386703 L17.604,6.58236609 Z" id="icon-box" fill="#333333" fill-rule="nonzero"></path>
    </g>
</svg>