<?xml version="1.0" encoding="UTF-8"?>
<svg width="24px" height="24px" viewBox="0 0 24 24" version="1.1" xmlns="http://www.w3.org/2000/svg" xmlns:xlink="http://www.w3.org/1999/xlink">
    <!-- Generator: Sketch 64 (93537) - https://sketch.com -->
    <title>icon/fill/business/business-24</title>
    <desc>Created with Sketch.</desc>
    <g id="icon/fill/business/business-24" stroke="none" stroke-width="1" fill="none" fill-rule="evenodd">
        <path d="M14,1.73776905 C16.2643675,1.73776905 18.1,3.57340158 18.1,5.83776905 L18.096,5.89976905 L19,5.9 C20.6530454,5.9 22.0038961,7.19384916 22.0950927,8.82408797 L22.1,9 L22.1,19 C22.1,20.7120827 20.7120827,22.1 19,22.1 L19,22.1 L5,22.1 C3.28791728,22.1 1.9,20.7120827 1.9,19 L1.9,19 L1.9,9 C1.9,7.28791728 3.28791728,5.9 5,5.9 L5,5.9 L5.90176665,5.90064082 C5.90059416,5.87983288 5.9,5.85887035 5.9,5.83776905 C5.9,3.64201878 7.62606768,1.84941321 9.79536865,1.74278674 L10,1.73776905 L14,1.73776905 Z M19.9,13.9337691 L19.1376882,14.6017638 C18.1000099,15.5091904 16.7879458,16.0364715 15.4168091,16.1027426 L15.1221684,16.1098579 L15.1,16.1097691 L15.1,16.888918 C15.1,17.4559304 14.6709893,17.9227419 14.1198571,17.9824634 L14,17.988918 L10,17.988918 C9.43298766,17.988918 8.96617613,17.5599073 8.90645465,17.0087752 L8.9,16.888918 L8.9,16.1097691 L8.87783164,16.1098579 C7.49935447,16.1098579 6.16457045,15.6430719 5.08879273,14.7903644 L4.86231178,14.6017638 L4.1,13.9347691 L4.1,19 C4.1,19.4588212 4.44333667,19.8374518 4.88710591,19.8929877 L5,19.9 L19,19.9 C19.4970563,19.9 19.9,19.4970563 19.9,19 L19.9,19 L19.9,13.9337691 Z M19,8.1 L5,8.1 C4.50294373,8.1 4.1,8.50294373 4.1,9 L4.1,9 L4.1,11.0127691 L6.31053206,12.9456666 C6.96211869,13.5154646 7.782923,13.8508214 8.64252946,13.9027573 L8.87783164,13.9098579 L15.1221684,13.9098579 C15.9877519,13.9098579 16.8263893,13.6219842 17.507665,13.0952167 L17.6894679,12.9456666 L19.9,11.0117691 L19.9,9 C19.9,8.54117882 19.5566633,8.16254822 19.1128941,8.10701228 L19,8.1 Z M14,3.93776905 L10,3.93776905 C8.95065898,3.93776905 8.1,4.78842803 8.1,5.83776905 L8.096,5.89976905 L15.903,5.89976905 L15.9,5.83776905 C15.9,4.83839665 15.1284272,4.01923472 14.1484839,3.94348545 L14,3.93776905 Z" id="icon-business" fill="#333333" fill-rule="nonzero"></path>
    </g>
</svg>