<?xml version="1.0" encoding="UTF-8"?>
<svg width="24px" height="24px" viewBox="0 0 24 24" version="1.1" xmlns="http://www.w3.org/2000/svg" xmlns:xlink="http://www.w3.org/1999/xlink">
    <!-- Generator: Sketch 64 (93537) - https://sketch.com -->
    <title>icon/fill/business-alt/business-alt-24</title>
    <desc>Created with Sketch.</desc>
    <g id="icon/fill/business-alt/business-alt-24" stroke="none" stroke-width="1" fill="none" fill-rule="evenodd">
        <path d="M14,2.9 C16.2643675,2.9 18.1,4.73563253 18.1,7 L18.096,7.062 L19,7.06223095 C20.6530454,7.06223095 22.0038961,8.35608011 22.0950927,9.98631891 L22.1,10.1622309 L22.1,18.1622309 C22.1,19.8743137 20.7120827,21.2622309 19,21.2622309 L19,21.2622309 L5,21.2622309 C3.28791728,21.2622309 1.9,19.8743137 1.9,18.1622309 L1.9,18.1622309 L1.9,10.1622309 C1.9,8.45014822 3.28791728,7.06223095 5,7.06223095 L5,7.06223095 L5.90176665,7.06287176 C5.90059416,7.04206383 5.9,7.0211013 5.9,7 C5.9,4.80424972 7.62606768,3.01164415 9.79536865,2.90501769 L10,2.9 L14,2.9 Z M5.567,9.262 L5,9.26223095 C4.50294373,9.26223095 4.1,9.66517467 4.1,10.1622309 L4.1,10.1622309 L4.1,18.1622309 C4.1,18.6592872 4.50294373,19.0622309 5,19.0622309 L5,19.0622309 L5.567,19.062 L5.567,9.262 Z M16.567,9.262 L7.767,9.262 L7.767,19.062 L16.567,19.062 L16.567,9.262 Z M19,9.26223095 L18.767,9.262 L18.767,19.062 L19,19.0622309 C19.4588212,19.0622309 19.8374518,18.7188943 19.8929877,18.275125 L19.9,18.1622309 L19.9,10.1622309 C19.9,9.66517467 19.4970563,9.26223095 19,9.26223095 L19,9.26223095 Z M14,5.1 L10,5.1 C8.95065898,5.1 8.1,5.95065898 8.1,7 L8.096,7.062 L15.903,7.062 L15.9,7 C15.9,6.0006276 15.1284272,5.18146567 14.1484839,5.1057164 L14,5.1 Z" id="icon-business-alt" fill="#333333" fill-rule="nonzero"></path>
    </g>
</svg>