<?xml version="1.0" encoding="UTF-8"?>
<svg width="24px" height="24px" viewBox="0 0 24 24" version="1.1" xmlns="http://www.w3.org/2000/svg" xmlns:xlink="http://www.w3.org/1999/xlink">
    <!-- Generator: Sketch 64 (93537) - https://sketch.com -->
    <title>icon/fill/calendar/calendar-24</title>
    <desc>Created with Sketch.</desc>
    <g id="icon/fill/calendar/calendar-24" stroke="none" stroke-width="1" fill="none" fill-rule="evenodd">
        <path d="M16,1.9 C16.6075132,1.9 17.1,2.39248678 17.1,3 L17.1,3 L17.1,3.899 L19,3.9 C20.7120827,3.9 22.1,5.28791728 22.1,7 L22.1,19 C22.1,20.7120827 20.7120827,22.1 19,22.1 L5,22.1 C3.28791728,22.1 1.9,20.7120827 1.9,19 L1.9,7 C1.9,5.28791728 3.28791728,3.9 5,3.9 L6.9,3.899 L6.9,3 C6.9,2.43298766 7.3290107,1.96617613 7.88014288,1.90645465 L8,1.9 C8.60751322,1.9 9.1,2.39248678 9.1,3 L9.1,3 L9.1,3.899 L14.9,3.899 L14.9,3 C14.9,2.43298766 15.3290107,1.96617613 15.8801429,1.90645465 Z M19.9,12.048 L4.1,12.048 L4.1,19 C4.1,19.4970563 4.50294373,19.9 5,19.9 L19,19.9 C19.4970563,19.9 19.9,19.4970563 19.9,19 L19.9,12.048 Z M6.9,6.099 L5,6.1 C4.50294373,6.1 4.1,6.50294373 4.1,7 L4.1,9.848 L19.9,9.848 L19.9,7 C19.9,6.50294373 19.4970563,6.1 19,6.1 L17.1,6.099 L17.1,7.11517824 C17.1,7.68219059 16.6709893,8.14900211 16.1198571,8.20872359 L16,8.21517824 C15.3924868,8.21517824 14.9,7.72269147 14.9,7.11517824 L14.9,7.11517824 L14.9,6.099 L9.1,6.099 L9.1,7.11517824 C9.1,7.68219059 8.6709893,8.14900211 8.11985712,8.20872359 L8,8.21517824 C7.39248678,8.21517824 6.9,7.72269147 6.9,7.11517824 L6.9,7.11517824 L6.9,6.099 Z" id="icon-calendar" fill="#333333" fill-rule="nonzero"></path>
    </g>
</svg>