<?xml version="1.0" encoding="UTF-8"?>
<svg width="24px" height="24px" viewBox="0 0 24 24" version="1.1" xmlns="http://www.w3.org/2000/svg" xmlns:xlink="http://www.w3.org/1999/xlink">
    <!-- Generator: Sketch 64 (93537) - https://sketch.com -->
    <title>icon/fill/calendar-today/calendar-today-24</title>
    <desc>Created with Sketch.</desc>
    <g id="icon/fill/calendar-today/calendar-today-24" stroke="none" stroke-width="1" fill="none" fill-rule="evenodd">
        <path d="M16,1.9 C16.5670123,1.9 17.0338239,2.3290107 17.0935453,2.88014288 L17.1,3 L17.099,3.9 L19,3.9 C20.6530454,3.9 22.0038961,5.19384916 22.0950927,6.82408797 L22.1,7 L22.1,19 C22.1,20.7120827 20.7120827,22.1 19,22.1 L19,22.1 L5,22.1 C3.28791728,22.1 1.9,20.7120827 1.9,19 L1.9,19 L1.9,7 C1.9,5.28791728 3.28791728,3.9 5,3.9 L5,3.9 L6.899,3.9 L6.9,3 C6.9,2.39248678 7.39248678,1.9 8,1.9 C8.56701234,1.9 9.03382387,2.3290107 9.09354535,2.88014288 L9.1,3 L9.099,3.9 L14.899,3.9 L14.9,3 C14.9,2.39248678 15.3924868,1.9 16,1.9 Z M19.899,12.048 L4.099,12.048 L4.1,19 C4.1,19.4588212 4.44333667,19.8374518 4.88710591,19.8929877 L5,19.9 L19,19.9 C19.4970563,19.9 19.9,19.4970563 19.9,19 L19.9,19 L19.899,12.048 Z M16,14 C17.1045695,14 18,14.8954305 18,16 C18,17.1045695 17.1045695,18 16,18 L13,18 C11.8954305,18 11,17.1045695 11,16 C11,14.8954305 11.8954305,14 13,14 L16,14 Z M6.899,6.1 L5,6.1 C4.50294373,6.1 4.1,6.50294373 4.1,7 L4.1,7 L4.099,9.848 L19.899,9.848 L19.9,7 C19.9,6.54117882 19.5566633,6.16254822 19.1128941,6.10701228 L19,6.1 L17.099,6.1 L17.1,7.11517824 C17.1,7.72269147 16.6075132,8.21517824 16,8.21517824 C15.4329877,8.21517824 14.9661761,7.78616754 14.9064547,7.23503536 L14.9,7.11517824 L14.899,6.1 L9.099,6.1 L9.1,7.11517824 C9.1,7.72269147 8.60751322,8.21517824 8,8.21517824 C7.43298766,8.21517824 6.96617613,7.78616754 6.90645465,7.23503536 L6.9,7.11517824 L6.899,6.1 Z" id="icon-calendar-today" fill="#333333" fill-rule="nonzero"></path>
    </g>
</svg>