<?xml version="1.0" encoding="UTF-8"?>
<svg width="24px" height="24px" viewBox="0 0 24 24" version="1.1" xmlns="http://www.w3.org/2000/svg" xmlns:xlink="http://www.w3.org/1999/xlink">
    <!-- Generator: Sketch 64 (93537) - https://sketch.com -->
    <title>icon/fill/card/card-24</title>
    <desc>Created with Sketch.</desc>
    <g id="icon/fill/card/card-24" stroke="none" stroke-width="1" fill="none" fill-rule="evenodd">
        <path d="M19,4.9 C20.7120827,4.9 22.1,6.28791728 22.1,8 L22.1,17 C22.1,18.7120827 20.7120827,20.1 19,20.1 L5,20.1 C3.28791728,20.1 1.9,18.7120827 1.9,17 L1.9,8 C1.9,6.28791728 3.28791728,4.9 5,4.9 L19,4.9 Z M19.9,11.262 L4.1,11.262 L4.1,17 C4.1,17.4970563 4.50294373,17.9 5,17.9 L19,17.9 C19.4970563,17.9 19.9,17.4970563 19.9,17 L19.9,11.262 Z M10.0650209,12.9 C10.6725341,12.9 11.1650209,13.3924868 11.1650209,14 C11.1650209,14.6075132 10.6725341,15.1 10.0650209,15.1 L10.0650209,15.1 L7.00519161,15.1 C6.39767839,15.1 5.90519161,14.6075132 5.90519161,14 C5.90519161,13.3924868 6.39767839,12.9 7.00519161,12.9 L7.00519161,12.9 Z M19,7.1 L5,7.1 C4.50294373,7.1 4.1,7.50294373 4.1,8 L4.1,9.062 L19.9,9.062 L19.9,8 C19.9,7.50294373 19.4970563,7.1 19,7.1 Z" id="icon-card" fill="#333333" fill-rule="nonzero"></path>
    </g>
</svg>