<?xml version="1.0" encoding="UTF-8"?>
<svg width="24px" height="24px" viewBox="0 0 24 24" version="1.1" xmlns="http://www.w3.org/2000/svg" xmlns:xlink="http://www.w3.org/1999/xlink">
    <!-- Generator: Sketch 64 (93537) - https://sketch.com -->
    <title>icon/fill/cart/cart-24</title>
    <desc>Created with Sketch.</desc>
    <g id="icon/fill/cart/cart-24" stroke="none" stroke-width="1" fill="none" fill-rule="evenodd">
        <path d="M2.78427225,1.92136126 C4.7851427,1.52118717 6.25188313,2.2985685 6.87724151,4.04867056 L21.0070453,4.05018999 C21.725099,4.05018999 22.2506329,4.72699869 22.0727623,5.42267332 L20.4504081,11.7679076 C20.0995681,13.1400877 18.8633454,14.1 17.4470237,14.1 L7,14.1 C6.50294373,14.1 6.1,14.5029437 6.1,15 C6.1,15.4970563 6.50294373,15.9 7,15.9 L7,15.9 L21,15.9 C21.6075132,15.9 22.1,16.3924868 22.1,17 C22.1,17.6075132 21.6075132,18.1 21,18.1 L21,18.1 L20.967116,18.0992746 C21.0535332,18.3843192 21.1,18.6867331 21.1,19 C21.1,20.7120827 19.7120827,22.1 18,22.1 C16.2879173,22.1 14.9,20.7120827 14.9,19 C14.9,18.6867331 14.9464668,18.3843192 15.032884,18.0992746 L12.967116,18.0992746 C13.0535332,18.3843192 13.1,18.6867331 13.1,19 C13.1,20.7120827 11.7120827,22.1 10,22.1 C8.28791728,22.1 6.9,20.7120827 6.9,19 C6.9,18.6867331 6.94646683,18.3843192 7.03288405,18.0992746 L7,18.1 C5.28791728,18.1 3.9,16.7120827 3.9,15 C3.9,13.424745 5.07494039,12.123912 6.59627122,11.926051 L4.95971472,5.41838972 C4.94672575,5.36672426 4.93760856,5.31517513 4.93215375,5.26401085 L4.92136126,5.21572775 C4.70717107,4.14477681 4.28667869,3.86444856 3.21572775,4.07863874 C2.62001202,4.19778189 2.0405044,3.81144348 1.92136126,3.21572775 C1.80221811,2.62001202 2.18855652,2.0405044 2.78427225,1.92136126 Z M10,18.1 C9.50294373,18.1 9.1,18.5029437 9.1,19 C9.1,19.4970563 9.50294373,19.9 10,19.9 C10.4970563,19.9 10.9,19.4970563 10.9,19 C10.9,18.5029437 10.4970563,18.1 10,18.1 Z M18,18.1 C17.5029437,18.1 17.1,18.5029437 17.1,19 C17.1,19.4970563 17.5029437,19.9 18,19.9 C18.4970563,19.9 18.9,19.4970563 18.9,19 C18.9,18.5029437 18.4970563,18.1 18,18.1 Z M19.5904107,6.25018999 L7.43729333,6.25018999 L8.85768431,11.9 L17.4470237,11.9 C17.8582138,11.9 18.2171172,11.6213158 18.318974,11.2229409 L19.5904107,6.25018999 Z" id="icon-cart" fill="#333333" fill-rule="nonzero"></path>
    </g>
</svg>