<?xml version="1.0" encoding="UTF-8"?>
<svg width="24px" height="24px" viewBox="0 0 24 24" version="1.1" xmlns="http://www.w3.org/2000/svg" xmlns:xlink="http://www.w3.org/1999/xlink">
    <!-- Generator: Sketch 64 (93537) - https://sketch.com -->
    <title>icon/fill/chart/chart-24</title>
    <desc>Created with Sketch.</desc>
    <g id="icon/fill/chart/chart-24" stroke="none" stroke-width="1" fill="none" fill-rule="evenodd">
        <path d="M3.5,1.90759065 C4.10751322,1.90759065 4.6,2.40007743 4.6,3.00759065 L4.6,3.00759065 L4.6,19.9075907 L21.5,19.9075907 C22.1075132,19.9075907 22.6,20.4000774 22.6,21.0075907 C22.6,21.6151039 22.1075132,22.1075907 21.5,22.1075907 L21.5,22.1075907 L3.5,22.1075907 C2.89248678,22.1075907 2.4,21.6151039 2.4,21.0075907 L2.4,21.0075907 L2.4,3.00759065 C2.4,2.40007743 2.89248678,1.90759065 3.5,1.90759065 Z M20.5,6 C21.3284271,6 22,6.67157288 22,7.5 C22,8.26276123 21.430673,8.89254902 20.6937848,8.98759775 L16.996,13.4215907 L17,13.5 C17,14.2796961 16.4051119,14.9204487 15.64446,14.9931334 L15.5,15 C14.6715729,15 14,14.3284271 14,13.5 C14,13.4474401 14.0027033,13.3955116 14.0079784,13.344346 L12.4186031,11.2248041 L8.999,14.9845907 L9,15 C9,15.7796961 8.40511192,16.4204487 7.64446001,16.4931334 L7.5,16.5 C6.67157288,16.5 6,15.8284271 6,15 C6,14.1715729 6.67157288,13.5 7.5,13.5 L7.371,13.5055907 L11.001,9.51359065 L11,9.5 C11,8.72030388 11.5948881,8.07955132 12.35554,8.00686658 L12.5,8 C13.3284271,8 14,8.67157288 14,9.5 C14,9.55253272 13.9972995,9.6044347 13.9920297,9.6555747 L15.5454257,11.7272342 L19.003,7.57659065 L19,7.5 C19,6.72030388 19.5948881,6.07955132 20.35554,6.00686658 Z" id="icon-chart" fill="#333333" fill-rule="nonzero"></path>
    </g>
</svg>