<?xml version="1.0" encoding="UTF-8"?>
<svg width="24px" height="24px" viewBox="0 0 24 24" version="1.1" xmlns="http://www.w3.org/2000/svg" xmlns:xlink="http://www.w3.org/1999/xlink">
    <!-- Generator: Sketch 64 (93537) - https://sketch.com -->
    <title>icon/fill/chart-pie/chart-pie-24</title>
    <desc>Created with Sketch.</desc>
    <g id="icon/fill/chart-pie/chart-pie-24" stroke="none" stroke-width="1" fill="none" fill-rule="evenodd">
        <path d="M11,3.9 C11.6075132,3.9 12.1,4.39248678 12.1,5 L12.1,5 L12.1,11.9 L19,11.9 C19.6075132,11.9 20.1,12.3924868 20.1,13 C20.1,18.0257912 16.0257912,22.1 11,22.1 C5.97420878,22.1 1.9,18.0257912 1.9,13 C1.9,7.97420878 5.97420878,3.9 11,3.9 Z M9.9,6.18720297 C6.61206308,6.71395206 4.1,9.56361414 4.1,13 C4.1,16.8107648 7.18923523,19.9 11,19.9 C14.4363859,19.9 17.2860479,17.3879369 17.812797,14.1 L17.812797,14.1 L11,14.1 C10.3924868,14.1 9.9,13.6075132 9.9,13 L9.9,13 Z M15,1.9 C18.9212217,1.9 22.1,5.07877828 22.1,9 C22.1,9.60751322 21.6075132,10.1 21,10.1 L15,10.1 C14.3924868,10.1 13.9,9.60751322 13.9,9 L13.9,3 C13.9,2.39248678 14.3924868,1.9 15,1.9 Z M16.1,4.22395498 L16.1,7.9 L19.776045,7.9 C19.3579088,6.07706183 17.9229382,4.64209124 16.1,4.22395498 Z" id="icon-chart-pie" fill="#333333" fill-rule="nonzero"></path>
    </g>
</svg>