<?xml version="1.0" encoding="UTF-8"?>
<svg width="24px" height="24px" viewBox="0 0 24 24" version="1.1" xmlns="http://www.w3.org/2000/svg" xmlns:xlink="http://www.w3.org/1999/xlink">
    <!-- Generator: Sketch 64 (93537) - https://sketch.com -->
    <title>icon/fill/clock/clock-24</title>
    <desc>Created with Sketch.</desc>
    <g id="icon/fill/clock/clock-24" stroke="none" stroke-width="1" fill="none" fill-rule="evenodd">
        <path d="M12.2380952,1.61428571 C18.1046561,1.61428571 22.8619048,6.37153439 22.8619048,12.2380952 C22.8619048,18.1046561 18.1046561,22.8619048 12.2380952,22.8619048 C6.37153439,22.8619048 1.61428571,18.1046561 1.61428571,12.2380952 C1.61428571,6.37153439 6.37153439,1.61428571 12.2380952,1.61428571 Z M12.2380952,3.81428571 C7.58656084,3.81428571 3.81428571,7.58656084 3.81428571,12.2380952 C3.81428571,16.8896296 7.58656084,20.6619048 12.2380952,20.6619048 C16.8896296,20.6619048 20.6619048,16.8896296 20.6619048,12.2380952 C20.6619048,7.58656084 16.8896296,3.81428571 12.2380952,3.81428571 Z M12,7.9 C12.6075132,7.9 13.1,8.39248678 13.1,9 L13.1,9 L13.1,11.9 L15,11.9 C15.6075132,11.9 16.1,12.3924868 16.1,13 C16.1,13.6075132 15.6075132,14.1 15,14.1 L15,14.1 L12,14.1 C11.3924868,14.1 10.9,13.6075132 10.9,13 L10.9,13 L10.9,9 C10.9,8.39248678 11.3924868,7.9 12,7.9 Z" id="icon-clock" fill="#333333" fill-rule="nonzero"></path>
    </g>
</svg>