<?xml version="1.0" encoding="UTF-8"?>
<svg width="24px" height="24px" viewBox="0 0 24 24" version="1.1" xmlns="http://www.w3.org/2000/svg" xmlns:xlink="http://www.w3.org/1999/xlink">
    <!-- Generator: Sketch 64 (93537) - https://sketch.com -->
    <title>icon/fill/cloud/cloud-24</title>
    <desc>Created with Sketch.</desc>
    <g id="icon/fill/cloud/cloud-24" stroke="none" stroke-width="1" fill="none" fill-rule="evenodd">
        <path d="M6,10.9 C6.60751322,10.9 7.1,11.3924868 7.1,12 C7.1,12.6075132 6.60751322,13.1 6,13.1 C4.95065898,13.1 4.1,13.950659 4.1,15 C4.1,16.049341 4.95065898,16.9 6,16.9 L6,16.9 L17,16.9 C17.6075132,16.9 18.1,17.3924868 18.1,18 C18.1,18.6075132 17.6075132,19.1 17,19.1 L17,19.1 L6,19.1 C3.73563253,19.1 1.9,17.2643675 1.9,15 C1.9,12.7356325 3.73563253,10.9 6,10.9 Z M12,4.9 C14.8636064,4.9 17.412872,6.61129657 18.5248927,9.19686229 L18.4921578,9.12195532 C20.6083554,9.76759698 22.1,11.7320428 22.1,14 C22.1,16.8166522 19.8166522,19.1 17,19.1 C16.3924868,19.1 15.9,18.6075132 15.9,18 C15.9,17.3924868 16.3924868,16.9 17,16.9 C18.6016258,16.9 19.9,15.6016258 19.9,14 C19.9,12.6359661 18.9502026,11.4641148 17.6377409,11.1701047 C17.2820485,11.0904245 17.0055202,10.8467889 16.8698932,10.53658 L16.8612022,10.5167576 C16.7091214,10.4047698 16.5838937,10.252102 16.503885,10.0660734 C15.736175,8.28106638 13.9767769,7.1 12,7.1 C9.29380473,7.1 7.1,9.29380473 7.1,12 C7.1,12.6075132 6.60751322,13.1 6,13.1 C5.39248678,13.1 4.9,12.6075132 4.9,12 C4.9,8.07877828 8.07877828,4.9 12,4.9 Z" id="icon-cloud" fill="#333333" fill-rule="nonzero"></path>
    </g>
</svg>