<?xml version="1.0" encoding="UTF-8"?>
<svg width="24px" height="24px" viewBox="0 0 24 24" version="1.1" xmlns="http://www.w3.org/2000/svg" xmlns:xlink="http://www.w3.org/1999/xlink">
    <!-- Generator: Sketch 64 (93537) - https://sketch.com -->
    <title>icon/fill/copy/copy-24</title>
    <desc>Created with Sketch.</desc>
    <g id="icon/fill/copy/copy-24" stroke="none" stroke-width="1" fill="none" fill-rule="evenodd">
        <path d="M15.1076909,1.9 C15.3689408,1.9 15.6216624,1.99298223 15.8206157,2.1623018 L21.7129248,7.17696358 C21.9585005,7.38596127 22.1,7.69219093 22.1,8.01466178 L22.1,16 C22.1,17.7120827 20.7120827,19.1 19,19.1 L18.1,19.099 L18.1,20 C18.1,21.6530454 16.8061508,23.0038961 15.175912,23.0950927 L15,23.1 L5,23.1 C3.28791728,23.1 1.9,21.7120827 1.9,20 L1.9,20 L1.9,9 C1.9,7.28791728 3.28791728,5.9 5,5.9 L5,5.9 L5.9,5.899 L5.9,5 C5.9,3.28791728 7.28791728,1.9 9,1.9 L15.1076909,1.9 Z M5.9,8.099 L5,8.1 C4.50294373,8.1 4.1,8.50294373 4.1,9 L4.1,9 L4.1,20 C4.1,20.4970563 4.50294373,20.9 5,20.9 L5,20.9 L15,20.9 C15.4970563,20.9 15.9,20.4970563 15.9,20 L15.9,20 L15.9,19.099 L9,19.1 C7.28791728,19.1 5.9,17.7120827 5.9,16 L5.9,8.099 Z M13.9,4.099 L9,4.1 C8.50294373,4.1 8.1,4.50294373 8.1,5 L8.10054153,6.80658962 C8.11167896,6.86938012 8.11748954,6.93401149 8.11748954,7 C8.11748954,7.06598851 8.11167896,7.13061988 8.10054153,7.19341038 L8.1,16 C8.1,16.4970563 8.50294373,16.9 9,16.9 L19,16.9 C19.4970563,16.9 19.9,16.4970563 19.9,16 L19.9,10.099 L16,10.1 C14.890628,10.1 13.9821718,9.23977735 13.9052727,8.14997342 L13.9,8 L13.9,4.099 Z M16.1,5.289 L16.1,7.9 L19.168,7.899 L16.1,5.289 Z" id="icon-copy" fill="#333333" fill-rule="nonzero"></path>
    </g>
</svg>