<?xml version="1.0" encoding="UTF-8"?>
<svg width="24px" height="24px" viewBox="0 0 24 24" version="1.1" xmlns="http://www.w3.org/2000/svg" xmlns:xlink="http://www.w3.org/1999/xlink">
    <!-- Generator: Sketch 64 (93537) - https://sketch.com -->
    <title>icon/fill/crown/crown-24</title>
    <desc>Created with Sketch.</desc>
    <g id="icon/fill/crown/crown-24" stroke="none" stroke-width="1" fill="none" fill-rule="evenodd">
        <path d="M7.26041704,17.5143905 L7.07258635,17.5087392 C5.76595203,17.4299538 4.64035992,16.5344027 4.27862477,15.2622789 L4.27862477,15.2622789 L2.04422287,7.40449721 L2.01865066,7.29536037 C1.85214855,6.39270187 2.83322362,5.67394433 3.6559043,6.15310838 L3.6559043,6.15310838 L9.16827819,9.36263357 L11.291661,7.14532474 C11.3068165,7.12893577 11.3225602,7.11290185 11.3388914,7.09725054 C11.3887199,7.04949654 11.4418744,7.00735871 11.4975726,6.97082041 C11.5014323,6.96972042 11.5044497,6.96775672 11.5074747,6.96580928 C11.5362301,6.94593807 11.5665614,6.9284834 11.5974778,6.91259534 C11.6048751,6.90993911 11.6119111,6.90640524 11.6189768,6.90295139 C11.6482051,6.88761468 11.6783181,6.8746122 11.7088354,6.86302022 C11.7176131,6.86056588 11.7260018,6.85748155 11.7344201,6.85450253 C11.7640221,6.84324395 11.7943722,6.83402896 11.824989,6.82615477 C11.8303041,6.82541226 11.835034,6.82422147 11.8397702,6.82306248 L11.883134,6.81287161 C11.8994464,6.80960768 11.9158167,6.80671668 11.9322316,6.80419832 C11.9474815,6.80221742 11.9625211,6.80019587 11.9775906,6.79848496 C11.9995346,6.79575742 12.0215679,6.79397403 12.0436259,6.79285173 C12.0630831,6.79195201 12.0824558,6.79143289 12.1018308,6.79142249 C12.1204886,6.79145085 12.1395286,6.79196963 12.1585454,6.79297939 C12.1809764,6.79398749 12.2032736,6.79580029 12.2255121,6.79829083 C12.2397518,6.80020851 12.2537884,6.80208867 12.2677904,6.80423923 C12.297699,6.80837045 12.3277813,6.81419838 12.3576305,6.82129123 C12.3629358,6.82315259 12.3683029,6.8244825 12.3736615,6.82585328 C12.4058232,6.83338582 12.4375979,6.84298704 12.4689784,6.85405892 C12.4768935,6.85770859 12.48491,6.86065988 12.4928977,6.86370732 C12.52364,6.87447333 12.5539165,6.88753768 12.5836837,6.90202977 C12.5901122,6.90628048 12.5968245,6.90964821 12.6035085,6.91308871 C12.6966349,6.95966841 12.7842107,7.02136926 12.8633884,7.09725054 L12.7923666,7.03650379 C12.7949419,7.03859482 12.7975099,7.04069919 12.8000704,7.04281688 L12.813,7.054 L12.8633884,7.09725054 C12.8733871,7.10683297 12.8831655,7.11655883 12.8927236,7.12642177 L12.8941749,7.13031373 L15.0340016,9.36263357 L20.5463754,6.15310838 C21.3690561,5.67394433 22.3501312,6.39270187 22.1836291,7.29536037 L22.1580569,7.40449721 L19.923655,15.2622789 C19.5619198,16.5344027 18.4363277,17.4299538 17.1296934,17.5087392 L16.9418627,17.5143905 L7.26041704,17.5143905 Z M16.9418627,15.3143905 C17.3038892,15.3143905 17.6263533,15.0981807 17.767431,14.772879 L17.8075443,14.6605516 L19.2950016,9.42663357 L15.3931793,11.7005089 C14.9906809,11.934941 14.4890037,11.8886869 14.137372,11.5967716 L14.0453799,11.5110939 L12.101,9.482 L10.1568999,11.5110939 L10.0649077,11.5967716 C9.71327606,11.8886869 9.21159885,11.934941 8.80910041,11.7005089 L8.80910041,11.7005089 L4.90727819,9.42663357 L6.39473541,14.6605516 L6.43484876,14.772879 C6.57592649,15.0981807 6.8983905,15.3143905 7.26041704,15.3143905 L7.26041704,15.3143905 L16.9418627,15.3143905 Z" id="icon-clown" fill="#333333" fill-rule="nonzero"></path>
    </g>
</svg>