<?xml version="1.0" encoding="UTF-8"?>
<svg width="24px" height="24px" viewBox="0 0 24 24" version="1.1" xmlns="http://www.w3.org/2000/svg" xmlns:xlink="http://www.w3.org/1999/xlink">
    <!-- Generator: Sketch 64 (93537) - https://sketch.com -->
    <title>icon/fill/dashboard/dashboard-24</title>
    <desc>Created with Sketch.</desc>
    <g id="icon/fill/dashboard/dashboard-24" stroke="none" stroke-width="1" fill="none" fill-rule="evenodd">
        <path d="M8,12.9 C9.71208272,12.9 11.1,14.2879173 11.1,16 L11.1,20 C11.1,21.7120827 9.71208272,23.1 8,23.1 L4,23.1 C2.28791728,23.1 0.9,21.7120827 0.9,20 L0.9,16 C0.9,14.2879173 2.28791728,12.9 4,12.9 L8,12.9 Z M20,12.9 C21.7120827,12.9 23.1,14.2879173 23.1,16 L23.1,20 C23.1,21.7120827 21.7120827,23.1 20,23.1 L16,23.1 C14.2879173,23.1 12.9,21.7120827 12.9,20 L12.9,16 C12.9,14.2879173 14.2879173,12.9 16,12.9 L20,12.9 Z M8,15.1 L4,15.1 C3.50294373,15.1 3.1,15.5029437 3.1,16 L3.1,20 C3.1,20.4970563 3.50294373,20.9 4,20.9 L8,20.9 C8.49705627,20.9 8.9,20.4970563 8.9,20 L8.9,16 C8.9,15.5029437 8.49705627,15.1 8,15.1 Z M20,15.1 L16,15.1 C15.5029437,15.1 15.1,15.5029437 15.1,16 L15.1,20 C15.1,20.4970563 15.5029437,20.9 16,20.9 L20,20.9 C20.4970563,20.9 20.9,20.4970563 20.9,20 L20.9,16 C20.9,15.5029437 20.4970563,15.1 20,15.1 Z M8,0.9 C9.71208272,0.9 11.1,2.28791728 11.1,4 L11.1,8 C11.1,9.71208272 9.71208272,11.1 8,11.1 L4,11.1 C2.28791728,11.1 0.9,9.71208272 0.9,8 L0.9,4 C0.9,2.28791728 2.28791728,0.9 4,0.9 L8,0.9 Z M20,0.9 C21.7120827,0.9 23.1,2.28791728 23.1,4 L23.1,8 C23.1,9.71208272 21.7120827,11.1 20,11.1 L16,11.1 C14.2879173,11.1 12.9,9.71208272 12.9,8 L12.9,4 C12.9,2.28791728 14.2879173,0.9 16,0.9 L20,0.9 Z M8,3.1 L4,3.1 C3.50294373,3.1 3.1,3.50294373 3.1,4 L3.1,8 C3.1,8.49705627 3.50294373,8.9 4,8.9 L8,8.9 C8.49705627,8.9 8.9,8.49705627 8.9,8 L8.9,4 C8.9,3.50294373 8.49705627,3.1 8,3.1 Z M20,3.1 L16,3.1 C15.5029437,3.1 15.1,3.50294373 15.1,4 L15.1,8 C15.1,8.49705627 15.5029437,8.9 16,8.9 L20,8.9 C20.4970563,8.9 20.9,8.49705627 20.9,8 L20.9,4 C20.9,3.50294373 20.4970563,3.1 20,3.1 Z" id="icon-dashboard" fill="#333333" fill-rule="nonzero"></path>
    </g>
</svg>