<?xml version="1.0" encoding="UTF-8"?>
<svg width="24px" height="24px" viewBox="0 0 24 24" version="1.1" xmlns="http://www.w3.org/2000/svg" xmlns:xlink="http://www.w3.org/1999/xlink">
    <!-- Generator: Sketch 64 (93537) - https://sketch.com -->
    <title>icon/fill/error/error-24</title>
    <desc>Created with Sketch.</desc>
    <g id="icon/fill/error/error-24" stroke="none" stroke-width="1" fill="none" fill-rule="evenodd">
        <path d="M15.7239409,2.0263617 C16.0136684,2.0263617 16.2916973,2.14066668 16.4976437,2.34445124 L16.4976437,2.34445124 L21.7582927,7.54987968 C21.9670982,7.75649335 22.0845899,8.03804036 22.0845899,8.33179014 L22.0845899,8.33179014 L22.0845899,16 C22.0845899,16.3017541 21.960628,16.5902586 21.7417304,16.7979588 L21.7417304,16.7979588 L16.4810814,21.7895077 C16.2766964,21.9834377 16.0056891,22.0915488 15.7239409,22.0915488 L15.7239409,22.0915488 L8.21372207,22.0915488 C7.92432832,22.0915488 7.64659205,21.9775064 7.44070469,21.774137 L7.44070469,21.774137 L2.38735546,16.7825881 C2.17813126,16.5759226 2.06037283,16.294084 2.06037283,16 L2.06037283,16 L2.06037283,8.33179014 C2.06037283,8.04569809 2.17183468,7.77086146 2.37111149,7.56558746 L2.37111149,7.56558746 L7.42446073,2.36015903 C7.63160888,2.1467768 7.9163295,2.0263617 8.21372207,2.0263617 L8.21372207,2.0263617 Z M15.271,4.226 L8.678,4.226 L4.26,8.777 L4.26,15.54 L8.665,19.891 L15.284,19.891 L19.884,15.527 L19.884,8.79 L15.271,4.226 Z M12,15.2242341 C12.5670123,15.2242341 13.0338239,15.6532448 13.0935453,16.204377 L13.1,16.3242341 L13.1,16.5 C13.1,17.1075132 12.6075132,17.6 12,17.6 C11.4329877,17.6 10.9661761,17.1709893 10.9064547,16.6198571 L10.9,16.5 L10.9,16.3242341 C10.9,15.7167209 11.3924868,15.2242341 12,15.2242341 Z M12,6.9 C12.5670123,6.9 13.0338239,7.3290107 13.0935453,7.88014288 L13.1,8 L13.1,13 C13.1,13.6075132 12.6075132,14.1 12,14.1 C11.4329877,14.1 10.9661761,13.6709893 10.9064547,13.1198571 L10.9,13 L10.9,8 C10.9,7.39248678 11.3924868,6.9 12,6.9 Z" id="icon-error" fill="#333333" fill-rule="nonzero"></path>
    </g>
</svg>