<?xml version="1.0" encoding="UTF-8"?>
<svg width="24px" height="24px" viewBox="0 0 24 24" version="1.1" xmlns="http://www.w3.org/2000/svg" xmlns:xlink="http://www.w3.org/1999/xlink">
    <!-- Generator: Sketch 64 (93537) - https://sketch.com -->
    <title>icon/fill/euro/euro-24</title>
    <desc>Created with Sketch.</desc>
    <g id="icon/fill/euro/euro-24" stroke="none" stroke-width="1" fill="none" fill-rule="evenodd">
        <path d="M17,1.9 C18.1519346,1.9 19.2790078,2.09333523 20.3451506,2.46744959 C20.9183951,2.66860372 21.220034,3.2963779 21.0188799,3.86962246 C20.8177258,4.44286703 20.1899516,4.74450593 19.616707,4.5433518 C18.783848,4.25109778 17.9030036,4.1 17,4.1 C13.5477277,4.1 10.6126595,6.3144138 9.53771614,9.40032054 L17.5,9.4 C18.1075132,9.4 18.6,9.89248678 18.6,10.5 C18.6,11.1075132 18.1075132,11.6 17.5,11.6 L17.5,11.6 L9.10992157,11.6005897 C9.10333333,11.7328957 9.1,11.8660586 9.1,12 C9.1,12.4778844 9.14243208,12.9458582 9.22373417,13.4003594 L17.5,13.4 C18.1075132,13.4 18.6,13.8924868 18.6,14.5 C18.6,15.1075132 18.1075132,15.6 17.5,15.6 L17.5,15.6 L9.96667014,15.6011978 C11.2761419,18.1535346 13.9341165,19.9 17,19.9 C17.9197713,19.9 18.8165161,19.7432347 19.6628715,19.4402866 C20.2348468,19.2355512 20.8644952,19.5332581 21.0692305,20.1052334 C21.2739658,20.6772087 20.976259,21.3068571 20.4042836,21.5115924 C19.3208508,21.8994011 18.1733647,22.1 17,22.1 C12.6903529,22.1 9.01114177,19.4007828 7.56071644,15.6006984 L4.5,15.6 C3.89248678,15.6 3.4,15.1075132 3.4,14.5 C3.4,13.8924868 3.89248678,13.4 4.5,13.4 L4.5,13.4 L6.99632878,13.4005968 C6.93282406,12.9428266 6.9,12.4752465 6.9,12 C6.9,11.8662744 6.90259886,11.7331558 6.90774884,11.6006919 L4.5,11.6 C3.89248678,11.6 3.4,11.1075132 3.4,10.5 C3.4,9.89248678 3.89248678,9.4 4.5,9.4 L4.5,9.4 L7.23780763,9.39999883 C8.38488444,5.08190625 12.3208552,1.9 17,1.9 Z" id="icon-euro" fill="#333333" fill-rule="nonzero"></path>
    </g>
</svg>