<?xml version="1.0" encoding="UTF-8"?>
<svg width="24px" height="24px" viewBox="0 0 24 24" version="1.1" xmlns="http://www.w3.org/2000/svg" xmlns:xlink="http://www.w3.org/1999/xlink">
    <!-- Generator: Sketch 64 (93537) - https://sketch.com -->
    <title>icon/fill/exit-circle/exit-circle-24</title>
    <desc>Created with Sketch.</desc>
    <g id="icon/fill/exit-circle/exit-circle-24" stroke="none" stroke-width="1" fill="none" fill-rule="evenodd">
        <path d="M12,2.9 C17.0257912,2.9 21.1,6.97420878 21.1,12 C21.1,17.0257912 17.0257912,21.1 12,21.1 C6.97420878,21.1 2.9,17.0257912 2.9,12 C2.9,6.97420878 6.97420878,2.9 12,2.9 Z M12,5.1 C8.18923523,5.1 5.1,8.18923523 5.1,12 C5.1,15.8107648 8.18923523,18.9 12,18.9 C15.8107648,18.9 18.9,15.8107648 18.9,12 C18.9,8.18923523 15.8107648,5.1 12,5.1 Z M15.6111508,8.38884921 C16.0407275,8.81842593 16.0407275,9.51490741 15.6111508,9.94448413 L13.556,12 L15.6111508,14.0555159 C16.0100435,14.4544085 16.0385358,15.0834385 15.6966278,15.5152079 L15.6111508,15.6111508 C15.1815741,16.0407275 14.4850926,16.0407275 14.0555159,15.6111508 L14.0555159,15.6111508 L12,13.556 L9.94448413,15.6111508 C9.51490741,16.0407275 8.81842593,16.0407275 8.38884921,15.6111508 C7.95927249,15.1815741 7.95927249,14.4850926 8.38884921,14.0555159 L10.444,12 L8.38884921,9.94448413 C7.98995654,9.54559146 7.9614642,8.91656152 8.30337221,8.4847921 L8.38884921,8.38884921 C8.81842593,7.95927249 9.51490741,7.95927249 9.94448413,8.38884921 L9.94448413,8.38884921 L12,10.444 L14.0555159,8.38884921 C14.4850926,7.95927249 15.1815741,7.95927249 15.6111508,8.38884921 Z" id="icon-exit-circle" fill="#333333" fill-rule="nonzero"></path>
    </g>
</svg>