<?xml version="1.0" encoding="UTF-8"?>
<svg width="24px" height="24px" viewBox="0 0 24 24" version="1.1" xmlns="http://www.w3.org/2000/svg" xmlns:xlink="http://www.w3.org/1999/xlink">
    <!-- Generator: Sketch 64 (93537) - https://sketch.com -->
    <title>icon/fill/exit/exit-24</title>
    <desc>Created with Sketch.</desc>
    <g id="icon/fill/exit/exit-24" stroke="none" stroke-width="1" fill="none" fill-rule="evenodd">
        <path d="M20.333373,3.66662699 C20.7629497,4.09620371 20.7629497,4.79268518 20.333373,5.2222619 L13.5544444,11.9994444 L20.333373,18.7777381 C20.7322657,19.1766308 20.760758,19.8056607 20.41885,20.2374301 L20.333373,20.333373 C19.9037963,20.7629497 19.2073148,20.7629497 18.7777381,20.333373 L18.7777381,20.333373 L11.9994444,13.5544444 L5.2222619,20.333373 C4.79268518,20.7629497 4.09620371,20.7629497 3.66662699,20.333373 C3.23705026,19.9037963 3.23705026,19.2073148 3.66662699,18.7777381 L10.4444444,11.9994444 L3.66662699,5.2222619 C3.26773432,4.82336923 3.23924198,4.1943393 3.58114998,3.76256988 L3.66662699,3.66662699 C4.09620371,3.23705026 4.79268518,3.23705026 5.2222619,3.66662699 L5.2222619,3.66662699 L11.9994444,10.4444444 L18.7777381,3.66662699 C19.2073148,3.23705026 19.9037963,3.23705026 20.333373,3.66662699 Z" id="icon-exit" fill="#333333" fill-rule="nonzero"></path>
    </g>
</svg>