<?xml version="1.0" encoding="UTF-8"?>
<svg width="24px" height="24px" viewBox="0 0 24 24" version="1.1" xmlns="http://www.w3.org/2000/svg" xmlns:xlink="http://www.w3.org/1999/xlink">
    <!-- Generator: Sketch 64 (93537) - https://sketch.com -->
    <title>icon/fill/file/file-24</title>
    <desc>Created with Sketch.</desc>
    <g id="icon/fill/file/file-24" stroke="none" stroke-width="1" fill="none" fill-rule="evenodd">
        <path d="M13.1074894,1.9 C13.1910225,1.9 13.2723809,1.90931108 13.3505832,1.92695198 C13.3662134,1.93068844 13.3816172,1.93453127 13.3969205,1.93870228 C13.4197271,1.94467816 13.4422411,1.95159791 13.4644347,1.95920755 C13.4788885,1.96440778 13.4933612,1.96971049 13.5077144,1.97531396 C13.5322666,1.98468281 13.5559595,1.99494175 13.5792035,2.00599198 C13.5947328,2.01353975 13.6105189,2.02149138 13.6261124,2.02982329 C13.6435736,2.03904796 13.6604401,2.04867557 13.6770198,2.05872887 C13.6951421,2.0697459 13.7132426,2.08142377 13.7310095,2.09364211 C13.7462082,2.10413822 13.7611565,2.1150059 13.775814,2.12623408 C13.7917983,2.13837496 13.807196,2.15082695 13.8222768,2.16371418 C13.8403758,2.17934492 13.8581064,2.19554016 13.8752908,2.212293 C13.881504,2.21815103 13.887608,2.22423988 13.893647,2.23040729 L19.7859561,8.24800143 C19.9872611,8.45358659 20.1,8.72986349 20.1,9.01759414 L20.1,19 C20.1,20.7120827 18.7120827,22.1 17,22.1 L7,22.1 C5.28791728,22.1 3.9,20.7120827 3.9,19 L3.9,5 C3.9,3.28791728 5.28791728,1.9 7,1.9 Z M12.007,4.099 L7,4.1 C6.50294373,4.1 6.1,4.50294373 6.1,5 L6.1,19 C6.1,19.4970563 6.50294373,19.9 7,19.9 L17,19.9 C17.4970563,19.9 17.9,19.4970563 17.9,19 L17.9,10.382 L14.1074894,10.3825041 C12.9981175,10.3825041 12.0896612,9.52228149 12.0127622,8.43247756 L12.0074894,8.28250414 L12.007,4.099 Z M15,15.4 C15.6075132,15.4 16.1,15.8924868 16.1,16.5 C16.1,17.1075132 15.6075132,17.6 15,17.6 L15,17.6 L9,17.6 C8.39248678,17.6 7.9,17.1075132 7.9,16.5 C7.9,15.8924868 8.39248678,15.4 9,15.4 L9,15.4 Z M15,11.4 C15.6075132,11.4 16.1,11.8924868 16.1,12.5 C16.1,13.1075132 15.6075132,13.6 15,13.6 L15,13.6 L9,13.6 C8.39248678,13.6 7.9,13.1075132 7.9,12.5 C7.9,11.8924868 8.39248678,11.4 9,11.4 L9,11.4 Z M10,7.4 C10.6075132,7.4 11.1,7.89248678 11.1,8.5 C11.1,9.10751322 10.6075132,9.6 10,9.6 L10,9.6 L9,9.6 C8.39248678,9.6 7.9,9.10751322 7.9,8.5 C7.9,7.89248678 8.39248678,7.4 9,7.4 L9,7.4 Z M14.207,5.694 L14.2074894,8.18250414 L16.643,8.182 L14.207,5.694 Z" id="icon-file" fill="#333333" fill-rule="nonzero"></path>
    </g>
</svg>