<?xml version="1.0" encoding="UTF-8"?>
<svg width="24px" height="24px" viewBox="0 0 24 24" version="1.1" xmlns="http://www.w3.org/2000/svg" xmlns:xlink="http://www.w3.org/1999/xlink">
    <!-- Generator: Sketch 64 (93537) - https://sketch.com -->
    <title>icon/fill/filter/filter-24</title>
    <desc>Created with Sketch.</desc>
    <g id="icon/fill/filter/filter-24" stroke="none" stroke-width="1" fill="none" fill-rule="evenodd">
        <path d="M16,11.9 C17.3248429,11.9 18.4554823,12.7309276 18.8992368,13.9001011 L22,13.9 C22.6075132,13.9 23.1,14.3924868 23.1,15 C23.1,15.6075132 22.6075132,16.1 22,16.1 L22,16.1 L18.8988587,16.1008944 C18.4548405,17.2695441 17.3244669,18.1 16,18.1 C14.6755331,18.1 13.5451595,17.2695441 13.1011413,16.1008944 L2,16.1 C1.39248678,16.1 0.9,15.6075132 0.9,15 C0.9,14.3924868 1.39248678,13.9 2,13.9 L2,13.9 L13.1007632,13.9001011 C13.5445177,12.7309276 14.6751571,11.9 16,11.9 Z M16,14.1 C15.5028466,14.1 15.1,14.5028466 15.1,15 C15.1,15.4971534 15.5028466,15.9 16,15.9 C16.4971534,15.9 16.9,15.4971534 16.9,15 C16.9,14.5028466 16.4971534,14.1 16,14.1 Z M8,5.9 C9.32484291,5.9 10.4554823,6.73092756 10.8992368,7.90010115 L22,7.9 C22.6075132,7.9 23.1,8.39248678 23.1,9 C23.1,9.60751322 22.6075132,10.1 22,10.1 L22,10.1 L10.8988587,10.1008944 C10.4548405,11.2695441 9.32446685,12.1 8,12.1 C6.67553315,12.1 5.54515953,11.2695441 5.10114125,10.1008944 L2,10.1 C1.39248678,10.1 0.9,9.60751322 0.9,9 C0.9,8.39248678 1.39248678,7.9 2,7.9 L2,7.9 L5.10076321,7.90010115 C5.54451766,6.73092756 6.67515709,5.9 8,5.9 Z M8,8.1 C7.50284656,8.1 7.1,8.50284656 7.1,9 C7.1,9.49715344 7.50284656,9.9 8,9.9 C8.49715344,9.9 8.9,9.49715344 8.9,9 C8.9,8.50284656 8.49715344,8.1 8,8.1 Z" id="icon-filter" fill="#333333" fill-rule="nonzero"></path>
    </g>
</svg>