<?xml version="1.0" encoding="UTF-8"?>
<svg width="24px" height="24px" viewBox="0 0 24 24" version="1.1" xmlns="http://www.w3.org/2000/svg" xmlns:xlink="http://www.w3.org/1999/xlink">
    <!-- Generator: Sketch 64 (93537) - https://sketch.com -->
    <title>icon/fill/filter-alt/filter-alt-24</title>
    <desc>Created with Sketch.</desc>
    <g id="icon/fill/filter-alt/filter-alt-24" stroke="none" stroke-width="1" fill="none" fill-rule="evenodd">
        <path d="M9.22589072,13.3587019 L2.11267512,3.65011888 C1.58029069,2.92348571 2.09920649,1.9 3,1.9 L21.5742695,1.9 C22.4806624,1.9 22.9980979,2.93472571 22.4543436,3.65990114 L15.1817338,13.358984 L15.1817338,18.1939772 C15.1817338,18.521626 15.0356731,18.8322198 14.7833184,19.0411956 L11.0274753,22.1514226 C10.3103983,22.7452367 9.22589072,22.235233 9.22589072,21.3042042 L9.22589072,13.3587019 Z M5.16958954,4.1 L11.2132156,12.3487371 C11.3513961,12.5373349 11.4258907,12.7650548 11.4258907,12.998856 L11.4258907,18.9650871 L12.9817338,17.676688 L12.9817338,12.992386 C12.9817338,12.754421 13.0589021,12.5228728 13.2016597,12.3324848 L19.3745784,4.1 L5.16958954,4.1 Z" id="icon-filter" fill="#333333" fill-rule="nonzero"></path>
    </g>
</svg>