<?xml version="1.0" encoding="UTF-8"?>
<svg width="24px" height="24px" viewBox="0 0 24 24" version="1.1" xmlns="http://www.w3.org/2000/svg" xmlns:xlink="http://www.w3.org/1999/xlink">
    <!-- Generator: Sketch 64 (93537) - https://sketch.com -->
    <title>icon/fill/folder/folder-24</title>
    <desc>Created with Sketch.</desc>
    <g id="icon/fill/folder/folder-24" stroke="none" stroke-width="1" fill="none" fill-rule="evenodd">
        <path d="M1.9,6 C1.9,4.28791728 3.28791728,2.9 5,2.9 L5,2.9 L10,2.9 C11.7120827,2.9 13.1,4.28791728 13.1,6 L13.097,5.899 L19,5.9 C20.6530454,5.9 22.0038961,7.19384916 22.0950927,8.82408797 L22.1,9 L22.1,18 C22.1,19.7120827 20.7120827,21.1 19,21.1 L19,21.1 L5,21.1 C3.28791728,21.1 1.9,19.7120827 1.9,18 L1.9,18 Z M12,8.1 C11.3924868,8.1 10.9,7.60751322 10.9,7 L10.9,7 L10.9,6 C10.9,5.50294373 10.4970563,5.1 10,5.1 L10,5.1 L5,5.1 C4.50294373,5.1 4.1,5.50294373 4.1,6 L4.1,6 L4.1,8 C4.1,8.00573762 4.09995607,8.01146499 4.09986853,8.01718178 L4.1,18 C4.1,18.4970563 4.50294373,18.9 5,18.9 L5,18.9 L19,18.9 C19.4970563,18.9 19.9,18.4970563 19.9,18 L19.9,18 L19.9,9 C19.9,8.50294373 19.4970563,8.1 19,8.1 L19,8.1 Z" id="icon-folder" fill="#333333" fill-rule="nonzero"></path>
    </g>
</svg>