<?xml version="1.0" encoding="UTF-8"?>
<svg width="24px" height="24px" viewBox="0 0 24 24" version="1.1" xmlns="http://www.w3.org/2000/svg" xmlns:xlink="http://www.w3.org/1999/xlink">
    <!-- Generator: Sketch 64 (93537) - https://sketch.com -->
    <title>icon/fill/gear/gear-24</title>
    <desc>Created with Sketch.</desc>
    <g id="icon/fill/gear/gear-24" stroke="none" stroke-width="1" fill="none" fill-rule="evenodd">
        <path d="M12.8392754,0.9 C13.85227,0.9 14.6695821,1.7290015 14.6660629,2.65283293 L14.6859317,2.90062616 C15.0701367,3.01489584 15.4460822,3.15363623 15.8117128,3.31581186 L15.9056517,3.21376402 C16.5548558,2.43019858 17.7189879,2.32738282 18.4947306,2.98707349 L19.7812173,4.08186332 C20.5469277,4.73439779 20.6461811,5.88925816 20.058519,6.59285267 L19.913394,6.80022295 C20.1397134,7.14354119 20.3440432,7.50146154 20.5250074,7.87186071 L20.656992,7.85557008 C21.6562321,7.67652699 22.6068699,8.35096337 22.7812486,9.3502051 L23.0729886,11.0289995 C23.2415227,12.0048076 22.6083242,12.9437498 21.6445481,13.1463249 L21.4499009,13.1978724 C21.4051392,13.6126143 21.3339664,14.0222027 21.2370508,14.424781 L21.3640276,14.508555 C22.2332765,15.017182 22.5289601,16.138706 22.0313682,17.0137761 L21.1923741,18.4874656 C20.6897058,19.3714635 19.5615507,19.6787356 18.7620664,19.2065618 L18.5576892,19.1082471 C18.2658581,19.3900501 17.9565847,19.6528404 17.6318552,19.8948244 L17.679378,20.0527293 C18.0190707,21.0011517 17.5340094,22.0563967 16.5883,22.4048757 L15.0100069,22.9877809 C14.0564978,23.3392015 13.0005129,22.8398464 12.6913257,21.9658365 L12.5923178,21.7467698 C12.3955715,21.7590273 12.1980909,21.7651885 12,21.7651885 C11.7989066,21.7651885 11.5986972,21.7588731 11.3995115,21.7462877 L11.3418972,21.8836544 C10.9994871,22.8398464 9.94350222,23.3392015 8.98929235,22.9875224 L7.41246479,22.4051578 C6.46599064,22.0563967 5.98092928,21.0011517 6.29449186,20.1359387 L6.36128748,19.8894405 C6.03682009,19.6470729 5.72796481,19.3842353 5.43678567,19.1027285 L5.31676954,19.1646158 C4.4384493,19.6787356 3.31029425,19.3714635 2.80790719,18.48796 L1.96835052,17.0132817 C1.4710399,16.138706 1.76672345,15.017182 2.5600451,14.5572684 L2.76114073,14.4162846 C2.66465688,14.0136701 2.59383169,13.6041823 2.54935716,13.1897229 L2.40901631,13.1567604 C1.41526279,12.9783104 0.755374518,12.0227728 0.927206001,11.0278762 L1.21888536,9.34943565 C1.39313013,8.35096337 2.34376791,7.67652699 3.25298432,7.8432522 L3.47828724,7.86464605 C3.65969739,7.49438192 3.86458623,7.13647681 4.09148663,6.79313211 L3.99566308,6.66394042 C3.3538189,5.88925816 3.45307231,4.73439779 4.21936678,4.08136591 L5.50555765,2.9868283 C6.28101213,2.32738282 7.44514415,2.43019858 8.0356543,3.14841913 L8.19520132,3.31237673 C8.56134319,3.15035082 8.93763768,3.0118971 9.32213394,2.89803751 L9.33041794,2.74075179 C9.33041794,1.7290015 10.14773,0.9 11.1607246,0.9 L12.8392754,0.9 Z M12.4972581,3.1 L11.5134689,3.1 L11.4762994,3.82613248 C11.4505111,4.32992729 11.0853494,4.75161184 10.5904132,4.84914375 C9.85660623,4.99374745 9.15308028,5.25276046 8.50044671,5.61555302 C8.06622838,5.8569307 7.52411292,5.77730409 7.17764493,5.42125819 L6.66383789,4.88992378 L5.89979508,5.54011763 L6.33794365,6.12893758 C6.63607301,6.52958825 6.62689307,7.08079903 6.31558776,7.47130009 C5.84481754,8.06183377 5.46554186,8.72248696 5.1930634,9.43018542 C5.01579866,9.89058875 4.55367937,10.176657 4.06253883,10.1300203 L3.32874997,10.0578451 L3.15240471,11.0726057 L3.84487138,11.2341407 C4.33532965,11.3485523 4.68544518,11.7814321 4.69478896,12.2849716 C4.70905356,13.0536955 4.83874276,13.8048941 5.07682827,14.5209269 C5.23022894,14.9822735 5.0625719,15.4896042 4.66447837,15.768699 L4.03916904,16.2040109 L4.54324892,17.0894254 L5.16190026,16.7692063 C5.61464709,16.5348608 6.16908785,16.6423079 6.50151717,17.0288157 C6.9917696,17.5988208 7.56775741,18.0915291 8.2065888,18.4870504 C8.62019766,18.7431291 8.81648444,19.2404747 8.68925149,19.7100068 L8.48466619,20.4559031 L9.41250565,20.7985789 L9.68744457,20.1402601 C9.8828498,19.6723781 10.3727591,19.3986806 10.8736309,19.4775735 C11.2431785,19.5357813 11.618984,19.5651885 12,19.5651885 C12.3705787,19.5651885 12.7381233,19.5371738 13.1017625,19.4818253 C13.5892631,19.4076242 14.066577,19.6669184 14.2696638,20.1162718 L14.577141,20.8024026 L15.5054345,20.4595594 L15.2928786,19.7569147 C15.1480036,19.2780027 15.3445858,18.7616528 15.771274,18.5003435 C16.4098623,18.1092639 16.9870859,17.619075 17.4809316,17.0491635 C17.8059409,16.6740937 18.3418531,16.5631096 18.7890917,16.7782516 L19.451098,17.0993548 L19.9554123,16.2135289 L19.3525402,15.8171274 C18.9346785,15.5423743 18.7547409,15.0203293 18.9145684,14.5464593 C19.1554709,13.8322114 19.287745,13.0820123 19.3045629,12.3128099 C19.3152766,11.8227947 19.6489003,11.3989842 20.1226998,11.2735102 L20.8490791,11.0811467 L20.6732111,10.0691295 L19.9808057,10.1557223 C19.4776999,10.2186412 18.9967608,9.92952718 18.8163188,9.45569702 C18.5459433,8.74570659 18.1695448,8.08392564 17.7014452,7.4922774 C17.399886,7.11112558 17.3842058,6.57724723 17.6628756,6.17905394 L18.1082712,5.54698219 L17.3447635,4.89724353 L16.8711016,5.41330313 C16.5260063,5.78928796 15.9676262,5.87853353 15.5225299,5.62884457 C14.8721175,5.26397793 14.1689424,5.00203305 13.4351185,4.85404707 C12.9539649,4.75701562 12.5953216,4.35294341 12.5560906,3.86367365 L12.4972581,3.1 Z M12,6.9 C14.8166352,6.9 17.1,9.18335623 17.1,12.0000395 C17.1,14.8166594 14.8166196,17.1 12,17.1 C9.18338041,17.1 6.9,14.8166594 6.9,12.0000395 C6.9,9.18335623 9.18336483,6.9 12,6.9 Z M12,9.1 C10.3983894,9.1 9.1,10.3983845 9.1,12.0000395 C9.1,13.6016243 10.3983983,14.9 12,14.9 C13.6016017,14.9 14.9,13.6016243 14.9,12.0000395 C14.9,10.3983845 13.6016106,9.1 12,9.1 Z" id="icon-gear" fill="#333333" fill-rule="nonzero"></path>
    </g>
</svg>