<?xml version="1.0" encoding="UTF-8"?>
<svg width="24px" height="24px" viewBox="0 0 24 24" version="1.1" xmlns="http://www.w3.org/2000/svg" xmlns:xlink="http://www.w3.org/1999/xlink">
    <!-- Generator: Sketch 64 (93537) - https://sketch.com -->
    <title>icon/fill/geo/geo-24</title>
    <desc>Created with Sketch.</desc>
    <g id="icon/fill/geo/geo-24" stroke="none" stroke-width="1" fill="none" fill-rule="evenodd">
        <path d="M12.5,0.955555556 C17.2186243,0.955555556 21.0444444,4.78137566 21.0444444,9.5 C21.0444444,12.6953485 19.2742208,15.5713082 16.5194543,17.0415121 L13.4587728,22.4836612 C13.0382778,23.2313367 11.9618288,23.2313812 11.5412719,22.4837406 L8.47981438,17.0412667 C5.72010236,15.568375 3.95555556,12.690461 3.95555556,9.5 C3.95555556,4.78137566 7.78137566,0.955555556 12.5,0.955555556 Z M10.2342837,15.672926 L12.4999071,19.7006142 L14.7656717,15.6718943 C14.883171,15.4629707 15.063129,15.3020718 15.2746558,15.2072653 C17.4404536,14.151589 18.8444444,11.9529535 18.8444444,9.5 C18.8444444,5.99640211 16.0035979,3.15555556 12.5,3.15555556 C8.99640211,3.15555556 6.15555556,5.99640211 6.15555556,9.5 C6.15555556,11.8934757 7.49164572,14.0487399 9.5810043,15.1347869 C9.60968225,15.1498311 9.63115226,15.1606436 9.69510051,15.1923916 L9.77255556,15.2305556 L9.88115375,15.2939343 C10.0268303,15.3900057 10.1481154,15.5197412 10.2342837,15.672926 Z M12.5,5.58945556 C14.4575132,5.58945556 16.0444444,7.17638678 16.0444444,9.1339 C16.0444444,11.0914132 14.4575132,12.6783444 12.5,12.6783444 C10.5424868,12.6783444 8.95555556,11.0914132 8.95555556,9.1339 C8.95555556,7.17638678 10.5424868,5.58945556 12.5,5.58945556 Z M12.5,7.78945556 C11.7575132,7.78945556 11.1555556,8.39141322 11.1555556,9.1339 C11.1555556,9.87638678 11.7575132,10.4783444 12.5,10.4783444 C13.2424868,10.4783444 13.8444444,9.87638678 13.8444444,9.1339 C13.8444444,8.39141322 13.2424868,7.78945556 12.5,7.78945556 Z" id="icon-geo" fill="#333333" fill-rule="nonzero"></path>
    </g>
</svg>