<?xml version="1.0" encoding="UTF-8"?>
<svg width="24px" height="24px" viewBox="0 0 24 24" version="1.1" xmlns="http://www.w3.org/2000/svg" xmlns:xlink="http://www.w3.org/1999/xlink">
    <!-- Generator: Sketch 64 (93537) - https://sketch.com -->
    <title>icon/fill/globe/globe-24</title>
    <desc>Created with Sketch.</desc>
    <g id="icon/fill/globe/globe-24" stroke="none" stroke-width="1" fill="none" fill-rule="evenodd">
        <path d="M12.1380374,1.90053758 L12.1556682,1.9011753 C16.4305973,1.96576629 20.0616316,4.68628847 21.4718503,8.48582094 C21.5217751,8.57841369 21.5581328,8.67931381 21.5791429,8.7857283 C21.9165717,9.79593026 22.1,10.8765441 22.1,12 C22.1,13.1230825 21.9166936,14.2033515 21.5783673,15.2125203 C21.5585529,15.3195897 21.5219749,15.4213044 21.4722557,15.5149774 C20.0440912,19.3600834 16.3420165,22.1 12,22.1 L12.0317092,22.0998234 L12.0317092,22.0998234 L11.9689102,22.0999532 C7.64031845,22.0869101 3.95250057,19.3509026 2.52841224,15.5148864 C2.47802512,15.4213044 2.44144711,15.3195897 2.42046793,15.2122909 C2.08330644,14.2033515 1.9,13.1230825 1.9,12 C1.9,10.8765441 2.08342834,9.79593026 2.42197014,8.78647325 C2.44186724,8.67931381 2.47822494,8.57841369 2.52752825,8.48542994 C3.95545486,4.64025263 7.65771728,1.9 12,1.9 L11.8452124,1.90131157 C11.868376,1.90007649 11.891519,1.8995816 11.9146073,1.89981559 L12,1.9 C12.0286568,1.9 12.0572857,1.90011935 12.0858863,1.90035757 L12.1380374,1.90053758 L12.1380374,1.90053758 Z M15.0660364,16.1004445 L13.099,16.0997593 L13.0998577,18.9278724 C13.9119212,18.1799632 14.5840039,17.2126149 15.0660364,16.1004445 Z M10.899,16.0997593 L8.93421673,16.1004445 C9.41585287,17.2117003 10.0872268,18.1783721 10.8983924,18.9260269 L10.899,16.0997593 Z M6.57764085,16.1008708 L5.24622593,16.100576 C5.89961822,17.1744315 6.80191348,18.0801515 7.8730021,18.7376265 C7.34061952,17.9399756 6.90376246,17.0521156 6.57764085,16.1008708 Z M18.7537741,16.100576 L17.4226123,16.1008708 C17.0966273,17.0517171 16.6599996,17.9392318 16.1280366,18.7370388 C17.1986513,18.0795846 18.1005863,17.1740954 18.7537741,16.100576 Z M6.03545001,10.1001844 L4.32996436,10.1000419 C4.17971201,10.7086291 4.1,11.3450057 4.1,12 C4.1,12.6550098 4.17971578,13.291401 4.32997503,13.9000012 L6.04243411,13.9000724 C5.94862849,13.2731478 5.9,12.6299819 5.9,11.9765216 C5.9,11.3395131 5.94620888,10.7122253 6.03545001,10.1001844 Z M10.899,10.0997593 L8.26351842,10.099685 C8.15632959,10.7056229 8.1,11.3339809 8.1,11.9765216 C8.1,12.63582 8.15930317,13.2800826 8.27196385,13.9004489 L10.899,13.8997593 L10.899,10.0997593 Z M15.7367347,10.099685 L13.099,10.0997593 L13.099,13.8997593 L15.7282893,13.9004489 C15.84095,13.2800826 15.9002531,12.63582 15.9002531,11.9765216 C15.9002531,11.3339809 15.8439236,10.7056229 15.7367347,10.099685 Z M19.6700356,10.1000419 L17.9648031,10.1001844 C18.0540443,10.7122253 18.1002531,11.3395131 18.1002531,11.9765216 C18.1002531,12.6299819 18.0516247,13.2731478 17.957819,13.9000724 L19.670025,13.9000012 C19.8202842,13.291401 19.9,12.6550098 19.9,12 C19.9,11.3450057 19.820288,10.7086291 19.6700356,10.1000419 Z M7.81936803,5.29596887 L7.75105652,5.33876549 C6.7331221,5.98941853 5.87424572,6.86700428 5.24575961,7.90019053 L6.56140445,7.89971769 C6.87828242,6.96274142 7.30241724,6.08645114 7.81936803,5.29596887 Z M10.8994356,5.02613154 C10.0760721,5.78466552 9.39702994,6.76840238 8.91400184,7.89949934 L10.899,7.8997593 Z M13.0997869,5.0251823 L13.099,7.8997593 L15.0862513,7.89949934 C14.6030217,6.7679305 13.9236144,5.78384474 13.0997869,5.0251823 Z M16.1811575,5.29592009 L16.292656,5.47052335 C16.7592146,6.2147691 17.1451129,7.03117058 17.4388487,7.89971769 L18.7542404,7.90019053 C18.1118515,6.84414916 17.2287667,5.95066849 16.1811575,5.29592009 Z" id="icon-globe" fill="#333333" fill-rule="nonzero"></path>
    </g>
</svg>