<?xml version="1.0" encoding="UTF-8"?>
<svg width="24px" height="24px" viewBox="0 0 24 24" version="1.1" xmlns="http://www.w3.org/2000/svg" xmlns:xlink="http://www.w3.org/1999/xlink">
    <!-- Generator: Sketch 64 (93537) - https://sketch.com -->
    <title>icon/fill/hdd/hdd-24</title>
    <desc>Created with Sketch.</desc>
    <g id="icon/fill/hdd/hdd-24" stroke="none" stroke-width="1" fill="none" fill-rule="evenodd">
        <path d="M17.3603922,1.9 C18.8381034,1.9 20.1103893,2.94302497 20.4061672,4.42442893 L20.4061672,4.42442893 L22.0846137,14.3539477 C22.1052866,14.4762467 22.1049187,14.5972396 22.086142,14.7132235 C22.0955725,14.8076359 22.1,14.9033009 22.1,15 L22.1,19 C22.1,20.7120827 20.7120827,22.1 19,22.1 L5,22.1 C3.28791728,22.1 1.9,20.7120827 1.9,19 L1.9,15 C1.9,14.9026223 1.90448986,14.8062933 1.91327386,14.7112087 C1.8948388,14.5947236 1.89479366,14.4726827 1.9161644,14.3494025 L1.9161644,14.3494025 L3.62868037,4.47050881 C3.88621643,2.98487518 5.1753357,1.9 6.68312616,1.9 L6.68312616,1.9 Z M19,14.1 L5,14.1 C4.50294373,14.1 4.1,14.5029437 4.1,15 L4.1,19 C4.1,19.4970563 4.50294373,19.9 5,19.9 L19,19.9 C19.4970563,19.9 19.9,19.4970563 19.9,19 L19.9,15 C19.9,14.5029437 19.4970563,14.1 19,14.1 Z M17.3740036,15.9 C17.9815168,15.9 18.4740036,16.3924868 18.4740036,17 C18.4740036,17.6075132 17.9815168,18.1 17.3740036,18.1 L17.3740036,18.1 L17,18.1 C16.3924868,18.1 15.9,17.6075132 15.9,17 C15.9,16.3924868 16.3924868,15.9 17,15.9 L17,15.9 Z M17.3603922,4.1 L6.68312616,4.1 C6.24538054,4.1 5.87112011,4.41496376 5.79635158,4.84627675 L5.79635158,4.84627675 L4.56813822,11.929841 C4.70927218,11.9101694 4.8534485,11.9 5,11.9 L19,11.9 C19.1510661,11.9 19.2996085,11.9108056 19.4448963,11.931686 L18.2429148,4.82349548 C18.1587784,4.4028137 17.7894051,4.1 17.3603922,4.1 L17.3603922,4.1 Z" id="icon-hdd" fill="#333333" fill-rule="nonzero"></path>
    </g>
</svg>