<?xml version="1.0" encoding="UTF-8"?>
<svg width="24px" height="24px" viewBox="0 0 24 24" version="1.1" xmlns="http://www.w3.org/2000/svg" xmlns:xlink="http://www.w3.org/1999/xlink">
    <!-- Generator: Sketch 64 (93537) - https://sketch.com -->
    <title>icon/fill/heart/heart-24</title>
    <desc>Created with Sketch.</desc>
    <g id="icon/fill/heart/heart-24" stroke="none" stroke-width="1" fill="none" fill-rule="evenodd">
        <path d="M16.4140127,2.99899997 C19.8539277,2.99899997 22.001,5.56877858 22.001,9.09631797 C22.001,10.6885407 21.3520537,12.1833917 20.1958165,13.3281011 L20.2402793,13.2837541 C20.1956793,13.3644879 20.1390848,13.4403621 20.0704992,13.5087637 L20.0704992,13.5087637 L20.0488373,13.5312213 L19.8667694,13.7092406 L19.8667694,13.7092406 L19.8510351,13.7235261 L12.6998113,20.715727 C12.6911694,20.7241767 12.6824136,20.7324383 12.6735489,20.7405118 C12.6522702,20.7599257 12.630334,20.7782494 12.6078285,20.7954904 C12.5963313,20.80426 12.584817,20.8126917 12.573169,20.8208461 C12.5544466,20.8339868 12.5352334,20.8464653 12.5157028,20.8582194 C12.4927282,20.872028 12.4694222,20.8848006 12.4457503,20.8965759 C12.4328099,20.9030203 12.4193551,20.9093433 12.4057931,20.9153506 C12.3872267,20.9235712 12.3689985,20.9309939 12.3506107,20.9378567 C12.3352536,20.9435841 12.319118,20.9491473 12.3028761,20.9542867 L12.2813506,20.9608532 C12.2695085,20.9643096 12.2576157,20.9675426 12.2456788,20.9705523 C12.2231366,20.976225 12.1999812,20.9812056 12.1767051,20.9853594 C12.1583938,20.9886441 12.1401144,20.9913835 12.1217861,20.9936164 C12.0999268,20.996263 12.0781353,20.9981976 12.0563099,20.9994213 C12.0538587,20.9995676 12.0508557,20.9997237 12.0478521,20.9998664 L11.9521401,20.999866 C11.9491365,20.9997233 11.9461334,20.9995672 11.9431309,20.9993976 C11.9218569,20.998197 11.9000654,20.9962622 11.8783456,20.9936169 C11.8598778,20.9913824 11.8415984,20.9886429 11.8233905,20.9853965 C11.8000111,20.981204 11.7768557,20.9762232 11.7538683,20.9704161 C11.7423767,20.9675406 11.7304839,20.9643075 11.7186419,20.960851 L11.6971164,20.9542843 C11.6808746,20.9491447 11.664739,20.9435815 11.6487271,20.9375947 C11.6309942,20.9309911 11.6127661,20.9235682 11.5947239,20.915585 C11.5806378,20.90934 11.567183,20.9030169 11.5538465,20.8963783 C11.5305709,20.8847969 11.507265,20.8720241 11.4843872,20.8582534 C11.4647599,20.8464611 11.4455468,20.8339824 11.4266902,20.8207796 C11.3825096,20.7898176 11.3401286,20.7547794 11.3001831,20.7157215 L11.3921653,20.7954856 C11.3544945,20.7666264 11.3184188,20.7347337 11.284273,20.6998113 L11.327,20.738 L11.3001831,20.7157215 L4.15313197,13.7274906 L4.15313197,13.7274906 L4.13323065,13.7091307 L3.95116272,13.5311114 C3.94388231,13.5235646 3.93751121,13.5169604 3.93202093,13.5112688 C3.86346893,13.4434022 3.80676972,13.3680425 3.76195246,13.2877814 L3.58837401,13.1060827 C2.57384518,12.00719 1.99899997,10.5948806 1.99899997,9.09631797 C1.99899997,5.56873074 4.14599236,2.99899997 7.58598726,2.99899997 C9.2339596,2.99899997 10.472522,3.83935778 11.5874178,5.29620764 C11.6676633,5.4010655 11.7979061,5.5851303 11.9426933,5.79271667 L12.0942033,5.57649551 L12.0942033,5.57649551 L12.2714757,5.33788521 C13.3895425,3.87898265 14.7246928,2.99899997 16.4140127,2.99899997 Z M18.7132502,11.9762542 L18.7911909,11.9023575 C18.7955514,11.8979693 18.800966,11.892525 18.807412,11.8860436 C19.5707566,11.129935 19.999,10.1434742 19.999,9.09631797 C19.999,6.60283785 18.6606506,5.00100003 16.4140127,5.00100003 C15.4587073,5.00100003 14.6368191,5.54269734 13.8604992,6.55567353 C13.6654084,6.81023661 13.4827618,7.08146902 13.2859207,7.40076076 C13.2037421,7.53406093 12.912217,8.02396494 12.8474797,8.12695465 C12.8427919,8.13500457 12.8344674,8.14774545 12.8258252,8.16032827 C12.807843,8.18619953 12.7894735,8.21052218 12.7702048,8.23378718 C12.7426408,8.26689623 12.7126214,8.29860976 12.6801598,8.32867278 L12.7535419,8.25338735 C12.7333616,8.27651506 12.7122696,8.29853552 12.6903548,8.31942842 L12.6801598,8.32867278 C12.6722004,8.33604409 12.6641532,8.34326139 12.6560221,8.35032483 C12.6375269,8.36673744 12.6179593,8.38247323 12.5978988,8.39739973 C12.5872499,8.40512223 12.5762579,8.41298985 12.5651502,8.42060681 C12.5428006,8.43601125 12.5200995,8.45019518 12.4969246,8.46341807 C12.4838075,8.47096345 12.4704741,8.4782011 12.4570207,8.48511196 C12.4394412,8.49400398 12.4214067,8.50256795 12.4031534,8.51057901 C12.3824682,8.51987284 12.3613785,8.52829933 12.3400879,8.53597726 C12.3271908,8.54038796 12.3148968,8.54454209 12.3025308,8.548456 C12.2815869,8.55531459 12.2600731,8.56133652 12.2384233,8.56662412 C12.2165535,8.57180491 12.1942221,8.57648833 12.17175,8.58040939 C12.1568042,8.58310966 12.1417941,8.58535894 12.1267517,8.58726609 C12.107267,8.58971021 12.087955,8.59161655 12.0685874,8.59296248 C12.0528045,8.59400502 12.0367743,8.5947147 12.0207404,8.59504121 L12.0045509,8.59536178 C11.9858346,8.59546455 11.9670928,8.59504295 11.9483483,8.59409177 C11.9312515,8.59303499 11.9139109,8.59169435 11.8966113,8.58990487 C11.8874466,8.58916775 11.8787546,8.58815224 11.8700688,8.58702102 C11.8245853,8.58089369 11.7790288,8.57175267 11.7341874,8.55944937 C11.6421504,8.53419664 11.5522513,8.49512958 11.4672907,8.44172499 L11.5676679,8.49736492 C11.4568964,8.44437689 11.3540814,8.36997575 11.2655725,8.2744051 L11.3178225,8.3270486 C11.3030471,8.31332472 11.2887574,8.29921646 11.2749592,8.28474942 L11.2655725,8.2744051 C11.0277998,8.01766126 10.1720754,6.7409483 9.9975528,6.51289715 C9.22349563,5.50142591 8.48594232,5.00100003 7.58598726,5.00100003 C5.3392792,5.00100003 4.00100003,6.60278361 4.00100003,9.09631797 C4.00100003,10.1434742 4.42924344,11.129935 5.17212227,11.8663393 L5.17212227,11.8663393 L5.20042909,11.8941367 C5.24462375,11.9370554 5.28953865,11.9793195 5.34923554,12.034011 C5.35570048,12.0396301 5.36460904,12.0473909 5.37590425,12.057231 L5.37590425,12.057231 L5.38881017,12.0691191 C5.47082993,12.1458744 5.537051,12.2331871 5.58733835,12.3269842 L12,18.6 L18.4115865,12.3289951 C18.4430526,12.2699788 18.4808145,12.2135131 18.5248388,12.1606094 L18.6111898,12.0691191 L18.6111898,12.0691191 L18.632,12.05 L18.6033963,12.0782383 C18.6510766,12.0346131 18.66697,12.0200714 18.6533858,12.0319111 L18.6408435,12.0426751 C18.6887628,11.9994621 18.7358928,11.9555383 18.7911909,11.9023575 Z" id="icon-heart" fill="#333333" fill-rule="nonzero"></path>
    </g>
</svg>