<?xml version="1.0" encoding="UTF-8"?>
<svg width="24px" height="24px" viewBox="0 0 24 24" version="1.1" xmlns="http://www.w3.org/2000/svg" xmlns:xlink="http://www.w3.org/1999/xlink">
    <!-- Generator: Sketch 64 (93537) - https://sketch.com -->
    <title>icon/fill/home/home-24</title>
    <desc>Created with Sketch.</desc>
    <g id="icon/fill/home/home-24" stroke="none" stroke-width="1" fill="none" fill-rule="evenodd">
        <path d="M6,22.1 C4.28791728,22.1 2.9,20.7120827 2.9,19 L2.9,10.4537682 C2.9,9.8482068 3.16140891,9.27212216 3.61714032,8.87335717 L9.95863572,3.3245487 C11.1274163,2.3018657 12.8725837,2.3018657 14.0413643,3.3245487 L20.3828597,8.87335717 C20.8385911,9.27212216 21.1,9.8482068 21.1,10.4537682 L21.1,19 C21.1,20.7120827 19.7120827,22.1 18,22.1 L6,22.1 Z M11.4073459,4.98021743 L5.1,10.499145 L5.1,19 C5.1,19.4970563 5.50294373,19.9 6,19.9 L7.9,19.8995365 L7.9,15 C7.9,13.2879173 9.28791728,11.9 11,11.9 L13,11.9 C14.7120827,11.9 16.1,13.2879173 16.1,15 L16.1,19.8995365 L18,19.9 C18.4970563,19.9 18.9,19.4970563 18.9,19 L18.9,10.499145 L12.5926541,4.98021743 C12.2533308,4.68330946 11.7466692,4.68330946 11.4073459,4.98021743 Z M13,14.1 L11,14.1 C10.5029437,14.1 10.1,14.5029437 10.1,15 L10.1,19.9 L13.9,19.9 L13.9,15 C13.9,14.5029437 13.4970563,14.1 13,14.1 Z" id="icon-home" fill="#333333" fill-rule="nonzero"></path>
    </g>
</svg>