<?xml version="1.0" encoding="UTF-8"?>
<svg width="24px" height="24px" viewBox="0 0 24 24" version="1.1" xmlns="http://www.w3.org/2000/svg" xmlns:xlink="http://www.w3.org/1999/xlink">
    <!-- Generator: Sketch 64 (93537) - https://sketch.com -->
    <title>icon/fill/home-alt/home-alt-24</title>
    <desc>Created with Sketch.</desc>
    <g id="icon/fill/home-alt/home-alt-24" stroke="none" stroke-width="1" fill="none" fill-rule="evenodd">
        <path d="M9.95863572,3.3245487 C11.1274163,2.3018657 12.8725837,2.3018657 14.0413643,3.3245487 L14.0413643,3.3245487 L20.3828597,8.87335717 C20.8385911,9.27212216 21.1,9.8482068 21.1,10.4537682 L21.1,10.4537682 L21.1,19 C21.1,20.7120827 19.7120827,22.1 18,22.1 L18,22.1 L6,22.1 C4.28791728,22.1 2.9,20.7120827 2.9,19 L2.9,19 L2.9,10.4537682 C2.9,9.8482068 3.16140891,9.27212216 3.61714032,8.87335717 L3.61714032,8.87335717 Z M12.5926541,4.98021743 C12.2533308,4.68330946 11.7466692,4.68330946 11.4073459,4.98021743 L11.4073459,4.98021743 L5.1,10.498 L5.1,19 C5.1,19.4588212 5.44333667,19.8374518 5.88710591,19.8929877 L5.88710591,19.8929877 L6,19.9 L18,19.9 C18.4970563,19.9 18.9,19.4970563 18.9,19 L18.9,19 L18.9,10.499 Z M13.5,15.4 C14.1075132,15.4 14.6,15.8924868 14.6,16.5 C14.6,17.0670123 14.1709893,17.5338239 13.6198571,17.5935453 L13.5,17.6 L10.5,17.6 C9.89248678,17.6 9.4,17.1075132 9.4,16.5 C9.4,15.9329877 9.8290107,15.4661761 10.3801429,15.4064547 L10.5,15.4 L13.5,15.4 Z M15.5,11.4 C16.1075132,11.4 16.6,11.8924868 16.6,12.5 C16.6,13.0670123 16.1709893,13.5338239 15.6198571,13.5935453 L15.5,13.6 L8.5,13.6 C7.89248678,13.6 7.4,13.1075132 7.4,12.5 C7.4,11.9329877 7.8290107,11.4661761 8.38014288,11.4064547 L8.5,11.4 L15.5,11.4 Z" id="icon-home-alt" fill="#333333" fill-rule="nonzero"></path>
    </g>
</svg>