<?xml version="1.0" encoding="UTF-8"?>
<svg width="24px" height="24px" viewBox="0 0 24 24" version="1.1" xmlns="http://www.w3.org/2000/svg" xmlns:xlink="http://www.w3.org/1999/xlink">
    <!-- Generator: Sketch 64 (93537) - https://sketch.com -->
    <title>icon/fill/img/img-24</title>
    <desc>Created with Sketch.</desc>
    <g id="icon/fill/img/img-24" stroke="none" stroke-width="1" fill="none" fill-rule="evenodd">
        <path d="M19,1.9 C20.7120827,1.9 22.1,3.28791728 22.1,5 L22.1,19 C22.1,20.7120827 20.7120827,22.1 19,22.1 L5,22.1 C3.28791728,22.1 1.9,20.7120827 1.9,19 L1.9,5 C1.9,3.28791728 3.28791728,1.9 5,1.9 L19,1.9 Z M8.52336655,11.7097378 C8.19017723,11.4050273 7.68278253,11.3943538 7.33707402,11.6847833 L7.33707402,11.6847833 L4.09997472,14.403 L4.1,19 C4.1,19.4970563 4.50294373,19.9 5,19.9 L17.4779747,19.899 Z M16.7885444,13.5079419 C16.4361234,13.1672076 15.8758287,13.171181 15.5282756,13.5168794 L15.5282756,13.5168794 L14.6799747,14.359 L19.8913778,19.1250824 C19.8970618,19.0842027 19.9,19.0424445 19.9,19 L19.8998335,16.4818203 C19.8347478,16.4413214 19.7729295,16.3933614 19.7155865,16.33792 L19.7155865,16.33792 Z M19,4.1 L5,4.1 C4.50294373,4.1 4.1,4.50294373 4.1,5 L4.09997472,11.53 L5.92195335,10.000315 C7.06095434,9.04344107 8.70949946,9.03547446 9.85507051,9.95511615 L10.008072,10.0862695 L13.0559747,12.873 L13.976808,11.9570883 C15.1278917,10.8121471 16.9564691,10.7554571 18.174574,11.7961522 L18.3177338,11.9263036 L19.8999747,13.457 L19.9,5 C19.9,4.50294373 19.4970563,4.1 19,4.1 Z" id="icon-img" fill="#333333" fill-rule="nonzero"></path>
    </g>
</svg>