<?xml version="1.0" encoding="UTF-8"?>
<svg width="24px" height="24px" viewBox="0 0 24 24" version="1.1" xmlns="http://www.w3.org/2000/svg" xmlns:xlink="http://www.w3.org/1999/xlink">
    <!-- Generator: Sketch 64 (93537) - https://sketch.com -->
    <title>icon/fill/info/info-24</title>
    <desc>Created with Sketch.</desc>
    <g id="icon/fill/info/info-24" stroke="none" stroke-width="1" fill="none" fill-rule="evenodd">
        <path d="M12,0.9 C18.1303607,0.9 23.1,5.86963928 23.1,12 C23.1,18.1303607 18.1303607,23.1 12,23.1 C5.86963928,23.1 0.9,18.1303607 0.9,12 C0.9,5.86963928 5.86963928,0.9 12,0.9 Z M12,3.1 C7.08466573,3.1 3.1,7.08466573 3.1,12 C3.1,16.9153343 7.08466573,20.9 12,20.9 C16.9153343,20.9 20.9,16.9153343 20.9,12 C20.9,7.08466573 16.9153343,3.1 12,3.1 Z M13.2705078,9.64746094 L13.2705078,17.7260742 L11.1391602,17.7260742 L11.1391602,9.64746094 L13.2705078,9.64746094 Z M12.2084961,6 C12.875,6 13.4169922,6.53466797 13.4169922,7.21582031 C13.4169922,7.89697266 12.875,8.43896484 12.2084961,8.43896484 C11.5493164,8.43896484 11,7.89697266 11,7.21582031 C11,6.53466797 11.5493164,6 12.2084961,6 Z" id="icon-info" fill="#333333" fill-rule="nonzero"></path>
    </g>
</svg>