<?xml version="1.0" encoding="UTF-8"?>
<svg width="24px" height="24px" viewBox="0 0 24 24" version="1.1" xmlns="http://www.w3.org/2000/svg" xmlns:xlink="http://www.w3.org/1999/xlink">
    <!-- Generator: Sketch 64 (93537) - https://sketch.com -->
    <title>icon/fill/leaf/leaf-24</title>
    <desc>Created with Sketch.</desc>
    <g id="icon/fill/leaf/leaf-24" stroke="none" stroke-width="1" fill="none" fill-rule="evenodd">
        <path d="M13.418712,2.0161596 L17.9840118,9.35541422 C18.6980384,10.4390597 19.084698,11.7107003 19.084698,13.0378957 C19.084698,16.3349761 16.708389,19.0760255 13.585676,19.6049958 L13.584698,22.0972085 C13.584698,22.7047218 13.0922112,23.1972085 12.484698,23.1972085 C11.8771847,23.1972085 11.384698,22.7047218 11.384698,22.0972085 L11.384698,22.0972085 L11.3847245,19.605164 C8.26153927,19.0766056 5.88469797,16.3353128 5.88469797,13.0378957 C5.88469797,11.7108742 6.27126865,10.4391892 6.96582189,9.38615427 L6.97427489,9.37242152 L11.550689,2.01615158 C11.9811445,1.32422403 12.9882624,1.32422836 13.418712,2.0161596 Z M12.4846867,4.67963113 L8.84574461,10.5289499 L8.82180483,10.5668669 C8.3435003,11.2927483 8.08469797,12.1441193 8.08469797,13.0378957 C8.08469797,15.1174151 9.48838786,16.8616302 11.3844835,17.3565713 L11.384698,12.0972085 C11.384698,11.4896953 11.8771847,10.9972085 12.484698,10.9972085 C13.0922112,10.9972085 13.584698,11.4896953 13.584698,12.0972085 L13.584698,12.0972085 L13.5859208,17.3563117 C15.4815223,16.8610229 16.884698,15.1170657 16.884698,13.0378957 C16.884698,12.1439988 16.6258341,11.2926507 16.1314681,10.5416931 L12.4846867,4.67963113 Z" id="icon-leaf" fill="#333333" fill-rule="nonzero" transform="translate(12.484698, 12.347209) rotate(38.000000) translate(-12.484698, -12.347209) "></path>
    </g>
</svg>