<?xml version="1.0" encoding="UTF-8"?>
<svg width="24px" height="24px" viewBox="0 0 24 24" version="1.1" xmlns="http://www.w3.org/2000/svg" xmlns:xlink="http://www.w3.org/1999/xlink">
    <!-- Generator: Sketch 64 (93537) - https://sketch.com -->
    <title>icon/fill/light/light-24</title>
    <desc>Created with Sketch.</desc>
    <g id="icon/fill/light/light-24" stroke="none" stroke-width="1" fill="none" fill-rule="evenodd">
        <path d="M12.7881196,0.905209539 C16.7155176,1.04957163 19.9592766,4.21871086 20.0954666,8.07527622 C20.139814,9.35030292 19.8566884,10.584137 19.3144642,11.6228208 L17.070502,16.838176 L17.070502,19.8051027 C17.070502,21.6234147 15.5560678,23.1 13.7191213,23.1 L11.2270316,23.1 C9.41775011,23.1 7.93064975,21.6503988 7.93064975,19.8587387 L7.92952867,17.254244 C7.91021896,17.1726349 7.9,17.0875108 7.9,17 C7.9,16.9284252 7.90683603,16.858447 7.9198908,16.7906827 L5.65352594,11.5687209 C5.64608118,11.5534624 5.63898181,11.5380155 5.63223588,11.5223909 L5.61907645,11.4918896 L5.42504284,11.0375069 C5.39039651,10.972738 5.36244927,10.9048969 5.34147104,10.8350398 C5.05186473,10.0334053 4.9,9.19149355 4.9,8.33908986 C4.9,4.11914155 8.47925403,0.749486004 12.7881196,0.905209539 Z M14.87,18.0990214 L10.13,18.0990214 L10.1306498,19.8587387 C10.1306498,20.4226198 10.6203792,20.9 11.2270316,20.9 L13.7191213,20.9 C14.3533287,20.9 14.870502,20.395752 14.870502,19.8051027 L14.87,18.0990214 Z M7.1,8.33908986 C7.1,8.92938173 7.20513948,9.51556718 7.40719502,10.0781213 C7.4109092,10.0862628 7.41452601,10.0944538 7.41804432,10.1026929 L7.6220267,10.5803938 C7.64534342,10.6248612 7.66559813,10.6708885 7.68263969,10.7181479 L9.931,15.8990214 L15.079,15.8990214 L17.3276497,10.6814183 C17.7307637,9.90456985 17.9278438,9.04582054 17.8968267,8.15262595 C17.8016167,5.4610817 15.4934819,3.20613816 12.7079852,3.10374951 C9.6332632,2.9926284 7.1,5.37754557 7.1,8.33908986 Z" id="icon-light" fill="#333333" fill-rule="nonzero"></path>
    </g>
</svg>