<?xml version="1.0" encoding="UTF-8"?>
<svg width="24px" height="24px" viewBox="0 0 24 24" version="1.1" xmlns="http://www.w3.org/2000/svg" xmlns:xlink="http://www.w3.org/1999/xlink">
    <!-- Generator: Sketch 64 (93537) - https://sketch.com -->
    <title>icon/fill/link/link-24</title>
    <desc>Created with Sketch.</desc>
    <g id="icon/fill/link/link-24" stroke="none" stroke-width="1" fill="none" fill-rule="evenodd">
        <path d="M7.9503758,10.9105128 C9.24581362,9.25242797 11.5713603,8.85381578 13.1575112,10.0930527 C13.6362381,10.4670752 13.7211179,11.1583652 13.3470954,11.6370921 C12.9730729,12.1158191 12.2817829,12.2006988 11.8030559,11.8266763 C11.2131752,11.365811 10.2586741,11.529418 9.68399946,12.264968 L9.68399946,12.264968 L6.29786134,16.5990272 C5.72318672,17.3345771 5.79535425,18.3003056 6.38523496,18.761171 C6.97511568,19.2220363 7.92961683,19.0584293 8.50429145,18.3228793 L8.50429145,18.3228793 L10.1973605,16.1558497 C10.571383,15.6771228 11.262673,15.592243 11.7414,15.9662655 C12.2201269,16.340288 12.3050067,17.031578 11.9309842,17.510305 L11.9309842,17.510305 L10.2379151,19.6773345 C8.94247729,21.3354193 6.61693061,21.7340315 5.03077972,20.4947946 C3.44462883,19.2555577 3.26879986,16.9026567 4.56423768,15.2445719 L4.56423768,15.2445719 Z M13.8387602,5.30337155 C15.1629382,3.66814779 17.4950875,3.3101827 19.0593691,4.576913 C20.6236508,5.84364331 20.7583892,8.19925461 19.4342111,9.83447836 L19.4342111,9.83447836 L15.9729489,14.1087812 C14.6487708,15.7440049 12.3166216,16.10197 10.75234,14.8352397 C10.2802135,14.4529192 10.2074114,13.7602532 10.5897318,13.2881267 C10.9720523,12.8160003 11.6647184,12.7431981 12.1368448,13.1255186 C12.7185925,13.5966086 13.6758036,13.4496848 14.2632278,12.7242763 L14.2632278,12.7242763 L17.72449,8.4499735 C18.3119142,7.72456501 18.2566119,6.75772409 17.6748643,6.28663412 C17.0931166,5.81554415 16.1359055,5.96246792 15.5484813,6.68787641 L15.5484813,6.68787641 L13.8178502,8.8250278 C13.4355297,9.29715425 12.7428637,9.36995639 12.2707372,8.98763593 C11.7986108,8.60531547 11.7258086,7.91264939 12.1081291,7.44052294 L12.1081291,7.44052294 Z" id="icon-link" fill="#333333" fill-rule="nonzero"></path>
    </g>
</svg>