<?xml version="1.0" encoding="UTF-8"?>
<svg width="24px" height="24px" viewBox="0 0 24 24" version="1.1" xmlns="http://www.w3.org/2000/svg" xmlns:xlink="http://www.w3.org/1999/xlink">
    <!-- Generator: Sketch 64 (93537) - https://sketch.com -->
    <title>icon/fill/lock-alt/lock-alt-24</title>
    <desc>Created with Sketch.</desc>
    <g id="icon/fill/lock-alt/lock-alt-24" stroke="none" stroke-width="1" fill="none" fill-rule="evenodd">
        <path d="M12,1.9 C14.8166522,1.9 17.1,4.18334778 17.1,7 L17.1,8.902 L17.175912,8.90490734 C18.8061508,8.99610389 20.1,10.3469546 20.1,12 L20.1,19 C20.1,20.7120827 18.7120827,22.1 17,22.1 L7,22.1 C5.28791728,22.1 3.9,20.7120827 3.9,19 L3.9,12 C3.9,10.3213155 5.23429615,8.95427264 6.90018318,8.90157657 L6.9,7 C6.9,4.18334778 9.18334778,1.9 12,1.9 Z M17,11.1 L7,11.1 C6.50294373,11.1 6.1,11.5029437 6.1,12 L6.1,19 C6.1,19.4970563 6.50294373,19.9 7,19.9 L17,19.9 C17.4970563,19.9 17.9,19.4970563 17.9,19 L17.9,12 C17.9,11.5029437 17.4970563,11.1 17,11.1 Z M12,4.1 C10.3983742,4.1 9.1,5.39837423 9.1,7 L9.1,8.9 L14.9,8.9 L14.9,7 C14.9,5.39837423 13.6016258,4.1 12,4.1 Z" id="icon-lock" fill="#333333" fill-rule="nonzero"></path>
    </g>
</svg>