<?xml version="1.0" encoding="UTF-8"?>
<svg width="24px" height="24px" viewBox="0 0 24 24" version="1.1" xmlns="http://www.w3.org/2000/svg" xmlns:xlink="http://www.w3.org/1999/xlink">
    <!-- Generator: Sketch 64 (93537) - https://sketch.com -->
    <title>icon/fill/mail/mail-24</title>
    <desc>Created with Sketch.</desc>
    <g id="icon/fill/mail/mail-24" stroke="none" stroke-width="1" fill="none" fill-rule="evenodd">
        <path d="M18.3369524,3.6496 C20.8408006,3.6496 22.8617143,5.77196637 22.8617143,8.3466 L22.8617143,15.7366 C22.8617143,18.3112336 20.8408006,20.4336 18.3369524,20.4336 L6.13885714,20.4336 C3.63500895,20.4336 1.61409524,18.3112336 1.61409524,15.7366 L1.61409524,8.3466 C1.61409524,7.09972823 2.09042262,5.92245625 2.9232578,5.04797931 C3.76677523,4.16228601 4.91531746,3.6496 6.13885714,3.6496 L18.3369524,3.6496 Z M16.4870936,10.8546 L14.2633082,12.6721274 C13.124056,13.6044633 11.3611752,13.632735 10.1823607,12.7423737 L10.1823607,12.7423737 L7.70809359,10.8726 L3.81409359,14.9406 L3.81409524,15.7366 C3.81409524,17.1196561 4.8747908,18.2336 6.13885714,18.2336 L18.3369524,18.2336 C19.6010187,18.2336 20.6617143,17.1196561 20.6617143,15.7366 L20.6610936,15.2146 L16.4870936,10.8546 Z M20.5377636,7.54468105 L18.1960936,9.4576 L20.6610936,12.0326 L20.6617143,8.3466 C20.6617143,8.06584903 20.618007,7.79618716 20.5377636,7.54468105 Z M3.81409524,8.3466 L3.81409359,11.7586 L5.94109359,9.5376 L3.84318055,7.95348516 C3.82396199,8.0822186 3.81409524,8.21356649 3.81409524,8.3466 Z M18.3369524,5.8496 L6.13885714,5.8496 C5.76443645,5.8496 5.4021085,5.94693079 5.07717526,6.12829443 L11.5084538,10.98696 C11.8795316,11.267236 12.5188029,11.2569838 12.8706168,10.9690684 L12.8706168,10.9690684 L19.0037458,5.95584978 C18.7917384,5.88673034 18.5677348,5.8496 18.3369524,5.8496 Z" id="icon-mail" fill="#333333" fill-rule="nonzero"></path>
    </g>
</svg>