<?xml version="1.0" encoding="UTF-8"?>
<svg width="24px" height="24px" viewBox="0 0 24 24" version="1.1" xmlns="http://www.w3.org/2000/svg" xmlns:xlink="http://www.w3.org/1999/xlink">
    <title>icon/fill/menu-alt/menu-alt-24</title>
    <g id="icon/fill/menu-alt/menu-alt-24" stroke="none" stroke-width="1" fill="none" fill-rule="evenodd">
        <path d="M20.5263158,14.4 C21.133829,14.4 21.6263158,14.8924868 21.6263158,15.5 C21.6263158,16.0670123 21.1973051,16.5338239 20.6461729,16.5935453 L20.5263158,16.6 L3.47368421,16.6 C2.86617099,16.6 2.37368421,16.1075132 2.37368421,15.5 C2.37368421,14.9329877 2.80269491,14.4661761 3.35382709,14.4064547 L3.47368421,14.4 L20.5263158,14.4 Z M20.5263158,8.4 C21.133829,8.4 21.6263158,8.89248678 21.6263158,9.5 C21.6263158,10.0670123 21.1973051,10.5338239 20.6461729,10.5935453 L20.5263158,10.6 L3.47368421,10.6 C2.86617099,10.6 2.37368421,10.1075132 2.37368421,9.5 C2.37368421,8.93298766 2.80269491,8.46617613 3.35382709,8.40645465 L3.47368421,8.4 L20.5263158,8.4 Z" id="icon-menualt" fill="#333333" fill-rule="nonzero"></path>
    </g>
</svg>