<?xml version="1.0" encoding="UTF-8"?>
<svg width="24px" height="24px" viewBox="0 0 24 24" version="1.1" xmlns="http://www.w3.org/2000/svg" xmlns:xlink="http://www.w3.org/1999/xlink">
    <title>icon/fill/menu/menu-24</title>
    <g id="icon/fill/menu/menu-24" stroke="none" stroke-width="1" fill="none" fill-rule="evenodd">
        <path d="M20.5263158,17.4 C21.133829,17.4 21.6263158,17.8924868 21.6263158,18.5 C21.6263158,19.0670123 21.1973051,19.5338239 20.6461729,19.5935453 L20.5263158,19.6 L3.47368421,19.6 C2.86617099,19.6 2.37368421,19.1075132 2.37368421,18.5 C2.37368421,17.9329877 2.80269491,17.4661761 3.35382709,17.4064547 L3.47368421,17.4 L20.5263158,17.4 Z M20.5263158,11.4 C21.133829,11.4 21.6263158,11.8924868 21.6263158,12.5 C21.6263158,13.0670123 21.1973051,13.5338239 20.6461729,13.5935453 L20.5263158,13.6 L3.47368421,13.6 C2.86617099,13.6 2.37368421,13.1075132 2.37368421,12.5 C2.37368421,11.9329877 2.80269491,11.4661761 3.35382709,11.4064547 L3.47368421,11.4 L20.5263158,11.4 Z M20.5263158,5.4 C21.133829,5.4 21.6263158,5.89248678 21.6263158,6.5 C21.6263158,7.06701234 21.1973051,7.53382387 20.6461729,7.59354535 L20.5263158,7.6 L3.47368421,7.6 C2.86617099,7.6 2.37368421,7.10751322 2.37368421,6.5 C2.37368421,5.93298766 2.80269491,5.46617613 3.35382709,5.40645465 L3.47368421,5.4 L20.5263158,5.4 Z" id="icon-menu" fill="#333333" fill-rule="nonzero"></path>
    </g>
</svg>