<?xml version="1.0" encoding="UTF-8"?>
<svg width="24px" height="24px" viewBox="0 0 24 24" version="1.1" xmlns="http://www.w3.org/2000/svg" xmlns:xlink="http://www.w3.org/1999/xlink">
    <!-- Generator: Sketch 64 (93537) - https://sketch.com -->
    <title>icon/fill/microphone/microphone-24</title>
    <desc>Created with Sketch.</desc>
    <g id="icon/fill/microphone/microphone-24" stroke="none" stroke-width="1" fill="none" fill-rule="evenodd">
        <path d="M9.21428571,22.2995941 C8.64929841,22.2995941 8.19128571,21.8415813 8.19128571,21.276594 C8.19128571,20.7116067 8.64929841,20.253594 9.21428571,20.253594 L9.21428571,20.253594 L11.405,20.2534286 L11.4050108,18.5086508 C7.85630222,18.0287769 5.09972859,15.0893742 4.98098798,11.4879723 L4.97699999,11.2457143 C4.97699999,10.680727 5.4350127,10.2227143 6,10.2227143 C6.5649873,10.2227143 7.02300001,10.680727 7.02300001,11.2457143 C7.02300001,14.1604952 9.43888709,16.5312857 12.4285714,16.5312857 C15.4182558,16.5312857 17.8341428,14.1604952 17.8341428,11.2457143 C17.8341428,10.680727 18.2921556,10.2227143 18.8571429,10.2227143 C19.4221302,10.2227143 19.8801429,10.680727 19.8801429,11.2457143 C19.8801429,14.9571236 17.0796918,18.0184987 13.4513522,18.5087562 L13.451,20.2534286 L15.6428571,20.253594 C16.1701786,20.253594 16.6043133,20.652574 16.6598543,21.1651269 L16.6658572,21.276594 C16.6658572,21.8415813 16.2078444,22.2995941 15.6428571,22.2995941 L15.6428571,22.2995941 Z M12.4285714,1.54842856 C14.7687597,1.54842856 16.6658572,3.445526 16.6658572,5.78571429 L16.6658572,11.1857143 C16.6658572,13.5259026 14.7687597,15.423 12.4285714,15.423 C10.0883831,15.423 8.19128571,13.5259026 8.19128571,11.1857143 L8.19128571,5.78571429 C8.19128571,3.445526 10.0883831,1.54842856 12.4285714,1.54842856 Z M12.4285714,3.59442858 C11.2183578,3.59442858 10.2372857,4.57550061 10.2372857,5.78571429 L10.2372857,11.1857143 C10.2372857,12.395928 11.2183578,13.377 12.4285714,13.377 C13.6387851,13.377 14.6198571,12.395928 14.6198571,11.1857143 L14.6198571,5.78571429 C14.6198571,4.57550061 13.6387851,3.59442858 12.4285714,3.59442858 Z" id="icon-microphone" fill="#333333" fill-rule="nonzero"></path>
    </g>
</svg>