<?xml version="1.0" encoding="UTF-8"?>
<svg width="24px" height="24px" viewBox="0 0 24 24" version="1.1" xmlns="http://www.w3.org/2000/svg" xmlns:xlink="http://www.w3.org/1999/xlink">
    <!-- Generator: Sketch 64 (93537) - https://sketch.com -->
    <title>icon/fill/msg-alt/msg-alt-24</title>
    <desc>Created with Sketch.</desc>
    <g id="icon/fill/msg-alt/msg-alt-24" stroke="none" stroke-width="1" fill="none" fill-rule="evenodd">
        <path d="M18.3541736,16.2784573 C17.9556766,15.8199026 17.2608988,15.7712162 16.8023441,16.1697132 C16.3437894,16.5682103 16.295103,17.262988 16.6936,17.7215427 L20.1697132,21.7215427 C20.8371683,22.4895903 22.1,22.0175428 22.1,21 L22.1,15.0188282 C22.1,14.411315 21.6075132,13.9188282 21,13.9188282 C20.3924868,13.9188282 19.9,14.411315 19.9,15.0188282 L19.9,18.057256 L18.3541736,16.2784573 Z M17.5238868,15.9 L5,15.9 C4.50294373,15.9 4.1,15.4970563 4.1,15 L4.1,5 C4.1,4.50294373 4.50294373,4.1 5,4.1 L19,4.1 C19.4970563,4.1 19.9,4.50294373 19.9,5 L19.9,15 C19.9,15.6075132 20.3924868,16.1 21,16.1 C21.6075132,16.1 22.1,15.6075132 22.1,15 L22.1,5 C22.1,3.28791728 20.7120827,1.9 19,1.9 L5,1.9 C3.28791728,1.9 1.9,3.28791728 1.9,5 L1.9,15 C1.9,16.7120827 3.28791728,18.1 5,18.1 L17.5238868,18.1 C18.1314,18.1 18.6238868,17.6075132 18.6238868,17 C18.6238868,16.3924868 18.1314,15.9 17.5238868,15.9 Z M12,8.9 C12.6075132,8.9 13.1,9.39248678 13.1,10 C13.1,10.6075132 12.6075132,11.1 12,11.1 L12,11.1 L11.8395458,11.1 C11.2320326,11.1 10.7395458,10.6075132 10.7395458,10 C10.7395458,9.39248678 11.2320326,8.9 11.8395458,8.9 L11.8395458,8.9 Z M8,8.9 C8.60751322,8.9 9.1,9.39248678 9.1,10 C9.1,10.5670123 8.6709893,11.0338239 8.11985712,11.0935453 L8,11.1 L7.83954581,11.1 C7.23203258,11.1 6.73954581,10.6075132 6.73954581,10 C6.73954581,9.43298766 7.16855651,8.96617613 7.71968869,8.90645465 L7.83954581,8.9 L8,8.9 Z M16,8.9 C16.6075132,8.9 17.1,9.39248678 17.1,10 C17.1,10.5670123 16.6709893,11.0338239 16.1198571,11.0935453 L16,11.1 L15.8395458,11.1 C15.2320326,11.1 14.7395458,10.6075132 14.7395458,10 C14.7395458,9.43298766 15.1685565,8.96617613 15.7196887,8.90645465 L15.8395458,8.9 L16,8.9 Z" id="icon-message" fill="#333333" fill-rule="nonzero"></path>
    </g>
</svg>