<?xml version="1.0" encoding="UTF-8"?>
<svg width="24px" height="24px" viewBox="0 0 24 24" version="1.1" xmlns="http://www.w3.org/2000/svg" xmlns:xlink="http://www.w3.org/1999/xlink">
    <!-- Generator: Sketch 64 (93537) - https://sketch.com -->
    <title>icon/fill/msg/msg-24</title>
    <desc>Created with Sketch.</desc>
    <g id="icon/fill/msg/msg-24" stroke="none" stroke-width="1" fill="none" fill-rule="evenodd">
        <path d="M12.1242866,2.30162668 C17.4262202,2.30162668 21.7242866,6.59969308 21.7242866,11.9016267 C21.7242866,17.2035603 17.4262202,21.5016267 12.1242866,21.5016267 C10.5948511,21.5016267 9.11569488,21.1427088 7.78373487,20.4663835 L2.88374057,21.7663596 C2.072716,21.9605392 1.34901942,21.2168518 1.56522084,20.411418 L1.56522084,20.411418 L3.13414999,15.2753264 C2.73287655,14.2065634 2.52428663,13.0679469 2.52428663,11.9016267 C2.52428663,6.59969308 6.82235303,2.30162668 12.1242866,2.30162668 Z M19.5242866,11.9016267 C19.5242866,7.81471953 16.2111938,4.50162668 12.1242866,4.50162668 C8.03737948,4.50162668 4.72428663,7.81471953 4.72428663,11.9016267 C4.72428663,12.925398 4.93166151,13.9181112 5.3284945,14.8357861 C5.47597406,15.1768321 5.43727861,15.5515063 5.25739753,15.846264 L4.16924752,19.1963987 L7.29887671,18.3210503 C7.63146686,18.1196995 8.06077617,18.1012554 8.42092195,18.3099015 C9.53690753,18.956434 10.8041135,19.3016267 12.1242866,19.3016267 C16.2111938,19.3016267 19.5242866,15.9885338 19.5242866,11.9016267 Z M12.4746033,12.6358628 C13.082024,12.6464653 13.5658407,13.1474722 13.5552381,13.7548929 C13.5446356,14.3623136 13.0436287,14.8461303 12.436208,14.8355277 L12.436208,14.8355277 L9.97358982,14.7925425 C9.36616913,14.78194 8.88235244,14.2809331 8.89295501,13.6735124 C8.90355758,13.0660917 9.40456442,12.582275 10.0119851,12.5928776 L10.0119851,12.5928776 Z M14.5127273,9.66477587 C15.1202405,9.66477587 15.6127273,10.1572626 15.6127273,10.7647759 C15.6127273,11.3722891 15.1202405,11.8647759 14.5127273,11.8647759 L14.5127273,11.8647759 L9.58674069,11.8647759 C8.97922747,11.8647759 8.48674069,11.3722891 8.48674069,10.7647759 C8.48674069,10.1572626 8.97922747,9.66477587 9.58674069,9.66477587 L9.58674069,9.66477587 Z" id="icon-msg" fill="#333333" fill-rule="nonzero"></path>
    </g>
</svg>