<?xml version="1.0" encoding="UTF-8"?>
<svg width="24px" height="24px" viewBox="0 0 24 24" version="1.1" xmlns="http://www.w3.org/2000/svg" xmlns:xlink="http://www.w3.org/1999/xlink">
    <!-- Generator: Sketch 64 (93537) - https://sketch.com -->
    <title>icon/fill/newspaper/newspaper-24</title>
    <desc>Created with Sketch.</desc>
    <g id="icon/fill/newspaper/newspaper-24" stroke="none" stroke-width="1" fill="none" fill-rule="evenodd">
        <path d="M21,2.9 C21.6075132,2.9 22.1,3.39248678 22.1,4 L22.1,17 C22.1,19.2643675 20.2643675,21.1 18,21.1 L6,21.1 C3.73563253,21.1 1.9,19.2643675 1.9,17 L1.9,8 C1.9,7.39248678 2.39248678,6.9 3,6.9 L5.9,6.899 L5.9,4 C5.9,3.39248678 6.39248678,2.9 7,2.9 L21,2.9 Z M19.9,5.1 L8.1,5.1 L8.09986632,7.98267411 C8.09995533,7.98843875 8.1,7.99421416 8.1,8 L8.1,18.899 L18,18.9 C19.049341,18.9 19.9,18.049341 19.9,17 L19.9,5.1 Z M5.9,9.1 L4.1,9.1 L4.1,17 C4.1,18.0157976 4.89714353,18.8454123 5.9,18.8974136 L5.9,9.1 Z M12,14.9 C12.6075132,14.9 13.1,15.3924868 13.1,16 C13.1,16.6075132 12.6075132,17.1 12,17.1 L12,17.1 L11.1149978,17.1 C10.5074846,17.1 10.0149978,16.6075132 10.0149978,16 C10.0149978,15.3924868 10.5074846,14.9 11.1149978,14.9 L11.1149978,14.9 Z M17,14.9 C17.6075132,14.9 18.1,15.3924868 18.1,16 C18.1,16.6075132 17.6075132,17.1 17,17.1 L17,17.1 L16.1149978,17.1 C15.5074846,17.1 15.0149978,16.6075132 15.0149978,16 C15.0149978,15.3924868 15.5074846,14.9 16.1149978,14.9 L16.1149978,14.9 Z M12,10.9 C12.6075132,10.9 13.1,11.3924868 13.1,12 C13.1,12.6075132 12.6075132,13.1 12,13.1 L12,13.1 L11.1149978,13.1 C10.5074846,13.1 10.0149978,12.6075132 10.0149978,12 C10.0149978,11.3924868 10.5074846,10.9 11.1149978,10.9 L11.1149978,10.9 Z M17,10.9 C17.6075132,10.9 18.1,11.3924868 18.1,12 C18.1,12.6075132 17.6075132,13.1 17,13.1 L17,13.1 L16.1149978,13.1 C15.5074846,13.1 15.0149978,12.6075132 15.0149978,12 C15.0149978,11.3924868 15.5074846,10.9 16.1149978,10.9 L16.1149978,10.9 Z M17.1130312,6.9 C17.7205444,6.9 18.2130312,7.39248678 18.2130312,8 C18.2130312,8.60751322 17.7205444,9.1 17.1130312,9.1 L17.1130312,9.1 L11.1149978,9.1 C10.5074846,9.1 10.0149978,8.60751322 10.0149978,8 C10.0149978,7.39248678 10.5074846,6.9 11.1149978,6.9 L11.1149978,6.9 Z" id="icon-newspaper" fill="#333333" fill-rule="nonzero"></path>
    </g>
</svg>