<?xml version="1.0" encoding="UTF-8"?>
<svg width="24px" height="24px" viewBox="0 0 24 24" version="1.1" xmlns="http://www.w3.org/2000/svg" xmlns:xlink="http://www.w3.org/1999/xlink">
    <!-- Generator: Sketch 64 (93537) - https://sketch.com -->
    <title>icon/fill/note/note-24</title>
    <desc>Created with Sketch.</desc>
    <g id="icon/fill/note/note-24" stroke="none" stroke-width="1" fill="none" fill-rule="evenodd">
        <path d="M16,1.9 C16.6075132,1.9 17.1,2.39248678 17.1,3 L17.1,3 L17.1,3.899 L20,3.9 C20.6075132,3.9 21.1,4.39248678 21.1,5 L21.1,19 C21.1,20.7120827 19.7120827,22.1 18,22.1 L6,22.1 C4.28791728,22.1 2.9,20.7120827 2.9,19 L2.9,5 C2.9,4.39248678 3.39248678,3.9 4,3.9 L6.9,3.899 L6.9,3 C6.9,2.43298766 7.3290107,1.96617613 7.88014288,1.90645465 L8,1.9 C8.60751322,1.9 9.1,2.39248678 9.1,3 L9.1,3 L9.1,3.899 L10.9,3.899 L10.9,3 C10.9,2.43298766 11.3290107,1.96617613 11.8801429,1.90645465 L12,1.9 C12.6075132,1.9 13.1,2.39248678 13.1,3 L13.1,3 L13.1,3.899 L14.9,3.899 L14.9,3 C14.9,2.43298766 15.3290107,1.96617613 15.8801429,1.90645465 Z M6.9,6.099 L5.1,6.1 L5.1,19 C5.1,19.4970563 5.50294373,19.9 6,19.9 L18,19.9 C18.4970563,19.9 18.9,19.4970563 18.9,19 L18.9,6.1 L17.1,6.099 L17.1,7 C17.1,7.56701234 16.6709893,8.03382387 16.1198571,8.09354535 L16,8.1 C15.3924868,8.1 14.9,7.60751322 14.9,7 L14.9,7 L14.9,6.099 L13.1,6.099 L13.1,7 C13.1,7.56701234 12.6709893,8.03382387 12.1198571,8.09354535 L12,8.1 C11.3924868,8.1 10.9,7.60751322 10.9,7 L10.9,7 L10.9,6.099 L9.1,6.099 L9.1,7 C9.1,7.56701234 8.6709893,8.03382387 8.11985712,8.09354535 L8,8.1 C7.39248678,8.1 6.9,7.60751322 6.9,7 L6.9,7 L6.9,6.099 Z M16,13.9 C16.6075132,13.9 17.1,14.3924868 17.1,15 C17.1,15.6075132 16.6075132,16.1 16,16.1 L16,16.1 L8,16.1 C7.39248678,16.1 6.9,15.6075132 6.9,15 C6.9,14.3924868 7.39248678,13.9 8,13.9 L8,13.9 Z M16,10.4 C16.6075132,10.4 17.1,10.8924868 17.1,11.5 C17.1,12.1075132 16.6075132,12.6 16,12.6 L16,12.6 L10,12.6 C9.39248678,12.6 8.9,12.1075132 8.9,11.5 C8.9,10.8924868 9.39248678,10.4 10,10.4 L10,10.4 Z" id="icon-note" fill="#333333" fill-rule="nonzero"></path>
    </g>
</svg>