<?xml version="1.0" encoding="UTF-8"?>
<svg width="24px" height="24px" viewBox="0 0 24 24" version="1.1" xmlns="http://www.w3.org/2000/svg" xmlns:xlink="http://www.w3.org/1999/xlink">
    <!-- Generator: Sketch 64 (93537) - https://sketch.com -->
    <title>icon/fill/paragraph/paragraph-24</title>
    <desc>Created with Sketch.</desc>
    <g id="icon/fill/paragraph/paragraph-24" stroke="none" stroke-width="1" fill="none" fill-rule="evenodd">
        <path d="M13,13.4 C13.6075132,13.4 14.1,13.8924868 14.1,14.5 C14.1,15.1075132 13.6075132,15.6 13,15.6 L13,15.6 L3,15.6 C2.39248678,15.6 1.9,15.1075132 1.9,14.5 C1.9,13.8924868 2.39248678,13.4 3,13.4 L3,13.4 Z M21,8.4 C21.6075132,8.4 22.1,8.89248678 22.1,9.5 C22.1,10.1075132 21.6075132,10.6 21,10.6 L21,10.6 L3,10.6 C2.39248678,10.6 1.9,10.1075132 1.9,9.5 C1.9,8.89248678 2.39248678,8.4 3,8.4 L3,8.4 Z" id="icon-paragraph" fill="#333333" fill-rule="nonzero"></path>
    </g>
</svg>