<?xml version="1.0" encoding="UTF-8"?>
<svg width="24px" height="24px" viewBox="0 0 24 24" version="1.1" xmlns="http://www.w3.org/2000/svg" xmlns:xlink="http://www.w3.org/1999/xlink">
    <!-- Generator: Sketch 64 (93537) - https://sketch.com -->
    <title>icon/fill/pen/pen-24</title>
    <desc>Created with Sketch.</desc>
    <g id="icon/fill/pen/pen-24" stroke="none" stroke-width="1" fill="none" fill-rule="evenodd">
        <path d="M21.8220334,20.4 C22.4295466,20.4 22.9220334,20.8924868 22.9220334,21.5 C22.9220334,22.1075132 22.4295466,22.6 21.8220334,22.6 L21.8220334,22.6 L3,22.6 C2.39248678,22.6 1.9,22.1075132 1.9,21.5 C1.9,20.8924868 2.39248678,20.4 3,20.4 L3,20.4 Z M13.983965,3.10933101 C14.4073882,2.68784189 15.0898294,2.68138689 15.5211496,3.09479127 L15.5211496,3.09479127 L20.0607858,7.44586439 C20.5141847,7.88043048 20.5123332,8.60576539 20.0567216,9.0380111 L20.0567216,9.0380111 L9.9166547,18.6580483 C9.71227536,18.8519461 9.44129131,18.9600371 9.15956932,18.9600371 L9.15956932,18.9600371 L5.08852106,18.9600371 C4.48100783,18.9600371 3.98852106,18.4675504 3.98852106,17.8600371 L3.98852106,17.8600371 L3.98852106,13.5162303 C3.98852106,13.2236196 4.10510595,12.9430674 4.31248608,12.7366345 L4.31248608,12.7366345 Z M11.982,8.20492658 L6.18852106,13.9733409 L6.18852106,16.7600371 L8.72079743,16.7600371 L14.77,11.0199266 L11.982,8.20492658 Z M14.7745438,5.42653577 L13.541,6.65292658 L16.366,9.50592658 L17.7056904,8.23593124 L14.7745438,5.42653577 Z" id="icon-pe" fill="#333333" fill-rule="nonzero"></path>
    </g>
</svg>