<?xml version="1.0" encoding="UTF-8"?>
<svg width="24px" height="24px" viewBox="0 0 24 24" version="1.1" xmlns="http://www.w3.org/2000/svg" xmlns:xlink="http://www.w3.org/1999/xlink">
    <!-- Generator: Sketch 64 (93537) - https://sketch.com -->
    <title>icon/fill/pen-alt/pen-alt-24</title>
    <desc>Created with Sketch.</desc>
    <g id="icon/fill/pen-alt/pen-alt-24" stroke="none" stroke-width="1" fill="none" fill-rule="evenodd">
        <path d="M13.983965,4.22040414 C14.4073882,3.79891501 15.0898294,3.79246002 15.5211496,4.20586439 L15.5211496,4.20586439 L20.0607858,8.55693752 C20.5141847,8.9915036 20.5123332,9.71683852 20.0567216,10.1490842 L20.0567216,10.1490842 L9.9166547,19.7691214 C9.71227536,19.9630192 9.44129131,20.0711103 9.15956932,20.0711103 L9.15956932,20.0711103 L5.08852106,20.0711103 C4.48100783,20.0711103 3.98852106,19.5786235 3.98852106,18.9711103 L3.98852106,18.9711103 L3.98852106,14.6273035 C3.98852106,14.3346927 4.10510595,14.0541405 4.31248608,13.8477076 L4.31248608,13.8477076 Z M11.9825211,9.31699971 L6.18852106,15.0844141 L6.18852106,17.8711103 L8.72079743,17.8711103 L14.7705211,12.1319997 L11.9825211,9.31699971 Z M14.7745438,6.5376089 L13.5415211,7.76499971 L16.3665211,10.6169997 L17.7056904,9.34700437 L14.7745438,6.5376089 Z" id="icon-pen" fill="#333333" fill-rule="nonzero"></path>
    </g>
</svg>