<?xml version="1.0" encoding="UTF-8"?>
<svg width="24px" height="24px" viewBox="0 0 24 24" version="1.1" xmlns="http://www.w3.org/2000/svg" xmlns:xlink="http://www.w3.org/1999/xlink">
    <!-- Generator: Sketch 64 (93537) - https://sketch.com -->
    <title>icon/fill/phone/phone-24</title>
    <desc>Created with Sketch.</desc>
    <g id="icon/fill/phone/phone-24" stroke="none" stroke-width="1" fill="none" fill-rule="evenodd">
        <path d="M11.8929322,24.1362976 C7.82414445,24.1372065 4.79493217,19.0885193 4.79493217,13.0372065 C4.79493217,6.9858936 7.82414445,1.93720647 11.8949322,1.93720647 C12.0016086,1.93720647 12.1047383,1.95239165 12.2022777,1.98071836 L12.3033841,1.96846585 L12.3033841,1.96846585 L12.4233935,1.96619809 L14.4221751,2.03599708 C16.0742135,2.09368753 17.3790867,3.43389253 17.4133331,5.06632095 L17.4120983,5.24229709 L17.3422993,7.24107874 C17.2846088,8.89311714 15.9444037,10.1979935 14.3119753,10.2322402 L14.1359991,10.2310053 L12.6717403,10.1798722 C11.03153,12.2296086 10.9550695,14.0547617 12.3999027,15.9378662 L13.8949322,15.9372065 C15.5479776,15.9372065 16.8988283,17.2310556 16.9900248,18.8612944 L16.9949322,19.0372065 L16.9949322,21.0372065 C16.9949322,22.6902519 15.701083,24.0411026 14.0708442,24.1322991 L13.8949322,24.1372065 L11.8929322,24.1362976 Z M12.0769472,4.12178869 L12.0147893,4.13075182 C11.9754227,4.13501764 11.935433,4.13720647 11.8949322,4.13720647 C9.33830289,4.13720647 6.99493217,8.04282434 6.99493217,13.0372065 C6.99493217,18.0315886 9.33830289,21.9372065 11.8949322,21.9372065 L13.8949322,21.9372065 C14.3537533,21.9372065 14.7323839,21.5938698 14.7879199,21.1501006 L14.7949322,21.0372065 L14.7949322,19.0372065 C14.7949322,18.5783853 14.4515955,18.1997547 14.0078263,18.1442187 L13.8949322,18.1372065 L12.0965755,18.1388077 C11.7277828,18.2066837 11.3336406,18.0841631 11.0687211,17.7815196 C8.44267152,14.781527 8.55742713,11.4953562 11.3513037,8.33350223 C11.5417766,8.11794236 11.8078754,7.98681247 12.0915264,7.96508427 L12.2139965,7.96254305 L14.2127781,8.03234204 C14.6713198,8.04835467 15.0617021,7.71844118 15.1326915,7.27688044 L15.1436394,7.16429985 L15.2134384,5.16551819 C15.2294511,4.70697652 14.8995375,4.31659719 14.4579767,4.2456082 L14.3453961,4.23466031 L12.3466145,4.16486131 C12.2531512,4.16159751 12.1628194,4.14676523 12.0769472,4.12178869 Z" id="icon-phone" fill="#333333" fill-rule="nonzero" transform="translate(10.894932, 12.870252) rotate(-39.000000) translate(-10.894932, -12.870252) "></path>
    </g>
</svg>