<?xml version="1.0" encoding="UTF-8"?>
<svg width="24px" height="24px" viewBox="0 0 24 24" version="1.1" xmlns="http://www.w3.org/2000/svg" xmlns:xlink="http://www.w3.org/1999/xlink">
    <!-- Generator: Sketch 64 (93537) - https://sketch.com -->
    <title>icon/fill/play/play-24</title>
    <desc>Created with Sketch.</desc>
    <g id="icon/fill/play/play-24" stroke="none" stroke-width="1" fill="none" fill-rule="evenodd">
        <path d="M4.9,4.94681003 L4.9,19.05319 C4.9,20.7652727 6.28791728,22.15319 8,22.15319 C8.65934933,22.15319 9.30152476,21.9429607 9.83322736,21.5530455 L19.4512137,14.4998555 C20.8318457,13.487392 21.1303053,11.5474047 20.1178418,10.1667726 C19.9309181,9.91187665 19.7061097,9.68706824 19.4512137,9.50014451 L9.83322736,2.44695454 C8.45259529,1.43449103 6.51260803,1.73295061 5.50014451,3.11358267 C5.11022927,3.64528527 4.9,4.2874607 4.9,4.94681003 Z M7.1,4.94681003 C7.1,4.75538603 7.16103431,4.568948 7.2742355,4.41458273 C7.56817652,4.01375407 8.13139863,3.92710452 8.5322273,4.22104554 L18.1502136,11.2742355 C18.2242157,11.3285037 18.2894826,11.3937706 18.3437508,11.4677727 C18.6376918,11.8686014 18.5510423,12.4318235 18.1502136,12.7257645 L8.5322273,19.7789545 C8.37786203,19.8921557 8.191424,19.95319 8,19.95319 C7.50294373,19.95319 7.1,19.5502462 7.1,19.05319 L7.1,4.94681003 Z" id="icon-play" fill="#333333" fill-rule="nonzero"></path>
    </g>
</svg>