<?xml version="1.0" encoding="UTF-8"?>
<svg width="24px" height="24px" viewBox="0 0 24 24" version="1.1" xmlns="http://www.w3.org/2000/svg" xmlns:xlink="http://www.w3.org/1999/xlink">
    <!-- Generator: Sketch 64 (93537) - https://sketch.com -->
    <title>icon/fill/poll/poll-24</title>
    <desc>Created with Sketch.</desc>
    <g id="icon/fill/poll/poll-24" stroke="none" stroke-width="1" fill="none" fill-rule="evenodd">
        <path d="M20,0.9 C21.7120827,0.9 23.1,2.28791728 23.1,4 L23.1,4 L23.1,20 C23.1,21.7120827 21.7120827,23.1 20,23.1 L20,23.1 L4,23.1 C2.28791728,23.1 0.9,21.7120827 0.9,20 L0.9,20 L0.9,4 C0.9,2.28791728 2.28791728,0.9 4,0.9 L4,0.9 Z M20,3.1 L4,3.1 C3.50294373,3.1 3.1,3.50294373 3.1,4 L3.1,4 L3.1,20 C3.1,20.4970563 3.50294373,20.9 4,20.9 L4,20.9 L20,20.9 C20.4970563,20.9 20.9,20.4970563 20.9,20 L20.9,20 L20.9,4 C20.9,3.50294373 20.4970563,3.1 20,3.1 L20,3.1 Z M6.5,13.4 C7.93594035,13.4 9.1,14.5640597 9.1,16 C9.1,17.4359403 7.93594035,18.6 6.5,18.6 C5.06405965,18.6 3.9,17.4359403 3.9,16 C3.9,14.5640597 5.06405965,13.4 6.5,13.4 Z M16.4174704,16.4 C17.0249837,16.4 17.5174704,16.8924868 17.5174704,17.5 C17.5174704,18.0670123 17.0884597,18.5338239 16.5373276,18.5935453 L16.4174704,18.6 L12.0045842,18.6 C11.3970709,18.6 10.9045842,18.1075132 10.9045842,17.5 C10.9045842,16.9329877 11.3335949,16.4661761 11.884727,16.4064547 L12.0045842,16.4 L16.4174704,16.4 Z M6.5,15.6 C6.2790861,15.6 6.1,15.7790861 6.1,16 C6.1,16.2209139 6.2790861,16.4 6.5,16.4 C6.7209139,16.4 6.9,16.2209139 6.9,16 C6.9,15.7790861 6.7209139,15.6 6.5,15.6 Z M18.5,13.9 C19.1075132,13.9 19.6,14.3924868 19.6,15 C19.6,15.5670123 19.1709893,16.0338239 18.6198571,16.0935453 L18.5,16.1 L12.0045842,16.1 C11.3970709,16.1 10.9045842,15.6075132 10.9045842,15 C10.9045842,14.4329877 11.3335949,13.9661761 11.884727,13.9064547 L12.0045842,13.9 L18.5,13.9 Z M6.5,4.9 C7.93594035,4.9 9.1,6.06405965 9.1,7.5 C9.1,8.93594035 7.93594035,10.1 6.5,10.1 C5.06405965,10.1 3.9,8.93594035 3.9,7.5 C3.9,6.06405965 5.06405965,4.9 6.5,4.9 Z M16.4174704,7.9 C17.0249837,7.9 17.5174704,8.39248678 17.5174704,9 C17.5174704,9.56701234 17.0884597,10.0338239 16.5373276,10.0935453 L16.4174704,10.1 L12.0045842,10.1 C11.3970709,10.1 10.9045842,9.60751322 10.9045842,9 C10.9045842,8.43298766 11.3335949,7.96617613 11.884727,7.90645465 L12.0045842,7.9 L16.4174704,7.9 Z M6.5,7.1 C6.2790861,7.1 6.1,7.2790861 6.1,7.5 C6.1,7.7209139 6.2790861,7.9 6.5,7.9 C6.7209139,7.9 6.9,7.7209139 6.9,7.5 C6.9,7.2790861 6.7209139,7.1 6.5,7.1 Z M18.5,5.4 C19.1075132,5.4 19.6,5.89248678 19.6,6.5 C19.6,7.06701234 19.1709893,7.53382387 18.6198571,7.59354535 L18.5,7.6 L12.0045842,7.6 C11.3970709,7.6 10.9045842,7.10751322 10.9045842,6.5 C10.9045842,5.93298766 11.3335949,5.46617613 11.884727,5.40645465 L12.0045842,5.4 L18.5,5.4 Z" id="icon-poll" fill="#333333" fill-rule="nonzero"></path>
    </g>
</svg>