<?xml version="1.0" encoding="UTF-8"?>
<svg width="24px" height="24px" viewBox="0 0 24 24" version="1.1" xmlns="http://www.w3.org/2000/svg" xmlns:xlink="http://www.w3.org/1999/xlink">
    <!-- Generator: Sketch 64 (93537) - https://sketch.com -->
    <title>icon/fill/pool/pool-24</title>
    <desc>Created with Sketch.</desc>
    <g id="icon/fill/pool/pool-24" stroke="none" stroke-width="1" fill="none" fill-rule="evenodd">
        <path d="M15.991,14.9 C17.1907007,14.9 17.8316537,15.2840661 18.7700815,16.2213223 C19.3334732,16.7840107 19.527069,16.9 19.996,16.9 C20.6035132,16.9 21.096,17.3924868 21.096,18 C21.096,18.6075132 20.6035132,19.1 19.996,19.1 C18.7957226,19.1 18.1544644,18.7158021 17.2157935,17.7783031 C16.6526587,17.2158714 16.4592855,17.1 15.991,17.1 C15.5243365,17.1 15.3317354,17.2156184 14.7700119,17.7776229 C13.8324854,18.7156184 13.1921698,19.1 11.993,19.1 C10.7943621,19.1 10.1541417,18.7156051 9.2171408,17.7779009 C8.65532212,17.2156605 8.46266059,17.1 7.996,17.1 C7.52990436,17.1 7.3375367,17.2155361 6.77620647,17.7774283 C5.8390367,18.7155361 5.19890436,19.1 4,19.1 C3.39248678,19.1 2.9,18.6075132 2.9,18 C2.9,17.3924868 3.39248678,16.9 4,16.9 C4.46609564,16.9 4.6584633,16.7844639 5.21979353,16.2225717 C6.1569633,15.2844639 6.79709564,14.9 7.996,14.9 C9.19521441,14.9 9.83574028,15.284527 10.7729842,16.2224744 C11.3345459,16.7844575 11.526985,16.9 11.993,16.9 C12.4596635,16.9 12.6522646,16.7843816 13.2139881,16.2223771 C14.1515146,15.2843816 14.7918302,14.9 15.991,14.9 Z M15.991,9.9 C17.1907007,9.9 17.8316537,10.2840661 18.7700815,11.2213223 C19.3334732,11.7840107 19.527069,11.9 19.996,11.9 C20.6035132,11.9 21.096,12.3924868 21.096,13 C21.096,13.6075132 20.6035132,14.1 19.996,14.1 C18.7957226,14.1 18.1544644,13.7158021 17.2157935,12.7783031 C16.6526587,12.2158714 16.4592855,12.1 15.991,12.1 C15.5243365,12.1 15.3317354,12.2156184 14.7700119,12.7776229 C13.8324854,13.7156184 13.1921698,14.1 11.993,14.1 C10.7943621,14.1 10.1541417,13.7156051 9.2171408,12.7779009 C8.65532212,12.2156605 8.46266059,12.1 7.996,12.1 C7.52990436,12.1 7.3375367,12.2155361 6.77620647,12.7774283 C5.8390367,13.7155361 5.19890436,14.1 4,14.1 C3.39248678,14.1 2.9,13.6075132 2.9,13 C2.9,12.3924868 3.39248678,11.9 4,11.9 C4.46609564,11.9 4.6584633,11.7844639 5.21979353,11.2225717 C6.1569633,10.2844639 6.79709564,9.9 7.996,9.9 C9.19521441,9.9 9.83574028,10.284527 10.7729842,11.2224744 C11.3345459,11.7844575 11.526985,11.9 11.993,11.9 C12.4596635,11.9 12.6522646,11.7843816 13.2139881,11.2223771 C14.1515146,10.2843816 14.7918302,9.9 15.991,9.9 Z M15.991,4.9 C17.1907007,4.9 17.8316537,5.28406608 18.7700815,6.22132233 C19.3334732,6.78401069 19.527069,6.9 19.996,6.9 C20.6035132,6.9 21.096,7.39248678 21.096,8 C21.096,8.60751322 20.6035132,9.1 19.996,9.1 C18.7957226,9.1 18.1544644,8.71580214 17.2157935,7.77830314 C16.6526587,7.2158714 16.4592855,7.1 15.991,7.1 C15.5243365,7.1 15.3317354,7.21561844 14.7700119,7.77762293 C13.8324854,8.71561844 13.1921698,9.1 11.993,9.1 C10.7943621,9.1 10.1541417,8.7156051 9.2171408,7.7779009 C8.65532212,7.21566053 8.46266059,7.1 7.996,7.1 C7.52990436,7.1 7.3375367,7.21553613 6.77620647,7.77742826 C5.8390367,8.71553613 5.19890436,9.1 4,9.1 C3.39248678,9.1 2.9,8.60751322 2.9,8 C2.9,7.39248678 3.39248678,6.9 4,6.9 C4.46609564,6.9 4.6584633,6.78446387 5.21979353,6.22257174 C6.1569633,5.28446387 6.79709564,4.9 7.996,4.9 C9.19521441,4.9 9.83574028,5.28452701 10.7729842,6.22247439 C11.3345459,6.78445754 11.526985,6.9 11.993,6.9 C12.4596635,6.9 12.6522646,6.78438156 13.2139881,6.22237707 C14.1515146,5.28438156 14.7918302,4.9 15.991,4.9 Z" id="icon-pool" fill="#333333" fill-rule="nonzero"></path>
    </g>
</svg>