<?xml version="1.0" encoding="UTF-8"?>
<svg width="24px" height="24px" viewBox="0 0 24 24" version="1.1" xmlns="http://www.w3.org/2000/svg" xmlns:xlink="http://www.w3.org/1999/xlink">
    <!-- Generator: Sketch 64 (93537) - https://sketch.com -->
    <title>icon/fill/preset/preset-24</title>
    <desc>Created with Sketch.</desc>
    <g id="icon/fill/preset/preset-24" stroke="none" stroke-width="1" fill="none" fill-rule="evenodd">
        <path d="M8,14.9 C9.32446685,14.9 10.4548405,15.7304559 10.8988587,16.8991056 L22,16.9 C22.6075132,16.9 23.1,17.3924868 23.1,18 C23.1,18.6075132 22.6075132,19.1 22,19.1 L22,19.1 L10.8992368,19.0998989 C10.4554823,20.2690724 9.32484291,21.1 8,21.1 C6.67515709,21.1 5.54451766,20.2690724 5.10076321,19.0998989 L2,19.1 C1.39248678,19.1 0.9,18.6075132 0.9,18 C0.9,17.3924868 1.39248678,16.9 2,16.9 L2,16.9 L5.10114125,16.8991056 C5.54515953,15.7304559 6.67553315,14.9 8,14.9 Z M8,17.1 C7.50284656,17.1 7.1,17.5028466 7.1,18 C7.1,18.4971534 7.50284656,18.9 8,18.9 C8.49715344,18.9 8.9,18.4971534 8.9,18 C8.9,17.5028466 8.49715344,17.1 8,17.1 Z M16,8.9 C17.3244669,8.9 18.4548405,9.73045591 18.8988587,10.8991056 L22,10.9 C22.6075132,10.9 23.1,11.3924868 23.1,12 C23.1,12.6075132 22.6075132,13.1 22,13.1 L22,13.1 L18.8992368,13.0998989 C18.4554823,14.2690724 17.3248429,15.1 16,15.1 C14.6751571,15.1 13.5445177,14.2690724 13.1007632,13.0998989 L2,13.1 C1.39248678,13.1 0.9,12.6075132 0.9,12 C0.9,11.3924868 1.39248678,10.9 2,10.9 L2,10.9 L13.1011413,10.8991056 C13.5451595,9.73045591 14.6755331,8.9 16,8.9 Z M16,11.1 C15.5028466,11.1 15.1,11.5028466 15.1,12 C15.1,12.4971534 15.5028466,12.9 16,12.9 C16.4971534,12.9 16.9,12.4971534 16.9,12 C16.9,11.5028466 16.4971534,11.1 16,11.1 Z M8,2.9 C9.32446685,2.9 10.4548405,3.73045591 10.8988587,4.89910562 L22,4.9 C22.6075132,4.9 23.1,5.39248678 23.1,6 C23.1,6.60751322 22.6075132,7.1 22,7.1 L22,7.1 L10.8992368,7.09989885 C10.4554823,8.26907244 9.32484291,9.1 8,9.1 C6.67515709,9.1 5.54451766,8.26907244 5.10076321,7.09989885 L2,7.1 C1.39248678,7.1 0.9,6.60751322 0.9,6 C0.9,5.39248678 1.39248678,4.9 2,4.9 L2,4.9 L5.10114125,4.89910562 C5.54515953,3.73045591 6.67553315,2.9 8,2.9 Z M8,5.1 C7.50284656,5.1 7.1,5.50284656 7.1,6 C7.1,6.49715344 7.50284656,6.9 8,6.9 C8.49715344,6.9 8.9,6.49715344 8.9,6 C8.9,5.50284656 8.49715344,5.1 8,5.1 Z" id="icon-preset" fill="#333333" fill-rule="nonzero"></path>
    </g>
</svg>