<?xml version="1.0" encoding="UTF-8"?>
<svg width="24px" height="24px" viewBox="0 0 24 24" version="1.1" xmlns="http://www.w3.org/2000/svg" xmlns:xlink="http://www.w3.org/1999/xlink">
    <!-- Generator: Sketch 64 (93537) - https://sketch.com -->
    <title>icon/fill/question/question-24</title>
    <desc>Created with Sketch.</desc>
    <g id="icon/fill/question/question-24" stroke="none" stroke-width="1" fill="none" fill-rule="evenodd">
        <path d="M12,1.9 C17.578076,1.9 22.1,6.42192403 22.1,12 C22.1,17.578076 17.578076,22.1 12,22.1 C6.42192403,22.1 1.9,17.578076 1.9,12 C1.9,6.42192403 6.42192403,1.9 12,1.9 Z M12,4.1 C7.63695048,4.1 4.1,7.63695048 4.1,12 C4.1,16.3630495 7.63695048,19.9 12,19.9 C16.3630495,19.9 19.9,16.3630495 19.9,12 C19.9,7.63695048 16.3630495,4.1 12,4.1 Z M11.9166667,16.3333333 C12.2388328,16.3333333 12.5,16.5945006 12.5,16.9166667 C12.5,17.2388328 12.2388328,17.5 11.9166667,17.5 C11.5945006,17.5 11.3333333,17.2388328 11.3333333,16.9166667 C11.3333333,16.5945006 11.5945006,16.3333333 11.9166667,16.3333333 Z M12.1630667,6.99999067 C12.7557333,6.99999067 13.3092,7.13999067 13.8066667,7.41719067 C14.3125333,7.698124 14.7157333,8.10319067 15.006,8.62305733 C15.2934667,9.13545733 15.4381333,9.739324 15.4381333,10.416924 C15.4381333,10.9367907 15.2953333,11.452924 15.0125333,11.9522573 C14.7362667,12.4403907 14.3573333,12.8547907 13.8878667,13.183324 C13.5416,13.426924 13.1682667,13.597724 12.7744,13.6947907 L12.7744,14.9267907 C12.7744,15.1302573 12.7016,15.3187907 12.5625333,15.4699907 C12.4132,15.6323907 12.2116,15.7219907 11.9932,15.7219907 C11.7654667,15.7219907 11.5582667,15.6323907 11.4098667,15.4699907 C11.2661333,15.3131907 11.1970667,15.112524 11.212,14.902524 L11.212,13.037724 C11.212,12.824924 11.2932,12.631724 11.4472,12.477724 C11.5956,12.329324 11.7813333,12.248124 11.9866667,12.2434573 C12.3329333,12.2191907 12.6362667,12.1239907 12.9162667,11.9522573 C13.1972,11.7795907 13.4118667,11.562124 13.5724,11.2858573 C13.7292,11.016124 13.8057333,10.7314573 13.8057333,10.416924 C13.8057333,10.041724 13.7301333,9.70665733 13.5817333,9.420124 C13.4370667,9.14199067 13.2457333,8.93385733 12.9974667,8.78545733 C12.7482667,8.63519067 12.4748,8.56239067 12.1630667,8.56239067 C11.8224,8.56239067 11.5106667,8.641724 11.2073333,8.804124 C10.8984,8.97025733 10.6501333,9.18585733 10.4504,9.46305733 L10.4392,9.47799067 C10.2768,9.68705733 10.0472,9.80279067 9.7952,9.80279067 C9.64586667,9.80279067 9.51613333,9.76919067 9.40693333,9.702924 C9.14746667,9.55545733 9,9.308124 9,9.02159067 C9,8.84425733 9.05506667,8.67999067 9.15866667,8.543724 C9.49466667,8.081724 9.93053333,7.70559067 10.456,7.426524 C10.9889333,7.143724 11.5638667,6.99999067 12.1630667,6.99999067 Z" id="icon-question" fill="#333333" fill-rule="nonzero"></path>
    </g>
</svg>