<?xml version="1.0" encoding="UTF-8"?>
<svg width="24px" height="24px" viewBox="0 0 24 24" version="1.1" xmlns="http://www.w3.org/2000/svg" xmlns:xlink="http://www.w3.org/1999/xlink">
    <!-- Generator: Sketch 64 (93537) - https://sketch.com -->
    <title>icon/fill/reflash/reflash-24</title>
    <desc>Created with Sketch.</desc>
    <g id="icon/fill/reflash/reflash-24" stroke="none" stroke-width="1" fill="none" fill-rule="evenodd">
        <path d="M2.99970773,11.6654901 C3.60722096,11.6654901 4.09970773,12.1579769 4.09970773,12.7654901 C4.09970773,16.8352874 7.39893026,20.1345099 11.4687275,20.1345099 C14.2748093,20.1345099 16.773596,18.5518009 18.0152888,16.1539716 L16.8478505,16.5435516 C16.2715129,16.7356642 15.6485609,16.4241882 15.4564484,15.8478505 C15.2643358,15.2715129 15.5758118,14.6485609 16.1521495,14.4564484 L16.1521495,14.4564484 L19.0431524,13.4916912 C19.5523926,13.1832528 20.2174547,13.3362594 20.5396563,13.8407497 L20.5396563,13.8407497 L22.2417738,16.5058569 C22.568772,17.0178574 22.4187979,17.6980002 21.9067974,18.0249983 C21.3947968,18.3519964 20.714654,18.2020224 20.3876559,17.6900218 L20.3876559,17.6900218 L20.0057683,17.0938136 C18.4060568,20.2483536 15.1402698,22.3345099 11.4687275,22.3345099 C6.18390381,22.3345099 1.89970773,18.0503138 1.89970773,12.7654901 C1.89970773,12.1579769 2.39219451,11.6654901 2.99970773,11.6654901 Z M11.9451094,1.44890558 C17.4691658,1.44890558 21.9472983,5.92703806 21.9472983,11.4510944 C21.9472983,12.0586076 21.4548115,12.5510944 20.8472983,12.5510944 C20.2397851,12.5510944 19.7472983,12.0586076 19.7472983,11.4510944 C19.7472983,7.14206451 16.2541394,3.64890558 11.9451094,3.64890558 C8.98760374,3.64890558 6.35251701,5.30941721 5.03177417,7.82882597 L6.15214946,7.45644837 C6.72848711,7.26433582 7.35143908,7.57581181 7.54355163,8.15214946 C7.73566418,8.72848711 7.42418819,9.35143908 6.84785054,9.54355163 L6.84785054,9.54355163 L3.95783621,10.5077093 C3.44846846,10.8169452 2.7827538,10.6640671 2.46034366,10.1592503 L2.46034366,10.1592503 L0.758226162,7.49414315 C0.431228031,6.98214262 0.581202104,6.30199982 1.09320263,5.97500169 C1.60520316,5.64800356 2.28534596,5.79797763 2.61234409,6.30997816 L2.61234409,6.30997816 L3.01473588,6.9403982 C4.68436757,3.6354915 8.10210111,1.44890558 11.9451094,1.44890558 Z" id="icon-reflash" fill="#333333" fill-rule="nonzero"></path>
    </g>
</svg>