<?xml version="1.0" encoding="UTF-8"?>
<svg width="24px" height="24px" viewBox="0 0 24 24" version="1.1" xmlns="http://www.w3.org/2000/svg" xmlns:xlink="http://www.w3.org/1999/xlink">
    <!-- Generator: Sketch 64 (93537) - https://sketch.com -->
    <title>icon/fill/reflex/reflex-24</title>
    <desc>Created with Sketch.</desc>
    <g id="icon/fill/reflex/reflex-24" stroke="none" stroke-width="1" fill="none" fill-rule="evenodd">
        <path d="M14.8474713,3.9 C16.5595541,3.9 17.9474713,5.28791728 17.9474713,7 L17.944,6.899 L19,6.9 C20.6530454,6.9 22.0038961,8.19384916 22.0950927,9.82408797 L22.1,10 L22.1,18 C22.1,19.7120827 20.7120827,21.1 19,21.1 L19,21.1 L5,21.1 C3.28791728,21.1 1.9,19.7120827 1.9,18 L1.9,18 L1.9,10 C1.9,8.28791728 3.28791728,6.9 5,6.9 L5,6.9 L5.98963758,6.89917886 C6.04285119,5.23375991 7.40968197,3.9 9.08802908,3.9 L9.08802908,3.9 Z M14.8474713,6.1 L9.08802908,6.1 C8.5909728,6.1 8.18802908,6.50294373 8.18802908,7 L8.18802908,7 L8.18802908,8 C8.18802908,8.60751322 7.6955423,9.1 7.08802908,9.1 L7.08802908,9.1 L5,9.1 C4.50294373,9.1 4.1,9.50294373 4.1,10 L4.1,10 L4.1,18 C4.1,18.4970563 4.50294373,18.9 5,18.9 L5,18.9 L19,18.9 C19.4970563,18.9 19.9,18.4970563 19.9,18 L19.9,18 L19.9,10 C19.9,9.50294373 19.4970563,9.1 19,9.1 L19,9.1 L16.9587393,9.1 C16.9401764,9.1 16.9217209,9.09954019 16.9033836,9.09863135 L16.8474713,9.1 C16.2399581,9.1 15.7474713,8.60751322 15.7474713,8 L15.7474713,8 L15.7474713,7 C15.7474713,6.50294373 15.3445276,6.1 14.8474713,6.1 L14.8474713,6.1 Z M12,8.9 C14.2643675,8.9 16.1,10.7356325 16.1,13 C16.1,15.2643675 14.2643675,17.1 12,17.1 C9.73563253,17.1 7.9,15.2643675 7.9,13 C7.9,10.7356325 9.73563253,8.9 12,8.9 Z M12,11.1 C10.950659,11.1 10.1,11.950659 10.1,13 C10.1,14.049341 10.950659,14.9 12,14.9 C13.049341,14.9 13.9,14.049341 13.9,13 C13.9,11.950659 13.049341,11.1 12,11.1 Z" id="icon-reflex" fill="#333333" fill-rule="nonzero"></path>
    </g>
</svg>