<?xml version="1.0" encoding="UTF-8"?>
<svg width="24px" height="24px" viewBox="0 0 24 24" version="1.1" xmlns="http://www.w3.org/2000/svg" xmlns:xlink="http://www.w3.org/1999/xlink">
    <!-- Generator: Sketch 64 (93537) - https://sketch.com -->
    <title>icon/fill/refresh/refresh-24</title>
    <desc>Created with Sketch.</desc>
    <g id="icon/fill/refresh/refresh-24" stroke="none" stroke-width="1" fill="none" fill-rule="evenodd">
        <path d="M19.7141426,1.9 C20.3216558,1.9 20.8141426,2.39248678 20.8141426,3 L20.8141426,3 L20.8141426,7 C20.8141426,7.22146227 20.7486967,7.42763882 20.6360902,7.60024431 C20.5527138,7.76097271 20.4286634,7.90373451 20.2670241,8.01113397 C20.0402272,8.16182676 19.7779232,8.21732448 19.5272307,8.18712652 C19.4180685,8.19663193 19.2924737,8.20306411 19.1492054,8.20568611 L19,8.20701076 L15.3417325,8.20701076 C14.7342193,8.20701076 14.2417325,7.60751322 14.2417325,7 C14.2417325,6.43298766 14.6707432,5.96617613 15.2218754,5.90645465 L15.3417325,5.9 L17.087401,5.89871895 C15.676454,4.7672388 13.8826267,4.1 12,4.1 C7.63695048,4.1 4.1,7.63695048 4.1,12 C4.1,14.323947 5.10775843,16.4820022 6.83100058,17.9744215 C8.2570939,19.2094941 10.0736422,19.9 12,19.9 C16.3630495,19.9 19.9,16.3630495 19.9,12 C19.9,11.3924868 20.3924868,10.9 21,10.9 C21.6075132,10.9 22.1,11.3924868 22.1,12 C22.1,17.578076 17.578076,22.1 12,22.1 C9.53953752,22.1 7.21303585,21.2156507 5.39073614,19.6374424 C3.18996029,17.7314535 1.9,14.9690797 1.9,12 C1.9,6.42192403 6.42192403,1.9 12,1.9 C14.4631333,1.9 16.8000248,2.79320528 18.615364,4.30639075 L18.6141426,3 C18.6141426,2.39248678 19.1066293,1.9 19.7141426,1.9 Z" id="icon-refresh" fill="#333333" fill-rule="nonzero"></path>
    </g>
</svg>