<?xml version="1.0" encoding="UTF-8"?>
<svg width="24px" height="24px" viewBox="0 0 24 24" version="1.1" xmlns="http://www.w3.org/2000/svg" xmlns:xlink="http://www.w3.org/1999/xlink">
    <!-- Generator: Sketch 64 (93537) - https://sketch.com -->
    <title>icon/fill/search/search-24</title>
    <desc>Created with Sketch.</desc>
    <g id="icon/fill/search/search-24" stroke="none" stroke-width="1" fill="none" fill-rule="evenodd">
        <path d="M10.4928516,1.96858952 C15.2019664,1.96858952 19.0153203,5.81791961 19.0153203,10.5612024 C19.0153203,12.2796912 18.514776,13.880839 17.6524358,15.2241006 L21.7654526,19.2100246 C22.2017213,19.6328035 22.2126569,20.3291991 21.789878,20.7654678 C21.3670991,21.2017364 20.6707035,21.212672 20.2344349,20.7898931 L20.2344349,20.7898931 L16.2329099,16.9126984 C14.718655,18.3047175 12.7045482,19.1538153 10.4928516,19.1538153 C5.78364138,19.1538153 1.97038281,15.3045311 1.97038281,10.5612024 C1.97038281,5.81787377 5.78364138,1.96858952 10.4928516,1.96858952 Z M10.4928516,4.16858952 C7.00332267,4.16858952 4.17038281,7.02829352 4.17038281,10.5612024 C4.17038281,14.0941113 7.00332267,16.9538153 10.4928516,16.9538153 C12.3652809,16.9538153 14.0487043,16.1303821 15.2068183,14.82137 C15.2526177,14.7284321 15.3144575,14.6418884 15.3902282,14.5637 C15.4239795,14.5288718 15.4594746,14.4967543 15.4964418,14.4673518 C16.3234751,13.3883919 16.8153203,12.033226 16.8153203,10.5612024 C16.8153203,7.02834574 13.9822917,4.16858952 10.4928516,4.16858952 Z" id="icon-search" fill="#333333" fill-rule="nonzero"></path>
    </g>
</svg>