<?xml version="1.0" encoding="UTF-8"?>
<svg width="24px" height="24px" viewBox="0 0 24 24" version="1.1" xmlns="http://www.w3.org/2000/svg" xmlns:xlink="http://www.w3.org/1999/xlink">
    <!-- Generator: Sketch 64 (93537) - https://sketch.com -->
    <title>icon/fill/share-alt/share-alt-24</title>
    <desc>Created with Sketch.</desc>
    <g id="icon/fill/share-alt/share-alt-24" stroke="none" stroke-width="1" fill="none" fill-rule="evenodd">
        <path d="M18,1.9 C20.2643675,1.9 22.1,3.73563253 22.1,6 C22.1,8.26436747 20.2643675,10.1 18,10.1 C16.9590625,10.1 16.0087284,9.71208086 15.2856748,9.07291966 L10.0336428,11.261365 C10.0772332,11.5009637 10.1,11.7478231 10.1,12 C10.1,12.4961551 10.0118694,12.9717262 9.85040854,13.4119129 L14.6545218,15.6292444 C15.3974188,14.5828069 16.6189704,13.9 18,13.9 C20.2643675,13.9 22.1,15.7356325 22.1,18 C22.1,20.2643675 20.2643675,22.1 18,22.1 C15.7356325,22.1 13.9,20.2643675 13.9,18 C13.9,17.9018299 13.9034503,17.8044656 13.9102361,17.7080218 L8.53124077,15.2255632 C7.83421576,15.7733112 6.95525901,16.1 6,16.1 C3.73563253,16.1 1.9,14.2643675 1.9,12 C1.9,9.73563253 3.73563253,7.9 6,7.9 C7.22051013,7.9 8.31646047,8.43330383 9.06753509,9.27959555 L14.0760394,7.19223661 C13.9615599,6.81496273 13.9,6.41467041 13.9,6 C13.9,3.73563253 15.7356325,1.9 18,1.9 Z M18,16.1 C16.950659,16.1 16.1,16.950659 16.1,18 C16.1,19.049341 16.950659,19.9 18,19.9 C19.049341,19.9 19.9,19.049341 19.9,18 C19.9,16.950659 19.049341,16.1 18,16.1 Z M6,10.1 C4.95065898,10.1 4.1,10.950659 4.1,12 C4.1,13.049341 4.95065898,13.9 6,13.9 C7.04934102,13.9 7.9,13.049341 7.9,12 C7.9,10.950659 7.04934102,10.1 6,10.1 Z M18,4.1 C16.950659,4.1 16.1,4.95065898 16.1,6 C16.1,7.04934102 16.950659,7.9 18,7.9 C19.049341,7.9 19.9,7.04934102 19.9,6 C19.9,4.95065898 19.049341,4.1 18,4.1 Z" id="icon-share-alt" fill="#333333" fill-rule="nonzero"></path>
    </g>
</svg>