<?xml version="1.0" encoding="UTF-8"?>
<svg width="24px" height="24px" viewBox="0 0 24 24" version="1.1" xmlns="http://www.w3.org/2000/svg" xmlns:xlink="http://www.w3.org/1999/xlink">
    <!-- Generator: Sketch 64 (93537) - https://sketch.com -->
    <title>icon/fill/share/share-24</title>
    <desc>Created with Sketch.</desc>
    <g id="icon/fill/share/share-24" stroke="none" stroke-width="1" fill="none" fill-rule="evenodd">
        <path d="M8.02069875,2.53379989 C11.0846203,1.2036191 14.5378761,1.41135613 17.401362,3.01403798 C17.8943807,3.28997861 18.0703572,3.9133433 17.7944166,4.40636198 C17.5184759,4.89938066 16.8951112,5.0753572 16.4020926,4.79941657 C14.0895813,3.50511305 11.306696,3.3377034 8.83568459,4.41047623 C4.51687652,6.28655996 2.53720049,11.3043825 4.41287784,15.6230668 C6.28673815,19.9404929 11.3056828,21.9200106 15.6239731,20.0457753 C18.0955697,18.9716148 19.8734949,16.8246164 20.5065482,14.2522623 C20.6415624,13.7036442 21.195756,13.3683521 21.744374,13.5033664 C22.2929921,13.6383806 22.6282843,14.1925741 22.49327,14.7411922 C21.7093304,17.9266589 19.5032328,20.5907126 16.4390241,21.9224233 C11.0839183,24.24666 4.8598642,21.791836 2.53613214,16.4378929 C0.210377411,11.0829206 2.66545644,4.86010907 8.02069875,2.53379989 Z M21.0909091,9.18315544 C21.6163473,9.18315544 22.0422991,9.60910726 22.0422991,10.1345455 C22.0422991,10.6599837 21.6163473,11.0859355 21.0909091,11.0859355 L21.0909091,11.0859355 L15.2165289,11.0859355 C13.948317,11.0859355 12.95139,11.9858058 12.95139,13.0372028 L12.95139,13.0372028 L12.95139,17.3144056 C12.95139,17.8398438 12.5254382,18.2657956 12,18.2657956 C11.4745618,18.2657956 11.04861,17.8398438 11.04861,17.3144056 L11.04861,17.3144056 L11.04861,13.0372028 C11.04861,10.888995 12.9384351,9.18315544 15.2165289,9.18315544 L15.2165289,9.18315544 Z M22.0407264,10.1838484 C22.036546,10.2534504 22.0269052,10.3146563 22.0113283,10.3746285 C22.008292,10.3868887 22.0049427,10.398832 22.0013558,10.4107193 C21.9953877,10.4299475 21.9888027,10.4494595 21.9815684,10.4687821 C21.9751549,10.4864501 21.9681231,10.5036828 21.9605646,10.5207399 C21.9539327,10.5351836 21.9470625,10.5496743 21.9398061,10.5640188 C21.9304218,10.5830884 21.9201126,10.6018847 21.9091205,10.6203903 C21.8998065,10.6355658 21.8903927,10.6504367 21.8805273,10.6650924 C21.8483512,10.7134299 21.8108969,10.7594966 21.7685065,10.8025492 L21.8402676,10.7204724 C21.8152258,10.7524302 21.7878553,10.7831481 21.758158,10.8123954 L21.8224776,10.7400644 L21.7685065,10.8025492 L18.2337957,14.3924793 C17.8651455,14.7668886 17.2627768,14.7715572 16.8883675,14.402907 C16.5139582,14.0342568 16.5092896,13.431888 16.8779398,13.0574787 L16.8779398,13.0574787 L19.7554776,10.1350644 L16.8780178,7.21303405 C16.5376849,6.86746525 16.5154235,6.32762163 16.8084616,5.95662576 L16.8882883,5.86760459 C17.2626545,5.49891061 17.8650237,5.50350885 18.2337177,5.87787504 L18.2337177,5.87787504 L21.7684285,9.46696595 C21.7877514,9.48658616 21.806049,9.50683262 21.8233218,9.52763889 C21.8287381,9.53462741 21.8345283,9.5417991 21.8401991,9.54903438 C21.8547008,9.56708505 21.8681314,9.58559235 21.8808128,9.60445114 C21.8903472,9.6190862 21.8997761,9.63397852 21.908752,9.64906687 C21.9191872,9.6661471 21.9287317,9.68343235 21.9376974,9.700936 C21.9455846,9.71681714 21.9532024,9.73277141 21.9603511,9.74888461 C21.9696483,9.76934188 21.9780389,9.79026867 21.9856561,9.81140981 C21.990768,9.82609372 21.9957819,9.841153 22.0004095,9.85630571 C22.0052302,9.87159797 22.0093797,9.88654371 22.0131576,9.90156304 C22.0275665,9.95920589 22.0366646,10.0182325 22.0402369,10.0775379 C22.0404362,10.0802894 22.0405841,10.0829619 22.0407207,10.0856349 L22.0407264,10.1838484 L22.0407264,10.1838484 Z" id="icon-share" fill="#333333" fill-rule="nonzero"></path>
    </g>
</svg>