<?xml version="1.0" encoding="UTF-8"?>
<svg width="24px" height="24px" viewBox="0 0 24 24" version="1.1" xmlns="http://www.w3.org/2000/svg" xmlns:xlink="http://www.w3.org/1999/xlink">
    <!-- Generator: Sketch 64 (93537) - https://sketch.com -->
    <title>icon/fill/shield/shield-24</title>
    <desc>Created with Sketch.</desc>
    <g id="icon/fill/shield/shield-24" stroke="none" stroke-width="1" fill="none" fill-rule="evenodd">
        <path d="M12.4543138,23.0020939 C12.3850706,23.0335363 12.311993,23.0580128 12.2359758,23.0746288 L12.2113472,23.0795371 C12.2024414,23.0812786 12.1935189,23.082909 12.1845816,23.0844282 C12.1247657,23.0947036 12.0630014,23.1 12,23.1 L12.0867886,23.0965772 C12.075102,23.0975005 12.0634039,23.098237 12.0516989,23.0987867 L12,23.1 C11.9827871,23.1 11.9656666,23.0996046 11.948647,23.0988225 C11.9372646,23.0982789 11.9252319,23.0975269 11.9132114,23.0965772 C11.8806222,23.0940696 11.8488732,23.0901669 11.8175717,23.0849424 C11.8047426,23.0826478 11.7911208,23.0801058 11.7775403,23.0773045 C11.6962087,23.060734 11.6188094,23.0352982 11.5456862,23.0020939 L11.5175468,22.9885909 C11.5148096,22.9872542 11.5120766,22.9859054 11.5093479,22.9845446 C11.4752936,22.9677671 11.4425396,22.9492263 11.4108833,22.9291122 C11.4042987,22.9247741 11.3974799,22.9203455 11.3906987,22.915834 C8.38316072,20.9149291 6.13116367,17.8905003 4.52096308,14.1331414 C3.48084623,11.7060572 2.76895218,9.11756422 2.32229885,6.53087499 C2.1660901,5.62622822 2.05398012,4.78524872 1.97863297,4.02850382 C1.93288746,3.56906131 1.90944541,3.23572203 1.90109915,3.04916229 C1.8653899,2.25097065 2.66570136,1.68218762 3.40776648,1.97837067 C3.80886531,2.13846264 4.22820514,2.26864131 4.6642538,2.37016559 C6.4832762,2.79368469 8.46768577,2.70567977 10.3688679,2.29708145 C10.7222213,2.22113944 11.041304,2.14009434 11.319571,2.05966745 C11.4809856,2.01301416 11.5890506,1.97836686 11.6373161,1.96151054 C11.6872404,1.94410948 11.7315267,1.931988 11.7768305,1.92265225 L11.6373161,1.96151054 C11.6887867,1.94353485 11.7412595,1.92949905 11.7942954,1.91940312 C11.8604955,1.90663741 11.9294726,1.9 12,1.9 L11.9063474,1.90399328 C11.9243628,1.90245411 11.9424071,1.90135989 11.9604635,1.90071061 L12,1.9 C12.0136137,1.9 12.0271697,1.90024731 12.0406637,1.90073768 C12.0579237,1.90138809 12.0752988,1.90244169 12.0926474,1.90390786 C12.1327951,1.90720615 12.1720205,1.91266124 12.2105291,1.92012496 C12.2143327,1.92107489 12.2179877,1.92180739 12.2216397,1.92255866 C12.2672689,1.93165888 12.3121738,1.94390934 12.3558414,1.95882971 C12.3580838,1.95991253 12.3603849,1.9607076 12.3626839,1.96151054 C12.4109494,1.97836686 12.5190144,2.01301416 12.680429,2.05966745 C12.958696,2.14009434 13.2777787,2.22113944 13.6311321,2.29708145 C15.5323142,2.70567977 17.5167238,2.79368469 19.3357462,2.37016559 C19.7717949,2.26864131 20.1911347,2.13846264 20.5922335,1.97837067 C21.3342986,1.68218762 22.1346101,2.25097065 22.0989008,3.04916229 C22.0905546,3.23572203 22.0671125,3.56906131 22.021367,4.02850382 C21.9460199,4.78524872 21.8339099,5.62622822 21.6777012,6.53087499 C21.2310478,9.11756422 20.5191538,11.7060572 19.4790369,14.1331414 C17.8688363,17.8905003 15.6168393,20.9149291 12.6093013,22.915834 L12.5891167,22.9291122 C12.5574604,22.9492263 12.5247064,22.9677671 12.4909645,22.9846245 L12.4824532,22.9885909 Z M10.8311321,4.44796773 C8.66756302,4.91295774 6.40461045,5.01800411 4.24855634,4.53191519 C4.31166449,5.04131081 4.39152717,5.58499508 4.49021667,6.15653249 C4.90961814,8.58539887 5.5771152,11.0124615 6.54310087,13.2665626 C7.66228872,15.8781567 9.10442345,18.0705054 10.8996936,19.734136 L10.9015493,4.43270045 C10.8782751,4.43779092 10.8548021,4.44288063 10.8311321,4.44796773 Z M13.0999463,4.43277092 L13.1013093,19.7332066 C14.8961136,18.0696889 16.3379197,15.8776704 17.4568991,13.2665626 C18.4228848,11.0124615 19.0903819,8.58539887 19.5097833,6.15653249 C19.6084728,5.58499508 19.6883355,5.04131081 19.7514437,4.53191519 C17.5953895,5.01800411 15.332437,4.91295774 13.1688679,4.44796773 L13.0999463,4.43277092 Z" id="icon-shield" fill="#333333" fill-rule="nonzero"></path>
    </g>
</svg>