<?xml version="1.0" encoding="UTF-8"?>
<svg width="24px" height="24px" viewBox="0 0 24 24" version="1.1" xmlns="http://www.w3.org/2000/svg" xmlns:xlink="http://www.w3.org/1999/xlink">
    <!-- Generator: Sketch 64 (93537) - https://sketch.com -->
    <title>icon/fill/smartphone/smartphone-24</title>
    <desc>Created with Sketch.</desc>
    <g id="icon/fill/smartphone/smartphone-24" stroke="none" stroke-width="1" fill="none" fill-rule="evenodd">
        <path d="M18,1.9 C18.6075132,1.9 19.1,2.39248678 19.1,3 L19.1,21 C19.1,21.6075132 18.6075132,22.1 18,22.1 L6,22.1 C5.39248678,22.1 4.9,21.6075132 4.9,21 L4.9,3 C4.9,2.39248678 5.39248678,1.9 6,1.9 L18,1.9 Z M16.9,4.1 L7.1,4.1 L7.1,19.9 L16.9,19.9 L16.9,4.1 Z M12.0010326,15.8836899 C12.6085458,15.8836899 13.1010326,16.3761767 13.1010326,16.9836899 C13.1010326,17.5912032 12.6085458,18.0836899 12,18.0836899 C11.3924868,18.0836899 10.9,17.5912032 10.9,16.9836899 C10.9,16.3761767 11.3924868,15.8836899 12.0010326,15.8836899 Z" id="icon-smartphone" fill="#333333" fill-rule="nonzero"></path>
    </g>
</svg>