<?xml version="1.0" encoding="UTF-8"?>
<svg width="24px" height="24px" viewBox="0 0 24 24" version="1.1" xmlns="http://www.w3.org/2000/svg" xmlns:xlink="http://www.w3.org/1999/xlink">
    <!-- Generator: Sketch 64 (93537) - https://sketch.com -->
    <title>icon/fill/star/star-24</title>
    <desc>Created with Sketch.</desc>
    <g id="icon/fill/star/star-24" stroke="none" stroke-width="1" fill="none" fill-rule="evenodd">
        <path d="M15.9228265,6.96346273 L20.2614281,6.96346292 C21.4344635,6.96346292 22.4817328,7.71665173 22.8455874,8.82691536 C23.2109605,9.94006873 22.8085773,11.1663364 21.8554446,11.8521574 L18.3538466,14.3703943 L19.6896451,18.4424908 C20.0545816,19.5560224 19.6527504,20.781147 18.6987136,21.4677891 C18.232221,21.8026822 17.6745534,21.979 17.1053691,21.979 C16.5358152,21.979 15.977406,21.8023381 15.5112641,21.4668343 L11.9996382,18.9407589 L8.48841061,21.4664337 C7.53899353,22.1493231 6.24905187,22.1493231 5.30017556,21.4663602 C4.34649362,20.7802171 3.94411884,19.5546001 4.30995756,18.441332 L5.64587516,14.3698055 L2.14474553,11.8507793 C1.19116658,11.1647104 0.788925329,9.93923205 1.15455802,8.82565698 C1.5189403,7.71549445 2.56616554,6.96221943 3.73891387,6.96221943 L8.07710788,6.96221943 L9.41620678,2.88443407 C9.78021826,1.77377652 10.8274407,1.02100002 12.0004956,1.02100002 C13.1735072,1.02100002 14.2207729,1.7741843 14.5846786,2.88457054 L15.9228265,6.96346273 Z M15.2136659,8.92146267 C14.7905631,8.92146265 14.4153354,8.64965801 14.2834457,8.2476368 L12.7241451,3.49463524 C12.6246292,3.19098209 12.3298785,2.97899998 12.0004956,2.97899998 C11.6708796,2.97899998 11.3762884,3.19076139 11.2766473,3.49478208 L9.71618279,8.2466641 C9.58420888,8.64854729 9.20904922,8.9202194 8.78605134,8.9202194 L3.73891387,8.9202194 C3.40970592,8.9202194 3.11462535,9.13247252 3.01487933,9.43636843 C2.91612552,9.73713418 3.02635586,10.0729647 3.28826816,10.2614021 L7.37135723,13.1991421 C7.71783807,13.4484314 7.8628698,13.8934703 7.72979775,14.299039 L6.17023377,19.0521807 C6.07147244,19.3527171 6.18170778,19.6884894 6.44383966,19.8770848 C6.70969877,20.0684394 7.07880937,20.0684394 7.34508213,19.8769168 L11.427976,16.9400346 C11.7695103,16.6943642 12.2298143,16.6943692 12.5713433,16.9400468 L16.6548575,19.8775081 C16.7849077,19.9711111 16.9426011,20.021 17.1053691,20.021 C17.2682971,20.021 17.4260428,19.9711256 17.5558922,19.8779081 C17.8175384,19.689595 17.9277573,19.3535537 17.8291035,19.0525307 L16.269895,14.2993834 C16.1368342,13.8937562 16.2819487,13.4486747 16.6285247,13.1994284 L20.7120503,10.2626879 C20.9733496,10.0746715 21.0838411,9.73794754 20.9850969,9.43711125 C20.8855793,9.13344388 20.5908309,8.92146289 20.261428,8.92146289 L15.2136659,8.92146267 Z" id="icon-star" fill="#333333" fill-rule="nonzero"></path>
    </g>
</svg>