<?xml version="1.0" encoding="UTF-8"?>
<svg width="24px" height="24px" viewBox="0 0 24 24" version="1.1" xmlns="http://www.w3.org/2000/svg" xmlns:xlink="http://www.w3.org/1999/xlink">
    <!-- Generator: Sketch 64 (93537) - https://sketch.com -->
    <title>icon/fill/timeline/timeline-24</title>
    <desc>Created with Sketch.</desc>
    <g id="icon/fill/timeline/timeline-24" stroke="none" stroke-width="1" fill="none" fill-rule="evenodd">
        <path d="M9.09925335,17.01 L9.1,18.7332905 C9.1,19.3408037 8.60751322,19.8332905 8,19.8332905 C7.43298766,19.8332905 6.96617613,19.4042798 6.90645465,18.8531476 L6.9,18.7332905 L6.89925335,17.01 L3.36325335,17.0102673 C2.75574012,17.0102673 2.26325335,16.5177805 2.26325335,15.9102673 C2.26325335,15.3432549 2.69226405,14.8764434 3.24339623,14.8167219 L3.36325335,14.8102673 L6.89925335,14.81 L6.89914512,9.89884719 C5.78260805,9.47460041 4.97471543,8.42380866 4.90490734,7.17591203 L4.9,7 C4.9,5.28791728 6.28791728,3.9 8,3.9 C9.71208272,3.9 11.1,5.28791728 11.1,7 C11.1,8.3245556 10.2692804,9.45508623 9.10042096,9.89901202 L9.09925335,14.81 L14.8992533,14.81 L14.8991451,12.8988472 C13.7826081,12.4746004 12.9747154,11.4238087 12.9049073,10.175912 L12.9,10 C12.9,8.28791728 14.2879173,6.9 16,6.9 C17.7120827,6.9 19.1,8.28791728 19.1,10 C19.1,11.3245556 18.2692804,12.4550862 17.100421,12.899012 L17.0992533,14.81 L20.4932332,14.8102673 C21.1007464,14.8102673 21.5932332,15.302754 21.5932332,15.9102673 C21.5932332,16.4772796 21.1642225,16.9440911 20.6130903,17.0038126 L20.4932332,17.0102673 L9.09925335,17.01 Z M16,9.1 C15.5029437,9.1 15.1,9.50294373 15.1,10 C15.1,10.4970563 15.5029437,10.9 16,10.9 C16.4970563,10.9 16.9,10.4970563 16.9,10 C16.9,9.50294373 16.4970563,9.1 16,9.1 Z M8,6.1 C7.50294373,6.1 7.1,6.50294373 7.1,7 C7.1,7.49705627 7.50294373,7.9 8,7.9 C8.49705627,7.9 8.9,7.49705627 8.9,7 C8.9,6.50294373 8.49705627,6.1 8,6.1 Z" id="icon-timeline" fill="#333333" fill-rule="nonzero"></path>
    </g>
</svg>