<?xml version="1.0" encoding="UTF-8"?>
<svg width="24px" height="24px" viewBox="0 0 24 24" version="1.1" xmlns="http://www.w3.org/2000/svg" xmlns:xlink="http://www.w3.org/1999/xlink">
    <!-- Generator: Sketch 64 (93537) - https://sketch.com -->
    <title>icon/fill/trash-alt/trash-alt-24</title>
    <desc>Created with Sketch.</desc>
    <g id="icon/fill/trash-alt/trash-alt-24" stroke="none" stroke-width="1" fill="none" fill-rule="evenodd">
        <path d="M13,1.9 C14.7120827,1.9 16.1,3.28791728 16.1,5 L16.1,5.899 L20,5.9 C20.5670123,5.9 21.0338239,6.3290107 21.0935453,6.88014288 L21.1,7 C21.1,7.60751322 20.6075132,8.1 20,8.1 L20,8.1 L19.1,8.099 L19.1,19 C19.1,20.7120827 17.7120827,22.1 16,22.1 L8,22.1 C6.28791728,22.1 4.9,20.7120827 4.9,19 L4.9,8.099 L4,8.1 C3.43298766,8.1 2.96617613,7.6709893 2.90645465,7.11985712 L2.9,7 C2.9,6.39248678 3.39248678,5.9 4,5.9 L4,5.9 L7.9,5.899 L7.9,5 C7.9,3.28791728 9.28791728,1.9 11,1.9 L13,1.9 Z M16.9,8.1 L7.1,8.1 L7.1,19 C7.1,19.4970563 7.50294373,19.9 8,19.9 L16,19.9 C16.4970563,19.9 16.9,19.4970563 16.9,19 L16.9,8.1 Z M13,4.1 L11,4.1 C10.5029437,4.1 10.1,4.50294373 10.1,5 L10.1,5.9 L13.9,5.9 L13.9,5 C13.9,4.50294373 13.4970563,4.1 13,4.1 Z" id="icon-trash" fill="#333333" fill-rule="nonzero"></path>
    </g>
</svg>