<?xml version="1.0" encoding="UTF-8"?>
<svg width="24px" height="24px" viewBox="0 0 24 24" version="1.1" xmlns="http://www.w3.org/2000/svg" xmlns:xlink="http://www.w3.org/1999/xlink">
    <!-- Generator: Sketch 64 (93537) - https://sketch.com -->
    <title>icon/fill/trash/trash-24</title>
    <desc>Created with Sketch.</desc>
    <g id="icon/fill/trash/trash-24" stroke="none" stroke-width="1" fill="none" fill-rule="evenodd">
        <path d="M13.7745235,0.9 C15.1465102,0.9 16.1,2.20358416 16.1,3.67536754 L16.1,3.67536754 L16.1,4.9 L22,4.9 C22.5670123,4.9 23.0338239,5.3290107 23.0935453,5.88014288 L23.1,6 C23.1,6.60751322 22.6075132,7.1 22,7.1 L22,7.1 L21.096,7.1 L21.0982807,7.15721635 C21.0992451,7.19882102 21.0996884,7.23532021 21.0998767,7.28314036 L21.1000013,7.36541462 L21.1000013,14.4342974 C21.1000013,19.1803779 17.4956228,23.1 13.0427163,23.1 L13.0427163,23.1 L10.9564074,23.1 C6.5042179,23.1 2.89999866,19.1802107 2.89999866,14.4342974 L2.89999866,14.4342974 L2.89999866,7.36541462 C2.89999866,7.27054303 2.90027269,7.21962336 2.90171928,7.15721635 C2.90217415,7.13759269 2.90273355,7.11830828 2.9034097,7.09929461 L2,7.1 C1.39248678,7.1 0.9,6.60751322 0.9,6 C0.9,5.39248678 1.39248678,4.9 2,4.9 L2,4.9 L7.9,4.9 L7.9,3.67536754 C7.9,2.26245549 8.77873617,1.00455585 10.0628811,0.906184539 L10.2254765,0.9 Z M18.8931796,7.10017358 L5.106,7.1 C5.10518388,7.11744856 5.10410668,7.1325873 5.1032187,7.14984487 L5.10112848,7.20819826 C5.10020602,7.24799384 5.10002429,7.27915396 5.1,7.36541462 L5.1,7.36541462 L5.1,14.4342974 C5.1,18.0044977 7.76239343,20.9 10.9564074,20.9 L10.9564074,20.9 L13.0427163,20.9 C16.2374937,20.9 18.8999987,18.0046264 18.8999987,14.4342974 L18.8999987,14.4342974 L18.8994336,7.23742167 L18.8994336,7.23742167 L18.8988715,7.20819826 C18.8978646,7.16475939 18.8960764,7.13069268 18.8935558,7.10420444 C18.8934279,7.10286049 18.8933025,7.10151686 18.8931796,7.10017358 Z M9,7.9 C9.60751322,7.9 10.1,8.39248678 10.1,9 L10.1,9 L10.1,17 C10.1,17.6075132 9.60751322,18.1 9,18.1 C8.39248678,18.1 7.9,17.6075132 7.9,17 L7.9,17 L7.9,9 C7.9,8.39248678 8.39248678,7.9 9,7.9 Z M15,7.9 C15.6075132,7.9 16.1,8.39248678 16.1,9 L16.1,9 L16.1,17 C16.1,17.6075132 15.6075132,18.1 15,18.1 C14.3924868,18.1 13.9,17.6075132 13.9,17 L13.9,17 L13.9,9 C13.9,8.39248678 14.3924868,7.9 15,7.9 Z M13.7745235,3.1 L10.2254765,3.1 C10.2437249,3.1 10.1,3.29649667 10.1,3.67536754 L10.1,3.67536754 L10.1,4.9 L13.9,4.9 L13.9,3.67536754 C13.9,3.33859343 13.7864395,3.14591746 13.7740203,3.10725828 L13.7745235,3.1 Z" id="icon-trash" fill="#333333" fill-rule="nonzero"></path>
    </g>
</svg>