<?xml version="1.0" encoding="UTF-8"?>
<svg width="24px" height="24px" viewBox="0 0 24 24" version="1.1" xmlns="http://www.w3.org/2000/svg" xmlns:xlink="http://www.w3.org/1999/xlink">
    <!-- Generator: Sketch 64 (93537) - https://sketch.com -->
    <title>icon/fill/tree/tree-24</title>
    <desc>Created with Sketch.</desc>
    <g id="icon/fill/tree/tree-24" stroke="none" stroke-width="1" fill="none" fill-rule="evenodd">
        <path d="M12.5,0.9 C16.1450793,0.9 19.1,3.85492065 19.1,7.5 L19.1,13.5 C19.1,16.94248 16.4644291,19.7693895 13.1010127,20.0730029 L13.1,22 C13.1,22.6075132 12.6075132,23.1 12,23.1 C11.3924868,23.1 10.9,22.6075132 10.9,22 L10.9,22 L10.8999887,20.0730932 C7.53609411,19.7699506 4.9,16.9428217 4.9,13.5 L4.9,7.5 C4.9,3.85492065 7.85492065,0.9 11.5,0.9 L12.5,0.9 Z M12.5,3.1 L11.5,3.1 C9.0699471,3.1 7.1,5.0699471 7.1,7.5 L7.1,13.5 C7.1,15.7266322 8.75394122,17.5669657 10.900296,17.8594729 L10.9,13 C10.9,12.3924868 11.3924868,11.9 12,11.9 C12.6075132,11.9 13.1,12.3924868 13.1,13 L13.1,13 L13.1006977,17.8593373 C15.2465692,17.5663977 16.9,15.7262886 16.9,13.5 L16.9,7.5 C16.9,5.0699471 14.9300529,3.1 12.5,3.1 Z" id="icon-tree" fill="#333333" fill-rule="nonzero"></path>
    </g>
</svg>