<?xml version="1.0" encoding="UTF-8"?>
<svg width="24px" height="24px" viewBox="0 0 24 24" version="1.1" xmlns="http://www.w3.org/2000/svg" xmlns:xlink="http://www.w3.org/1999/xlink">
    <!-- Generator: Sketch 64 (93537) - https://sketch.com -->
    <title>icon/fill/upload/upload-24</title>
    <desc>Created with Sketch.</desc>
    <g id="icon/fill/upload/upload-24" stroke="none" stroke-width="1" fill="none" fill-rule="evenodd">
        <path d="M21,13.9 C21.6075132,13.9 22.1,14.3924868 22.1,15 L22.1,15 L22.1,19 C22.1,20.7120827 20.7120827,22.1 19,22.1 L19,22.1 L5,22.1 C3.28791728,22.1 1.9,20.7120827 1.9,19 L1.9,19 L1.9,15 C1.9,14.3924868 2.39248678,13.9 3,13.9 C3.60751322,13.9 4.1,14.3924868 4.1,15 L4.1,15 L4.1,19 C4.1,19.4970563 4.50294373,19.9 5,19.9 L5,19.9 L19,19.9 C19.4970563,19.9 19.9,19.4970563 19.9,19 L19.9,19 L19.9,15 C19.9,14.3924868 20.3924868,13.9 21,13.9 Z M11.2838861,2.16500049 L11.285,2.16314673 L11.285,2.16214673 L11.2902944,2.15954174 L11.3119908,2.14199909 L11.3507248,2.11250989 L11.3901122,2.08485136 L11.4301837,2.05928698 C11.4412027,2.05262031 11.4524234,2.04606995 11.4637311,2.03973544 C11.4850621,2.0277778 11.5065103,2.0167001 11.5282305,2.00637289 L11.5456862,1.99790608 L11.548,1.99614673 L11.5563941,1.99311282 L11.551,1.99514673 L11.5625152,1.99077708 C11.5741023,1.98574847 11.5858244,1.98090029 11.5976094,1.97626386 C11.6118547,1.97068654 11.6259251,1.96549061 11.6400768,1.96059135 C11.6624164,1.95282157 11.6851552,1.94576629 11.7080552,1.93946617 C11.7251708,1.93479429 11.7422805,1.93053045 11.7594662,1.9266824 C11.7802912,1.92198427 11.8012736,1.9179251 11.822335,1.91448076 C11.841351,1.91139962 11.8604197,1.90878977 11.8795348,1.90667959 C11.9015846,1.9042199 11.9239954,1.902434 11.9464314,1.90133184 L11.9737207,1.90033362 L12.0188078,1.90014673 L12.0546546,1.90130264 C12.0772904,1.90240233 12.0999008,1.90419796 12.122451,1.90669009 C12.1413575,1.90880256 12.1603794,1.91140724 12.179334,1.91450879 C12.2004102,1.9179251 12.2213926,1.92198427 12.2422674,1.92665876 C12.2594033,1.93053045 12.276513,1.93479429 12.2935308,1.93947366 C12.3165286,1.94576629 12.3392674,1.95282157 12.3618058,1.96063264 L12.4038086,1.97617897 C12.4276445,1.98553672 12.4509626,1.99565657 12.4739824,2.00662415 C12.4925665,2.01546054 12.511469,2.02512933 12.5301342,2.03537882 L12.5746856,2.06126429 C12.5964187,2.07455334 12.6172399,2.08831166 12.637671,2.10284927 L12.6899908,2.14299909 L12.721,2.16914673 L12.7029908,2.15299909 L12.7122117,2.16087607 C12.7224244,2.16955483 12.7325145,2.17844948 12.7424758,2.1875599 L12.7658518,2.20958246 C12.7681493,2.21180617 12.7704351,2.21403745 12.7727091,2.21627625 C12.779132,2.22260444 12.7852237,2.2287539 12.7912594,2.23499012 L16.7931096,6.36975049 C17.2156129,6.80628604 17.2042375,7.50267462 16.767702,7.92517791 C16.3311664,8.3476812 15.6347778,8.33630581 15.2122745,7.89977026 L13.0999908,5.71699909 L13.1,15 C13.1,15.5670123 12.6709893,16.0338239 12.1198571,16.0935453 L12,16.1 C11.4329877,16.1 10.9661761,15.6709893 10.9064547,15.1198571 L10.9,15 L10.8999908,5.71899909 L8.78940928,7.89977026 C8.39708479,8.3051247 7.76860412,8.34388696 7.33130802,8.00907651 L7.23398186,7.92517791 C6.82862742,7.53285343 6.78986516,6.90437275 7.12467561,6.46707666 L7.20857421,6.36975049 L11.2104244,2.23499012 C11.2149191,2.23034612 11.2194448,2.22575024 11.2240009,2.22120249 C11.2279893,2.21722888 11.2318934,2.21339452 11.235832,2.20958246 L11.2617583,2.18523473 L11.2775203,2.17050725 L11.2838861,2.16500049 Z" id="icon-upload" fill="#333333" fill-rule="nonzero"></path>
    </g>
</svg>