<?xml version="1.0" encoding="UTF-8"?>
<svg width="24px" height="24px" viewBox="0 0 24 24" version="1.1" xmlns="http://www.w3.org/2000/svg" xmlns:xlink="http://www.w3.org/1999/xlink">
    <!-- Generator: Sketch 64 (93537) - https://sketch.com -->
    <title>icon/fill/user/user-24</title>
    <desc>Created with Sketch.</desc>
    <g id="icon/fill/user/user-24" stroke="none" stroke-width="1" fill="none" fill-rule="evenodd">
        <path d="M12.0516393,10.9 C17.6945713,10.9 21.2830858,14.5079219 22.6780228,21.3812149 C22.7988544,21.9765905 22.4141606,22.5571911 21.8187851,22.6780228 C21.2234095,22.7988544 20.6428089,22.4141606 20.5219772,21.8187851 C19.3191502,15.8920781 16.542091,13.1 12.0516393,13.1 C7.55667124,13.1 4.74334641,15.8982726 3.4757097,21.8298883 C3.34874589,22.4239864 2.76420975,22.8026735 2.17011169,22.6757097 C1.57601362,22.5487459 1.19732649,21.9642098 1.3242903,21.3701117 C2.79212244,14.5017274 6.41322383,10.9 12.0516393,10.9 Z M12,1.9 C14.2643675,1.9 16.1,3.73563253 16.1,6 C16.1,8.26436747 14.2643675,10.1 12,10.1 C9.73563253,10.1 7.9,8.26436747 7.9,6 C7.9,3.73563253 9.73563253,1.9 12,1.9 Z M12,4.1 C10.950659,4.1 10.1,4.95065898 10.1,6 C10.1,7.04934102 10.950659,7.9 12,7.9 C13.049341,7.9 13.9,7.04934102 13.9,6 C13.9,4.95065898 13.049341,4.1 12,4.1 Z" id="icon-user" fill="#333333" fill-rule="nonzero"></path>
    </g>
</svg>