<?xml version="1.0" encoding="UTF-8"?>
<svg width="24px" height="24px" viewBox="0 0 24 24" version="1.1" xmlns="http://www.w3.org/2000/svg" xmlns:xlink="http://www.w3.org/1999/xlink">
    <!-- Generator: Sketch 64 (93537) - https://sketch.com -->
    <title>icon/fill/user-alt/user-alt-24</title>
    <desc>Created with Sketch.</desc>
    <g id="icon/fill/user-alt/user-alt-24" stroke="none" stroke-width="1" fill="none" fill-rule="evenodd">
        <path d="M12.0516393,10.9 C16.8557204,10.9 20.2063845,13.5348697 21.9353749,18.59823 C22.4886387,20.2184564 21.6236917,21.9804171 20.0034642,22.5336777 C19.6809543,22.6438055 19.3424921,22.7 19.0016978,22.7 L5.02685678,22.7 C3.31478498,22.7 1.92688035,21.3120714 1.92688035,19.6 C1.92688035,19.2479469 1.98684909,18.898466 2.10421359,18.566552 C3.88775998,13.5225724 7.25818561,10.9 12.0516393,10.9 Z M12.0516393,13.1 C8.23341804,13.1 5.66360987,15.0996014 4.17836371,19.2999695 C4.14429047,19.3963307 4.12688035,19.497792 4.12688035,19.6 C4.12688035,20.0970509 4.5298225,20.5 5.02686854,20.5 L19.0016978,20.5 C19.1006383,20.5 19.1989016,20.4836854 19.2925337,20.4517128 C19.7629227,20.2910886 20.0140361,19.7795521 19.8534107,19.3091626 C18.4164211,15.1009285 15.871916,13.1 12.0516393,13.1 Z M12,1.9 C14.2643675,1.9 16.1,3.73563253 16.1,6 C16.1,8.26436747 14.2643675,10.1 12,10.1 C9.73563253,10.1 7.9,8.26436747 7.9,6 C7.9,3.73563253 9.73563253,1.9 12,1.9 Z M12,4.1 C10.950659,4.1 10.1,4.95065898 10.1,6 C10.1,7.04934102 10.950659,7.9 12,7.9 C13.049341,7.9 13.9,7.04934102 13.9,6 C13.9,4.95065898 13.049341,4.1 12,4.1 Z" id="icon-user-alt" fill="#333333" fill-rule="nonzero"></path>
    </g>
</svg>