<?xml version="1.0" encoding="UTF-8"?>
<svg width="24px" height="24px" viewBox="0 0 24 24" version="1.1" xmlns="http://www.w3.org/2000/svg" xmlns:xlink="http://www.w3.org/1999/xlink">
    <!-- Generator: Sketch 64 (93537) - https://sketch.com -->
    <title>icon/fill/video/video-24</title>
    <desc>Created with Sketch.</desc>
    <g id="icon/fill/video/video-24" stroke="none" stroke-width="1" fill="none" fill-rule="evenodd">
        <path d="M14,5.9 C15.6472774,5.9 16.9944653,7.18483559 17.094092,8.80703499 L20.4888296,7.0259852 C21.1864015,6.65989417 22.0166441,7.12429363 22.094133,7.88391028 L22.1,8 L22.1,16 C22.1,16.7878002 21.3029751,17.3071468 20.5943497,17.0227667 L20.4888296,16.9740148 L17.094092,15.192965 C16.9944653,16.8151644 15.6472774,18.1 14,18.1 L14,18.1 L5,18.1 C3.28791728,18.1 1.9,16.7120827 1.9,15 L1.9,15 L1.9,9 C1.9,7.28791728 3.28791728,5.9 5,5.9 L5,5.9 Z M14,8.1 L5,8.1 C4.50294373,8.1 4.1,8.50294373 4.1,9 L4.1,9 L4.1,15 C4.1,15.4970563 4.50294373,15.9 5,15.9 L5,15.9 L14,15.9 C14.4970563,15.9 14.9,15.4970563 14.9,15 L14.9,15 L14.9,9 C14.9,8.50294373 14.4970563,8.1 14,8.1 L14,8.1 Z M19.9,9.819 L17.099,11.289 L17.099,12.711 L19.9,14.18 L19.9,9.819 Z" id="icon-video" fill="#333333" fill-rule="nonzero"></path>
    </g>
</svg>