<?xml version="1.0" encoding="UTF-8"?>
<svg width="24px" height="24px" viewBox="0 0 24 24" version="1.1" xmlns="http://www.w3.org/2000/svg" xmlns:xlink="http://www.w3.org/1999/xlink">
    <!-- Generator: Sketch 64 (93537) - https://sketch.com -->
    <title>icon/fill/volume/volume-24</title>
    <desc>Created with Sketch.</desc>
    <g id="icon/fill/volume/volume-24" stroke="none" stroke-width="1" fill="none" fill-rule="evenodd">
        <path d="M11.3019242,4.15028765 C12.0194339,3.5587775 13.1016389,4.06915614 13.1016389,4.99905104 L13.1016389,4.99905104 L13.1016389,19.0947347 C13.1016389,20.0263085 12.0160242,20.5361308 11.2991572,19.9412094 L11.2991572,19.9412094 L6.63125721,16.0673614 L3.0172164,16.0673614 C2.40970317,16.0673614 1.9172164,15.5748747 1.9172164,14.9673614 L1.9172164,14.9673614 L1.9172164,9.09908161 C1.9172164,8.49156839 2.40970317,7.99908161 3.0172164,7.99908161 L3.0172164,7.99908161 L6.63328529,7.99908161 Z M18.17193,6.22218254 C18.6015067,5.79260582 19.2979882,5.79260582 19.7275649,6.22218254 C22.8908117,9.3854293 22.8908117,14.5140656 19.7275649,17.6773124 C19.2979882,18.1068891 18.6015067,18.1068891 18.17193,17.6773124 C17.7423533,17.2477357 17.7423533,16.5512542 18.17193,16.1216775 C20.4760233,13.8175842 20.4760233,10.0819108 18.17193,7.77781746 C17.7423533,7.34824074 17.7423533,6.65175926 18.17193,6.22218254 Z M10.9016389,7.33148695 L7.72796137,9.947845 C7.53094974,10.11026 7.28357432,10.1990816 7.02824664,10.1990816 L7.02824664,10.1990816 L4.1172164,10.1990816 L4.1172164,13.8673614 L7.02824664,13.8673614 C7.28480772,13.8673614 7.53329882,13.9570418 7.73072834,14.1208867 L7.73072834,14.1208867 L10.9016389,16.7523967 L10.9016389,7.33148695 Z M14.7828867,7.7513571 C15.2124634,7.32178038 15.9089448,7.32178038 16.3385216,7.7513571 C18.3301955,9.74303099 18.3301955,12.9721724 16.3385216,14.9638463 C15.9089448,15.393423 15.2124634,15.393423 14.7828867,14.9638463 C14.3533099,14.5342695 14.3533099,13.8377881 14.7828867,13.4082114 C15.9154071,12.2756909 15.9154071,10.4395125 14.7828867,9.30699202 C14.3533099,8.8774153 14.3533099,8.18093382 14.7828867,7.7513571 Z" id="icon-volume" fill="#333333" fill-rule="nonzero"></path>
    </g>
</svg>