<?xml version="1.0" encoding="UTF-8"?>
<svg width="24px" height="24px" viewBox="0 0 24 24" version="1.1" xmlns="http://www.w3.org/2000/svg" xmlns:xlink="http://www.w3.org/1999/xlink">
    <!-- Generator: Sketch 64 (93537) - https://sketch.com -->
    <title>icon/fill/warning/warning-24</title>
    <desc>Created with Sketch.</desc>
    <g id="icon/fill/warning/warning-24" stroke="none" stroke-width="1" fill="none" fill-rule="evenodd">
        <path d="M11.0161301,1.50806504 C11.4215068,0.697311652 12.5784932,0.697311652 12.9838699,1.50806504 L12.9838699,1.50806504 L22.9838699,21.508065 C23.3495655,22.2394562 22.8177202,23.1 22,23.1 L22,23.1 L2,23.1 C1.18227978,23.1 0.650434489,22.2394562 1.01613009,21.508065 L1.01613009,21.508065 Z M12,4.458 L3.779,20.899 L20.22,20.899 L12,4.458 Z M12,17.2242341 C12.5670123,17.2242341 13.0338239,17.6532448 13.0935453,18.204377 L13.1,18.3242341 L13.1,18.5 C13.1,19.1075132 12.6075132,19.6 12,19.6 C11.4329877,19.6 10.9661761,19.1709893 10.9064547,18.6198571 L10.9,18.5 L10.9,18.3242341 C10.9,17.7167209 11.3924868,17.2242341 12,17.2242341 Z M12,8.9 C12.5670123,8.9 13.0338239,9.3290107 13.0935453,9.88014288 L13.1,10 L13.1,15 C13.1,15.6075132 12.6075132,16.1 12,16.1 C11.4329877,16.1 10.9661761,15.6709893 10.9064547,15.1198571 L10.9,15 L10.9,10 C10.9,9.39248678 11.3924868,8.9 12,8.9 Z" id="icon-warning" fill="#333333" fill-rule="nonzero"></path>
    </g>
</svg>