<?xml version="1.0" encoding="UTF-8"?>
<svg width="24px" height="24px" viewBox="0 0 24 24" version="1.1" xmlns="http://www.w3.org/2000/svg" xmlns:xlink="http://www.w3.org/1999/xlink">
    <!-- Generator: Sketch 64 (93537) - https://sketch.com -->
    <title>icon/fill/water/water-24</title>
    <desc>Created with Sketch.</desc>
    <g id="icon/fill/water/water-24" stroke="none" stroke-width="1" fill="none" fill-rule="evenodd">
        <path d="M19.1,14.745773 C19.1,18.7972654 15.9315177,22.1 12,22.1 C8.06851852,22.1 4.9,18.7972478 4.9,14.745773 C4.9,13.2857708 5.31255488,11.8861953 6.05687928,10.7223217 L6.06566292,10.707603 L11.0581147,2.43179934 C11.485867,1.72273005 12.5141439,1.7227344 12.9418902,2.43180732 L17.9104127,10.6706136 L17.9249184,10.6927283 C18.6874648,11.8862429 19.1,13.2858059 19.1,14.745773 Z M11.9999889,5.12954085 L7.95276131,11.8384513 L7.92902756,11.8772455 C7.3914884,12.7185152 7.1,13.7073776 7.1,14.745773 C7.1,17.6021742 9.30443533,19.9 12,19.9 C14.6955978,19.9 16.9,17.6021947 16.9,14.745773 C16.9,13.7073909 16.6085184,12.7185133 16.084767,11.8982207 L16.0553289,11.8520577 L11.9999889,5.12954085 Z" id="icon-water" fill="#333333" fill-rule="nonzero"></path>
    </g>
</svg>