<?xml version="1.0" encoding="UTF-8"?>
<svg width="24px" height="24px" viewBox="0 0 24 24" version="1.1" xmlns="http://www.w3.org/2000/svg" xmlns:xlink="http://www.w3.org/1999/xlink">
    <!-- Generator: Sketch 64 (93537) - https://sketch.com -->
    <title>icon/fill/wheel/wheel-24</title>
    <desc>Created with Sketch.</desc>
    <g id="icon/fill/wheel/wheel-24" stroke="none" stroke-width="1" fill="none" fill-rule="evenodd">
        <path d="M12,1.9 C17.578076,1.9 22.1,6.42192403 22.1,12 C22.1,17.578076 17.578076,22.1 12,22.1 C6.42192403,22.1 1.9,17.578076 1.9,12 C1.9,6.42192403 6.42192403,1.9 12,1.9 Z M4.34956643,10.0245323 L4.33243384,10.0900676 C4.18058556,10.7016747 4.1,11.3414265 4.1,12 C4.1,15.9894889 7.05721717,19.2882828 10.8991871,19.8239171 L10.8991451,14.8988472 C9.73051405,14.4548064 8.9,13.3243917 8.9,12 C8.9,11.8938007 8.9053402,11.7888486 8.91576673,11.6853977 L4.37408263,10.0337728 C4.36585291,10.0307801 4.35768062,10.0276995 4.34956643,10.0245323 Z M19.6505449,10.0227845 L19.6259174,10.0337728 L19.6259174,10.0337728 L15.0842333,11.6853977 C15.0946598,11.7888486 15.1,11.8938007 15.1,12 C15.1,13.3247677 14.2690143,14.4554483 13.0998594,14.8992252 L13.0998135,19.8240564 C16.94227,19.2888548 19.9,15.9898348 19.9,12 C19.9,11.3172355 19.8133855,10.6547008 19.6505449,10.0227845 Z M12,11.1 C11.5029437,11.1 11.1,11.5029437 11.1,12 C11.1,12.4970563 11.5029437,12.9 12,12.9 C12.4970563,12.9 12.9,12.4970563 12.9,12 C12.9,11.5029437 12.4970563,11.1 12,11.1 Z M12,4.1 C9.10063011,4.1 6.56606379,5.66190978 5.191812,7.99021838 L9.91307943,9.70764458 C10.4638904,9.20590543 11.1962212,8.9 12,8.9 C12.8037788,8.9 13.5361096,9.20590543 14.0869206,9.70764458 L18.808188,7.99021838 C17.4339362,5.66190978 14.8993699,4.1 12,4.1 Z" id="icon-wheel" fill="#333333" fill-rule="nonzero"></path>
    </g>
</svg>