<?xml version="1.0" encoding="UTF-8"?>
<svg width="24px" height="24px" viewBox="0 0 24 24" version="1.1" xmlns="http://www.w3.org/2000/svg" xmlns:xlink="http://www.w3.org/1999/xlink">
    <!-- Generator: Sketch 64 (93537) - https://sketch.com -->
    <title>icon/fill/wifi/wifi-24</title>
    <desc>Created with Sketch.</desc>
    <g id="icon/fill/wifi/wifi-24" stroke="none" stroke-width="1" fill="none" fill-rule="evenodd">
        <path d="M12,15.9 C13.7120827,15.9 15.1,17.2879173 15.1,19 C15.1,20.7120827 13.7120827,22.1 12,22.1 C10.2879173,22.1 8.9,20.7120827 8.9,19 C8.9,17.2879173 10.2879173,15.9 12,15.9 Z M12,18.1 C11.5029437,18.1 11.1,18.5029437 11.1,19 C11.1,19.4970563 11.5029437,19.9 12,19.9 C12.4970563,19.9 12.9,19.4970563 12.9,19 C12.9,18.5029437 12.4970563,18.1 12,18.1 Z M11.9924222,11.9768677 C13.8915316,11.9768677 15.5321868,12.7961287 16.8435413,14.3737081 C17.2318856,14.8408922 17.1679734,15.534435 16.7007893,15.9227794 C16.2336052,16.3111237 15.5400623,16.2472114 15.151718,15.7800273 C14.2464199,14.69094 13.2169368,14.1768677 11.9924222,14.1768677 C10.7688789,14.1768677 9.74395202,14.6899992 8.84570826,15.7774122 C8.45880818,16.2457931 7.76546597,16.3118464 7.29708509,15.9249463 C6.82870421,15.5380462 6.76265096,14.844704 7.14955104,14.3763231 C8.45407338,12.7970696 10.0923415,11.9768677 11.9924222,11.9768677 Z M11.9885166,7.97686769 C15.0209004,7.97686769 17.6416479,9.09858486 19.7872851,11.3110712 C20.2102228,11.7471859 20.1995408,12.4435855 19.7634261,12.8665232 C19.3273114,13.2894609 18.6309119,13.2787788 18.2079742,12.8426641 C16.4744693,11.0551505 14.4224748,10.1768677 11.9885166,10.1768677 C9.55550493,10.1768677 7.51070742,11.0543518 5.78968612,12.8401806 C5.36812006,13.2776213 4.67175748,13.2904902 4.23431677,12.8689242 C3.79687606,12.4473581 3.78400711,11.7509955 4.20557318,11.3135548 C6.33939255,9.09938354 8.95518636,7.97686769 11.9885166,7.97686769 Z M12,3.72830824 L12.4187933,3.73342718 C16.44834,3.83238285 19.932364,5.36573948 22.8141706,8.30703684 C23.2393364,8.74097961 23.2322213,9.43742474 22.7982786,9.86259058 C22.6123031,10.0448045 22.3781129,10.1476199 22.1377258,10.171466 L22.0172103,10.1768103 C21.7357105,10.1739344 21.4553077,10.0636699 21.2427248,9.84669854 C18.6737334,7.22467401 15.6137465,5.92830824 12,5.92830824 L12,5.92830824 L11.6150641,5.93326713 C8.16996509,6.02253918 5.24590964,7.31746853 2.78576692,9.84422656 C2.60413809,10.0307735 2.37243643,10.1390804 2.13267819,10.1685861 L2.0123222,10.1767696 C1.73083276,10.1805297 1.44790888,10.0769053 1.23027078,9.86500497 C0.794994579,9.44120436 0.785691769,8.74478502 1.20949237,8.30950882 C4.17363414,5.26510454 7.79170892,3.72830824 12,3.72830824 L12,3.72830824 Z" id="icon-wifi" fill="#333333" fill-rule="nonzero"></path>
    </g>
</svg>