<?xml version="1.0" encoding="UTF-8"?>
<svg width="24px" height="24px" viewBox="0 0 24 24" version="1.1" xmlns="http://www.w3.org/2000/svg" xmlns:xlink="http://www.w3.org/1999/xlink">
    <!-- Generator: Sketch 64 (93537) - https://sketch.com -->
    <title>icon/fill/world/world-24</title>
    <desc>Created with Sketch.</desc>
    <g id="icon/fill/world/world-24" stroke="none" stroke-width="1" fill="none" fill-rule="evenodd">
        <path d="M11.8850907,1.06923269 C17.8546739,1.06923269 22.6906693,5.94131753 22.6906693,11.9472409 C22.6906693,17.9531643 17.8546739,22.8252491 11.8850907,22.8252491 C5.91550754,22.8252491 1.07951222,17.9531643 1.07951222,11.9472409 C1.07951222,5.94131753 5.91550754,1.06923269 11.8850907,1.06923269 Z M11.8850907,3.26923269 C10.5803243,3.26923269 9.34315274,3.56214442 8.23486041,4.08639616 C7.94699028,4.82205098 7.64225617,5.41823993 7.32147523,5.8764459 C6.89683367,6.48300717 6.55318521,6.48300717 6.29052984,5.8764459 L6.29052984,5.8764459 L6.1874524,5.44361119 C4.40426125,7.03331866 3.27951222,9.35735955 3.27951222,11.9472409 C3.27951222,13.5628567 3.71720774,15.0750209 4.47939873,16.3700027 C4.90115714,16.1048858 5.63384494,15.8079778 6.81156836,14.7987897 C8.85021673,13.0518771 8.04697354,15.1213947 10.5469735,13.6213947 C13.0469735,12.1213947 13.5853251,11.5960602 13.5853251,10.0960602 C13.5853251,9.89544864 13.2673851,9.85070637 12.7547756,9.85070637 C12.2421662,9.85070637 12.0024436,9.94505894 11.8547349,10.0185207 C11.3242556,10.2823502 11.3783104,10.8267935 10.7973878,10.8912915 C10.5026824,10.9240117 10.6164928,10.4631887 10.6572188,10.3443029 C10.796416,9.93796399 11.1733613,9.22818642 10.6572188,8.84848363 C9.18760367,8.4137302 8.48418859,7.67136722 8.54697354,6.6213947 C8.78127606,5.46827882 9.61460939,5.36386869 11.0469735,6.3081643 C11.7605701,6.51893108 12.5690679,5.24733654 11.5469735,4.95270521 C10.5248792,4.65807388 11.1857516,3.55933695 11.4320643,3.58426635 C14.7484021,3.58426635 15.7812091,6.24264735 15.8503478,6.3081643 C17.0231792,10.4949339 13.371389,13.6591693 11.9591813,14.1213947 C10.5469735,14.5836201 10.7721373,15.3835895 10.7973878,15.73837 C11.8547349,16.6085057 11.4320643,17.6930729 10.5469735,18.1586965 C9.88173954,18.508659 9.38868451,19.3371998 9.21174655,20.1976689 C10.0539883,20.4755315 10.9522645,20.6252491 11.8850907,20.6252491 C15.5866461,20.6252491 18.7441794,18.2678142 19.9584111,14.9587839 C17.8762323,14.5161577 18.4208714,10.4803467 18.1617848,8.27248087 C18.0223795,7.08450637 17.4508186,5.85624428 16.4471022,4.5876946 C15.1246466,3.75225341 13.5606017,3.26923269 11.8850907,3.26923269 Z M14.5159968,15.2705826 C14.7916202,13.670871 15.2357319,13.2196274 15.8483319,13.916852 C16.7672318,14.9626888 16.1457134,15.8604779 16.3988741,16.7010222 C16.6520347,17.5415666 15.2709516,17.9664063 14.5159968,18.5004904 C13.7610419,19.0345746 13.0369971,17.257631 13.6738077,16.7010222 C14.0983482,16.3299497 14.3790779,15.8531365 14.5159968,15.2705826 Z" id="icon-world" fill="#333333" fill-rule="nonzero"></path>
    </g>
</svg>