<?xml version="1.0" encoding="UTF-8"?>
<svg width="24px" height="24px" viewBox="0 0 24 24" version="1.1" xmlns="http://www.w3.org/2000/svg" xmlns:xlink="http://www.w3.org/1999/xlink">
    <!-- Generator: Sketch 64 (93537) - https://sketch.com -->
    <title>icon/fill/wrench/wrench-24</title>
    <desc>Created with Sketch.</desc>
    <g id="icon/fill/wrench/wrench-24" stroke="none" stroke-width="1" fill="none" fill-rule="evenodd">
        <path d="M9.28985483,0.983498246 C10.0140113,0.68428218 10.8099204,1.21659362 10.8099204,2.00013234 L10.8099204,2.00013234 L10.8099204,6.1063399 L13.2083623,6.1063399 L13.2083623,2.00802554 C13.2083623,1.2228588 14.0073138,0.69050642 14.7319354,0.992847832 C17.3550571,2.08732016 19.0996364,4.6564116 19.0996364,7.54775132 C19.0996364,9.88780238 17.957307,12.0300671 16.1007613,13.3443238 L16.0996364,21.3078246 C16.0996364,22.5298785 14.8640865,23.1001323 13.4996364,23.1001323 L13.4996364,23.1001323 L10.4996364,23.1001323 C9.13518635,23.1001323 7.8996364,22.5298785 7.8996364,21.3078246 L7.8996364,21.3078246 L7.89933389,13.3449397 C6.04308659,12.031346 4.8996364,9.88889515 4.8996364,7.54775132 C4.8996364,4.64761681 6.65483388,2.07226922 9.28985483,0.983498246 Z M8.60992044,4.00819773 C7.66770937,4.91122619 7.0996364,6.1768687 7.0996364,7.54775132 C7.0996364,9.32630745 8.05431678,10.9370528 9.57078457,11.8045982 C9.99699639,12.0484268 10.1982203,12.534205 10.1004272,12.9899646 L10.0996364,13.0001323 L10.0996364,20.8609261 C10.2136484,20.8851407 10.3514203,20.9001323 10.4996364,20.9001323 L10.4996364,20.9001323 L13.4996364,20.9001323 C13.6478525,20.9001323 13.7856244,20.8851407 13.8996364,20.8609261 L13.8996364,20.8609261 L13.8996364,13.0001323 C13.8996364,12.934493 13.9053857,12.8701964 13.9164081,12.8077188 C13.8906068,12.4052225 14.0883095,12.0028568 14.4610212,11.7858206 C15.9593826,10.9132998 16.8996364,9.31293588 16.8996364,7.54775132 C16.8996364,6.18625955 16.3393324,4.92840422 15.4083623,4.02651719 L15.4083623,4.02651719 L15.4083623,6.2063399 C15.4083623,7.36613788 14.4681602,8.3063399 13.3083623,8.3063399 L13.3083623,8.3063399 L10.7099204,8.3063399 C9.55012247,8.3063399 8.60992044,7.36613788 8.60992044,6.2063399 L8.60992044,6.2063399 Z" id="icon-wrench" fill="#333333" fill-rule="nonzero" transform="translate(11.999636, 11.999567) rotate(-40.000000) translate(-11.999636, -11.999567) "></path>
    </g>
</svg>