<?xml version="1.0" encoding="UTF-8"?>
<svg width="24px" height="24px" viewBox="0 0 24 24" version="1.1" xmlns="http://www.w3.org/2000/svg" xmlns:xlink="http://www.w3.org/1999/xlink">
    <!-- Generator: Sketch 64 (93537) - https://sketch.com -->
    <title>icon/fill/zoomout/zoomout-24</title>
    <desc>Created with Sketch.</desc>
    <g id="icon/fill/zoomout/zoomout-24" stroke="none" stroke-width="1" fill="none" fill-rule="evenodd">
        <path d="M10.4928516,1.96858952 C15.2019664,1.96858952 19.0153203,5.81791961 19.0153203,10.5612024 C19.0153203,12.2796912 18.514776,13.880839 17.6524358,15.2241006 L21.7654526,19.2100246 C22.2017213,19.6328035 22.2126569,20.3291991 21.789878,20.7654678 C21.3972976,21.1705744 20.7687926,21.2089397 20.331708,20.8738532 L20.2344349,20.7898931 L16.2329099,16.9126984 C14.718655,18.3047175 12.7045482,19.1538153 10.4928516,19.1538153 C5.78364138,19.1538153 1.97038281,15.3045311 1.97038281,10.5612024 C1.97038281,5.81787377 5.78364138,1.96858952 10.4928516,1.96858952 Z M10.4928516,4.16858952 C7.00332267,4.16858952 4.17038281,7.02829352 4.17038281,10.5612024 C4.17038281,14.0941113 7.00332267,16.9538153 10.4928516,16.9538153 C12.3652809,16.9538153 14.0487043,16.1303821 15.2068183,14.82137 C15.2526177,14.7284321 15.3144575,14.6418884 15.3902282,14.5637 C15.4239795,14.5288718 15.4594746,14.4967543 15.4964418,14.4673518 C16.3234751,13.3883919 16.8153203,12.033226 16.8153203,10.5612024 C16.8153203,7.02834574 13.9822917,4.16858952 10.4928516,4.16858952 Z M13.9306177,9.37899896 C14.5381309,9.37899896 15.0306177,9.87148574 15.0306177,10.478999 C15.0306177,11.0460113 14.601607,11.5128228 14.0504748,11.5725443 L13.9306177,11.578999 L7,11.578999 C6.39248678,11.578999 5.9,11.0865122 5.9,10.478999 C5.9,9.91198662 6.3290107,9.44517509 6.88014288,9.38545361 L7,9.37899896 L13.9306177,9.37899896 Z" id="icon-zoomout" fill="#333333" fill-rule="nonzero"></path>
    </g>
</svg>